%TF.GenerationSoftware,KiCad,Pcbnew,10.0.4-10.0.4~ubuntu25.10.1*%
%TF.CreationDate,2026-08-22T14:21:32+00:00*%
%TF.ProjectId,TAPRX-888,54415052-582d-4383-9838-2e6b69636164,DEV*%
%TF.SameCoordinates,Original*%
%TF.FileFunction,Soldermask,Bot*%
%TF.FilePolarity,Negative*%
%FSLAX46Y46*%
G04 Gerber Fmt 4.6, Leading zero omitted, Abs format (unit mm)*
G04 Created by KiCad (PCBNEW 10.0.4-10.0.4~ubuntu25.10.1) date 2026-08-22 14:21:32*
%MOMM*%
%LPD*%
G01*
G04 APERTURE LIST*
G04 APERTURE END LIST*
G36*
X104373513Y-144444208D02*
G01*
X104612293Y-144521793D01*
X104835998Y-144635776D01*
X105039117Y-144783350D01*
X105216650Y-144960883D01*
X105364224Y-145164002D01*
X105478207Y-145387707D01*
X105555792Y-145626487D01*
X105595068Y-145874465D01*
X105595068Y-146125535D01*
X105555792Y-146373513D01*
X105478207Y-146612293D01*
X105364224Y-146835998D01*
X105216650Y-147039117D01*
X105039117Y-147216650D01*
X104835998Y-147364224D01*
X104612293Y-147478207D01*
X104373513Y-147555792D01*
X104125535Y-147595068D01*
X103874465Y-147595068D01*
X103626487Y-147555792D01*
X103387707Y-147478207D01*
X103164002Y-147364224D01*
X102960883Y-147216650D01*
X102783350Y-147039117D01*
X102635776Y-146835998D01*
X102521793Y-146612293D01*
X102444208Y-146373513D01*
X102404932Y-146125535D01*
X102404932Y-145874465D01*
X102444208Y-145626487D01*
X102521793Y-145387707D01*
X102635776Y-145164002D01*
X102783350Y-144960883D01*
X102960883Y-144783350D01*
X103164002Y-144635776D01*
X103387707Y-144521793D01*
X103626487Y-144444208D01*
X103874465Y-144404932D01*
X104125535Y-144404932D01*
X104373513Y-144444208D01*
G37*
G36*
X172373513Y-144444208D02*
G01*
X172612293Y-144521793D01*
X172835998Y-144635776D01*
X173039117Y-144783350D01*
X173216650Y-144960883D01*
X173364224Y-145164002D01*
X173478207Y-145387707D01*
X173555792Y-145626487D01*
X173595068Y-145874465D01*
X173595068Y-146125535D01*
X173555792Y-146373513D01*
X173478207Y-146612293D01*
X173364224Y-146835998D01*
X173216650Y-147039117D01*
X173039117Y-147216650D01*
X172835998Y-147364224D01*
X172612293Y-147478207D01*
X172373513Y-147555792D01*
X172125535Y-147595068D01*
X171874465Y-147595068D01*
X171626487Y-147555792D01*
X171387707Y-147478207D01*
X171164002Y-147364224D01*
X170960883Y-147216650D01*
X170783350Y-147039117D01*
X170635776Y-146835998D01*
X170521793Y-146612293D01*
X170444208Y-146373513D01*
X170404932Y-146125535D01*
X170404932Y-145874465D01*
X170444208Y-145626487D01*
X170521793Y-145387707D01*
X170635776Y-145164002D01*
X170783350Y-144960883D01*
X170960883Y-144783350D01*
X171164002Y-144635776D01*
X171387707Y-144521793D01*
X171626487Y-144444208D01*
X171874465Y-144404932D01*
X172125535Y-144404932D01*
X172373513Y-144444208D01*
G37*
G36*
X144836483Y-147375996D02*
G01*
X143486483Y-147375996D01*
X143486483Y-143175996D01*
X144836483Y-143175996D01*
X144836483Y-147375996D01*
G37*
G36*
X150486483Y-147375996D02*
G01*
X149136483Y-147375996D01*
X149136483Y-143175996D01*
X150486483Y-143175996D01*
X150486483Y-147375996D01*
G37*
G36*
X126850000Y-147223000D02*
G01*
X125500000Y-147223000D01*
X125500000Y-143023000D01*
X126850000Y-143023000D01*
X126850000Y-147223000D01*
G37*
G36*
X132500000Y-147223000D02*
G01*
X131150000Y-147223000D01*
X131150000Y-143023000D01*
X132500000Y-143023000D01*
X132500000Y-147223000D01*
G37*
G36*
X108850000Y-147196611D02*
G01*
X107500000Y-147196611D01*
X107500000Y-142996611D01*
X108850000Y-142996611D01*
X108850000Y-147196611D01*
G37*
G36*
X114500000Y-147196611D02*
G01*
X113150000Y-147196611D01*
X113150000Y-142996611D01*
X114500000Y-142996611D01*
X114500000Y-147196611D01*
G37*
G36*
X162650000Y-147173000D02*
G01*
X161300000Y-147173000D01*
X161300000Y-142973000D01*
X162650000Y-142973000D01*
X162650000Y-147173000D01*
G37*
G36*
X168300000Y-147173000D02*
G01*
X166950000Y-147173000D01*
X166950000Y-142973000D01*
X168300000Y-142973000D01*
X168300000Y-147173000D01*
G37*
G36*
X104246742Y-141186601D02*
G01*
X104400687Y-141250367D01*
X104539234Y-141342941D01*
X104657059Y-141460766D01*
X104749633Y-141599313D01*
X104813399Y-141753258D01*
X104845907Y-141916685D01*
X104845907Y-142083315D01*
X104813399Y-142246742D01*
X104749633Y-142400687D01*
X104657059Y-142539234D01*
X104539234Y-142657059D01*
X104400687Y-142749633D01*
X104246742Y-142813399D01*
X104083315Y-142845907D01*
X103916685Y-142845907D01*
X103753258Y-142813399D01*
X103599313Y-142749633D01*
X103460766Y-142657059D01*
X103342941Y-142539234D01*
X103250367Y-142400687D01*
X103186601Y-142246742D01*
X103154093Y-142083315D01*
X103154093Y-141916685D01*
X103186601Y-141753258D01*
X103250367Y-141599313D01*
X103342941Y-141460766D01*
X103460766Y-141342941D01*
X103599313Y-141250367D01*
X103753258Y-141186601D01*
X103916685Y-141154093D01*
X104083315Y-141154093D01*
X104246742Y-141186601D01*
G37*
G36*
X104246742Y-138186601D02*
G01*
X104400687Y-138250367D01*
X104539234Y-138342941D01*
X104657059Y-138460766D01*
X104749633Y-138599313D01*
X104813399Y-138753258D01*
X104845907Y-138916685D01*
X104845907Y-139083315D01*
X104813399Y-139246742D01*
X104749633Y-139400687D01*
X104657059Y-139539234D01*
X104539234Y-139657059D01*
X104400687Y-139749633D01*
X104246742Y-139813399D01*
X104083315Y-139845907D01*
X103916685Y-139845907D01*
X103753258Y-139813399D01*
X103599313Y-139749633D01*
X103460766Y-139657059D01*
X103342941Y-139539234D01*
X103250367Y-139400687D01*
X103186601Y-139246742D01*
X103154093Y-139083315D01*
X103154093Y-138916685D01*
X103186601Y-138753258D01*
X103250367Y-138599313D01*
X103342941Y-138460766D01*
X103460766Y-138342941D01*
X103599313Y-138250367D01*
X103753258Y-138186601D01*
X103916685Y-138154093D01*
X104083315Y-138154093D01*
X104246742Y-138186601D01*
G37*
G36*
X129246742Y-138186601D02*
G01*
X129400687Y-138250367D01*
X129539234Y-138342941D01*
X129657059Y-138460766D01*
X129749633Y-138599313D01*
X129813399Y-138753258D01*
X129845907Y-138916685D01*
X129845907Y-139083315D01*
X129813399Y-139246742D01*
X129749633Y-139400687D01*
X129657059Y-139539234D01*
X129539234Y-139657059D01*
X129400687Y-139749633D01*
X129246742Y-139813399D01*
X129083315Y-139845907D01*
X128916685Y-139845907D01*
X128753258Y-139813399D01*
X128599313Y-139749633D01*
X128460766Y-139657059D01*
X128342941Y-139539234D01*
X128250367Y-139400687D01*
X128186601Y-139246742D01*
X128154093Y-139083315D01*
X128154093Y-138916685D01*
X128186601Y-138753258D01*
X128250367Y-138599313D01*
X128342941Y-138460766D01*
X128460766Y-138342941D01*
X128599313Y-138250367D01*
X128753258Y-138186601D01*
X128916685Y-138154093D01*
X129083315Y-138154093D01*
X129246742Y-138186601D01*
G37*
G36*
X132246742Y-138186601D02*
G01*
X132400687Y-138250367D01*
X132539234Y-138342941D01*
X132657059Y-138460766D01*
X132749633Y-138599313D01*
X132813399Y-138753258D01*
X132845907Y-138916685D01*
X132845907Y-139083315D01*
X132813399Y-139246742D01*
X132749633Y-139400687D01*
X132657059Y-139539234D01*
X132539234Y-139657059D01*
X132400687Y-139749633D01*
X132246742Y-139813399D01*
X132083315Y-139845907D01*
X131916685Y-139845907D01*
X131753258Y-139813399D01*
X131599313Y-139749633D01*
X131460766Y-139657059D01*
X131342941Y-139539234D01*
X131250367Y-139400687D01*
X131186601Y-139246742D01*
X131154093Y-139083315D01*
X131154093Y-138916685D01*
X131186601Y-138753258D01*
X131250367Y-138599313D01*
X131342941Y-138460766D01*
X131460766Y-138342941D01*
X131599313Y-138250367D01*
X131753258Y-138186601D01*
X131916685Y-138154093D01*
X132083315Y-138154093D01*
X132246742Y-138186601D01*
G37*
G36*
X165246742Y-138186601D02*
G01*
X165400687Y-138250367D01*
X165539234Y-138342941D01*
X165657059Y-138460766D01*
X165749633Y-138599313D01*
X165813399Y-138753258D01*
X165845907Y-138916685D01*
X165845907Y-139083315D01*
X165813399Y-139246742D01*
X165749633Y-139400687D01*
X165657059Y-139539234D01*
X165539234Y-139657059D01*
X165400687Y-139749633D01*
X165246742Y-139813399D01*
X165083315Y-139845907D01*
X164916685Y-139845907D01*
X164753258Y-139813399D01*
X164599313Y-139749633D01*
X164460766Y-139657059D01*
X164342941Y-139539234D01*
X164250367Y-139400687D01*
X164186601Y-139246742D01*
X164154093Y-139083315D01*
X164154093Y-138916685D01*
X164186601Y-138753258D01*
X164250367Y-138599313D01*
X164342941Y-138460766D01*
X164460766Y-138342941D01*
X164599313Y-138250367D01*
X164753258Y-138186601D01*
X164916685Y-138154093D01*
X165083315Y-138154093D01*
X165246742Y-138186601D01*
G37*
G36*
X171246742Y-138186601D02*
G01*
X171400687Y-138250367D01*
X171539234Y-138342941D01*
X171657059Y-138460766D01*
X171749633Y-138599313D01*
X171813399Y-138753258D01*
X171845907Y-138916685D01*
X171845907Y-139083315D01*
X171813399Y-139246742D01*
X171749633Y-139400687D01*
X171657059Y-139539234D01*
X171539234Y-139657059D01*
X171400687Y-139749633D01*
X171246742Y-139813399D01*
X171083315Y-139845907D01*
X170916685Y-139845907D01*
X170753258Y-139813399D01*
X170599313Y-139749633D01*
X170460766Y-139657059D01*
X170342941Y-139539234D01*
X170250367Y-139400687D01*
X170186601Y-139246742D01*
X170154093Y-139083315D01*
X170154093Y-138916685D01*
X170186601Y-138753258D01*
X170250367Y-138599313D01*
X170342941Y-138460766D01*
X170460766Y-138342941D01*
X170599313Y-138250367D01*
X170753258Y-138186601D01*
X170916685Y-138154093D01*
X171083315Y-138154093D01*
X171246742Y-138186601D01*
G37*
G36*
X114390000Y-135850000D02*
G01*
X112690000Y-135850000D01*
X112690000Y-134150000D01*
X114390000Y-134150000D01*
X114390000Y-135850000D01*
G37*
G36*
X108706742Y-134186601D02*
G01*
X108860687Y-134250367D01*
X108999234Y-134342941D01*
X109117059Y-134460766D01*
X109209633Y-134599313D01*
X109273399Y-134753258D01*
X109305907Y-134916685D01*
X109305907Y-135083315D01*
X109273399Y-135246742D01*
X109209633Y-135400687D01*
X109117059Y-135539234D01*
X108999234Y-135657059D01*
X108860687Y-135749633D01*
X108706742Y-135813399D01*
X108543315Y-135845907D01*
X108376685Y-135845907D01*
X108213258Y-135813399D01*
X108059313Y-135749633D01*
X107920766Y-135657059D01*
X107802941Y-135539234D01*
X107710367Y-135400687D01*
X107646601Y-135246742D01*
X107614093Y-135083315D01*
X107614093Y-134916685D01*
X107646601Y-134753258D01*
X107710367Y-134599313D01*
X107802941Y-134460766D01*
X107920766Y-134342941D01*
X108059313Y-134250367D01*
X108213258Y-134186601D01*
X108376685Y-134154093D01*
X108543315Y-134154093D01*
X108706742Y-134186601D01*
G37*
G36*
X111246742Y-134186601D02*
G01*
X111400687Y-134250367D01*
X111539234Y-134342941D01*
X111657059Y-134460766D01*
X111749633Y-134599313D01*
X111813399Y-134753258D01*
X111845907Y-134916685D01*
X111845907Y-135083315D01*
X111813399Y-135246742D01*
X111749633Y-135400687D01*
X111657059Y-135539234D01*
X111539234Y-135657059D01*
X111400687Y-135749633D01*
X111246742Y-135813399D01*
X111083315Y-135845907D01*
X110916685Y-135845907D01*
X110753258Y-135813399D01*
X110599313Y-135749633D01*
X110460766Y-135657059D01*
X110342941Y-135539234D01*
X110250367Y-135400687D01*
X110186601Y-135246742D01*
X110154093Y-135083315D01*
X110154093Y-134916685D01*
X110186601Y-134753258D01*
X110250367Y-134599313D01*
X110342941Y-134460766D01*
X110460766Y-134342941D01*
X110599313Y-134250367D01*
X110753258Y-134186601D01*
X110916685Y-134154093D01*
X111083315Y-134154093D01*
X111246742Y-134186601D01*
G37*
G36*
X125310000Y-134850000D02*
G01*
X123610000Y-134850000D01*
X123610000Y-133150000D01*
X125310000Y-133150000D01*
X125310000Y-134850000D01*
G37*
G36*
X127246742Y-133186601D02*
G01*
X127400687Y-133250367D01*
X127539234Y-133342941D01*
X127657059Y-133460766D01*
X127749633Y-133599313D01*
X127813399Y-133753258D01*
X127845907Y-133916685D01*
X127845907Y-134083315D01*
X127813399Y-134246742D01*
X127749633Y-134400687D01*
X127657059Y-134539234D01*
X127539234Y-134657059D01*
X127400687Y-134749633D01*
X127246742Y-134813399D01*
X127083315Y-134845907D01*
X126916685Y-134845907D01*
X126753258Y-134813399D01*
X126599313Y-134749633D01*
X126460766Y-134657059D01*
X126342941Y-134539234D01*
X126250367Y-134400687D01*
X126186601Y-134246742D01*
X126154093Y-134083315D01*
X126154093Y-133916685D01*
X126186601Y-133753258D01*
X126250367Y-133599313D01*
X126342941Y-133460766D01*
X126460766Y-133342941D01*
X126599313Y-133250367D01*
X126753258Y-133186601D01*
X126916685Y-133154093D01*
X127083315Y-133154093D01*
X127246742Y-133186601D01*
G37*
G36*
X129786742Y-133186601D02*
G01*
X129940687Y-133250367D01*
X130079234Y-133342941D01*
X130197059Y-133460766D01*
X130289633Y-133599313D01*
X130353399Y-133753258D01*
X130385907Y-133916685D01*
X130385907Y-134083315D01*
X130353399Y-134246742D01*
X130289633Y-134400687D01*
X130197059Y-134539234D01*
X130079234Y-134657059D01*
X129940687Y-134749633D01*
X129786742Y-134813399D01*
X129623315Y-134845907D01*
X129456685Y-134845907D01*
X129293258Y-134813399D01*
X129139313Y-134749633D01*
X129000766Y-134657059D01*
X128882941Y-134539234D01*
X128790367Y-134400687D01*
X128726601Y-134246742D01*
X128694093Y-134083315D01*
X128694093Y-133916685D01*
X128726601Y-133753258D01*
X128790367Y-133599313D01*
X128882941Y-133460766D01*
X129000766Y-133342941D01*
X129139313Y-133250367D01*
X129293258Y-133186601D01*
X129456685Y-133154093D01*
X129623315Y-133154093D01*
X129786742Y-133186601D01*
G37*
G36*
X172246742Y-131186601D02*
G01*
X172400687Y-131250367D01*
X172539234Y-131342941D01*
X172657059Y-131460766D01*
X172749633Y-131599313D01*
X172813399Y-131753258D01*
X172845907Y-131916685D01*
X172845907Y-132083315D01*
X172813399Y-132246742D01*
X172749633Y-132400687D01*
X172657059Y-132539234D01*
X172539234Y-132657059D01*
X172400687Y-132749633D01*
X172246742Y-132813399D01*
X172083315Y-132845907D01*
X171916685Y-132845907D01*
X171753258Y-132813399D01*
X171599313Y-132749633D01*
X171460766Y-132657059D01*
X171342941Y-132539234D01*
X171250367Y-132400687D01*
X171186601Y-132246742D01*
X171154093Y-132083315D01*
X171154093Y-131916685D01*
X171186601Y-131753258D01*
X171250367Y-131599313D01*
X171342941Y-131460766D01*
X171460766Y-131342941D01*
X171599313Y-131250367D01*
X171753258Y-131186601D01*
X171916685Y-131154093D01*
X172083315Y-131154093D01*
X172246742Y-131186601D01*
G37*
G36*
X140246742Y-127186601D02*
G01*
X140400687Y-127250367D01*
X140539234Y-127342941D01*
X140657059Y-127460766D01*
X140749633Y-127599313D01*
X140813399Y-127753258D01*
X140845907Y-127916685D01*
X140845907Y-128083315D01*
X140813399Y-128246742D01*
X140749633Y-128400687D01*
X140657059Y-128539234D01*
X140539234Y-128657059D01*
X140400687Y-128749633D01*
X140246742Y-128813399D01*
X140083315Y-128845907D01*
X139916685Y-128845907D01*
X139753258Y-128813399D01*
X139599313Y-128749633D01*
X139460766Y-128657059D01*
X139342941Y-128539234D01*
X139250367Y-128400687D01*
X139186601Y-128246742D01*
X139154093Y-128083315D01*
X139154093Y-127916685D01*
X139186601Y-127753258D01*
X139250367Y-127599313D01*
X139342941Y-127460766D01*
X139460766Y-127342941D01*
X139599313Y-127250367D01*
X139753258Y-127186601D01*
X139916685Y-127154093D01*
X140083315Y-127154093D01*
X140246742Y-127186601D01*
G37*
G36*
X149002399Y-122150477D02*
G01*
X149007224Y-122150952D01*
X149009476Y-122151884D01*
X149019134Y-122153806D01*
X149022684Y-122157356D01*
X149027232Y-122159240D01*
X149040759Y-122172767D01*
X149042642Y-122177314D01*
X149046194Y-122180866D01*
X149048115Y-122190526D01*
X149049047Y-122192775D01*
X149049521Y-122197595D01*
X149050000Y-122200000D01*
X149050000Y-127800000D01*
X149049521Y-127802405D01*
X149049047Y-127807224D01*
X149048115Y-127809471D01*
X149046194Y-127819134D01*
X149042642Y-127822685D01*
X149040759Y-127827232D01*
X149027232Y-127840759D01*
X149022685Y-127842642D01*
X149019134Y-127846194D01*
X149009471Y-127848115D01*
X149007224Y-127849047D01*
X149002404Y-127849521D01*
X149000000Y-127850000D01*
X148997548Y-127850000D01*
X145002452Y-127850000D01*
X145000000Y-127850000D01*
X144997595Y-127849521D01*
X144992775Y-127849047D01*
X144990526Y-127848115D01*
X144980866Y-127846194D01*
X144977314Y-127842642D01*
X144972767Y-127840759D01*
X144959240Y-127827232D01*
X144957356Y-127822684D01*
X144953806Y-127819134D01*
X144951884Y-127809476D01*
X144950952Y-127807224D01*
X144950477Y-127802400D01*
X144950000Y-127800000D01*
X144950000Y-122200000D01*
X144950477Y-122197600D01*
X144950952Y-122192775D01*
X144951885Y-122190521D01*
X144953806Y-122180866D01*
X144957355Y-122177316D01*
X144959240Y-122172767D01*
X144972767Y-122159240D01*
X144977316Y-122157355D01*
X144980866Y-122153806D01*
X144990521Y-122151885D01*
X144992775Y-122150952D01*
X144997600Y-122150477D01*
X145000000Y-122150000D01*
X149000000Y-122150000D01*
X149002399Y-122150477D01*
G37*
G36*
X113390000Y-116850000D02*
G01*
X111690000Y-116850000D01*
X111690000Y-115150000D01*
X113390000Y-115150000D01*
X113390000Y-116850000D01*
G37*
G36*
X107706742Y-115186601D02*
G01*
X107860687Y-115250367D01*
X107999234Y-115342941D01*
X108117059Y-115460766D01*
X108209633Y-115599313D01*
X108273399Y-115753258D01*
X108305907Y-115916685D01*
X108305907Y-116083315D01*
X108273399Y-116246742D01*
X108209633Y-116400687D01*
X108117059Y-116539234D01*
X107999234Y-116657059D01*
X107860687Y-116749633D01*
X107706742Y-116813399D01*
X107543315Y-116845907D01*
X107376685Y-116845907D01*
X107213258Y-116813399D01*
X107059313Y-116749633D01*
X106920766Y-116657059D01*
X106802941Y-116539234D01*
X106710367Y-116400687D01*
X106646601Y-116246742D01*
X106614093Y-116083315D01*
X106614093Y-115916685D01*
X106646601Y-115753258D01*
X106710367Y-115599313D01*
X106802941Y-115460766D01*
X106920766Y-115342941D01*
X107059313Y-115250367D01*
X107213258Y-115186601D01*
X107376685Y-115154093D01*
X107543315Y-115154093D01*
X107706742Y-115186601D01*
G37*
G36*
X110246742Y-115186601D02*
G01*
X110400687Y-115250367D01*
X110539234Y-115342941D01*
X110657059Y-115460766D01*
X110749633Y-115599313D01*
X110813399Y-115753258D01*
X110845907Y-115916685D01*
X110845907Y-116083315D01*
X110813399Y-116246742D01*
X110749633Y-116400687D01*
X110657059Y-116539234D01*
X110539234Y-116657059D01*
X110400687Y-116749633D01*
X110246742Y-116813399D01*
X110083315Y-116845907D01*
X109916685Y-116845907D01*
X109753258Y-116813399D01*
X109599313Y-116749633D01*
X109460766Y-116657059D01*
X109342941Y-116539234D01*
X109250367Y-116400687D01*
X109186601Y-116246742D01*
X109154093Y-116083315D01*
X109154093Y-115916685D01*
X109186601Y-115753258D01*
X109250367Y-115599313D01*
X109342941Y-115460766D01*
X109460766Y-115342941D01*
X109599313Y-115250367D01*
X109753258Y-115186601D01*
X109916685Y-115154093D01*
X110083315Y-115154093D01*
X110246742Y-115186601D01*
G37*
G36*
X166496742Y-106686601D02*
G01*
X166650687Y-106750367D01*
X166789234Y-106842941D01*
X166907059Y-106960766D01*
X166999633Y-107099313D01*
X167063399Y-107253258D01*
X167095907Y-107416685D01*
X167095907Y-107583315D01*
X167063399Y-107746742D01*
X166999633Y-107900687D01*
X166907059Y-108039234D01*
X166789234Y-108157059D01*
X166650687Y-108249633D01*
X166496742Y-108313399D01*
X166333315Y-108345907D01*
X166166685Y-108345907D01*
X166003258Y-108313399D01*
X165849313Y-108249633D01*
X165710766Y-108157059D01*
X165592941Y-108039234D01*
X165500367Y-107900687D01*
X165436601Y-107746742D01*
X165404093Y-107583315D01*
X165404093Y-107416685D01*
X165436601Y-107253258D01*
X165500367Y-107099313D01*
X165592941Y-106960766D01*
X165710766Y-106842941D01*
X165849313Y-106750367D01*
X166003258Y-106686601D01*
X166166685Y-106654093D01*
X166333315Y-106654093D01*
X166496742Y-106686601D01*
G37*
G36*
X159502399Y-91450477D02*
G01*
X159507224Y-91450952D01*
X159509476Y-91451884D01*
X159519134Y-91453806D01*
X159522684Y-91457356D01*
X159527232Y-91459240D01*
X159540759Y-91472767D01*
X159542642Y-91477314D01*
X159546194Y-91480866D01*
X159548115Y-91490526D01*
X159549047Y-91492775D01*
X159549521Y-91497595D01*
X159550000Y-91500000D01*
X159550000Y-98500000D01*
X159549521Y-98502405D01*
X159549047Y-98507224D01*
X159548115Y-98509471D01*
X159546194Y-98519134D01*
X159542642Y-98522685D01*
X159540759Y-98527232D01*
X159527232Y-98540759D01*
X159522685Y-98542642D01*
X159519134Y-98546194D01*
X159509471Y-98548115D01*
X159507224Y-98549047D01*
X159502404Y-98549521D01*
X159500000Y-98550000D01*
X159497548Y-98550000D01*
X152502452Y-98550000D01*
X152500000Y-98550000D01*
X152497595Y-98549521D01*
X152492775Y-98549047D01*
X152490526Y-98548115D01*
X152480866Y-98546194D01*
X152477314Y-98542642D01*
X152472767Y-98540759D01*
X152459240Y-98527232D01*
X152457356Y-98522684D01*
X152453806Y-98519134D01*
X152451884Y-98509476D01*
X152450952Y-98507224D01*
X152450477Y-98502400D01*
X152450000Y-98500000D01*
X152450000Y-91500000D01*
X152450477Y-91497600D01*
X152450952Y-91492775D01*
X152451885Y-91490521D01*
X152453806Y-91480866D01*
X152457355Y-91477316D01*
X152459240Y-91472767D01*
X152472767Y-91459240D01*
X152477316Y-91457355D01*
X152480866Y-91453806D01*
X152490521Y-91451885D01*
X152492775Y-91450952D01*
X152497600Y-91450477D01*
X152500000Y-91450000D01*
X159500000Y-91450000D01*
X159502399Y-91450477D01*
G37*
G36*
X164246742Y-96786601D02*
G01*
X164400687Y-96850367D01*
X164539234Y-96942941D01*
X164657059Y-97060766D01*
X164749633Y-97199313D01*
X164813399Y-97353258D01*
X164845907Y-97516685D01*
X164845907Y-97683315D01*
X164813399Y-97846742D01*
X164749633Y-98000687D01*
X164657059Y-98139234D01*
X164539234Y-98257059D01*
X164400687Y-98349633D01*
X164246742Y-98413399D01*
X164083315Y-98445907D01*
X163916685Y-98445907D01*
X163753258Y-98413399D01*
X163599313Y-98349633D01*
X163460766Y-98257059D01*
X163342941Y-98139234D01*
X163250367Y-98000687D01*
X163186601Y-97846742D01*
X163154093Y-97683315D01*
X163154093Y-97516685D01*
X163186601Y-97353258D01*
X163250367Y-97199313D01*
X163342941Y-97060766D01*
X163460766Y-96942941D01*
X163599313Y-96850367D01*
X163753258Y-96786601D01*
X163916685Y-96754093D01*
X164083315Y-96754093D01*
X164246742Y-96786601D01*
G37*
G36*
X104246742Y-90686601D02*
G01*
X104400687Y-90750367D01*
X104539234Y-90842941D01*
X104657059Y-90960766D01*
X104749633Y-91099313D01*
X104813399Y-91253258D01*
X104845907Y-91416685D01*
X104845907Y-91583315D01*
X104813399Y-91746742D01*
X104749633Y-91900687D01*
X104657059Y-92039234D01*
X104539234Y-92157059D01*
X104400687Y-92249633D01*
X104246742Y-92313399D01*
X104083315Y-92345907D01*
X103916685Y-92345907D01*
X103753258Y-92313399D01*
X103599313Y-92249633D01*
X103460766Y-92157059D01*
X103342941Y-92039234D01*
X103250367Y-91900687D01*
X103186601Y-91746742D01*
X103154093Y-91583315D01*
X103154093Y-91416685D01*
X103186601Y-91253258D01*
X103250367Y-91099313D01*
X103342941Y-90960766D01*
X103460766Y-90842941D01*
X103599313Y-90750367D01*
X103753258Y-90686601D01*
X103916685Y-90654093D01*
X104083315Y-90654093D01*
X104246742Y-90686601D01*
G37*
G36*
X125310000Y-90850000D02*
G01*
X123610000Y-90850000D01*
X123610000Y-89150000D01*
X125310000Y-89150000D01*
X125310000Y-90850000D01*
G37*
G36*
X127246742Y-89186601D02*
G01*
X127400687Y-89250367D01*
X127539234Y-89342941D01*
X127657059Y-89460766D01*
X127749633Y-89599313D01*
X127813399Y-89753258D01*
X127845907Y-89916685D01*
X127845907Y-90083315D01*
X127813399Y-90246742D01*
X127749633Y-90400687D01*
X127657059Y-90539234D01*
X127539234Y-90657059D01*
X127400687Y-90749633D01*
X127246742Y-90813399D01*
X127083315Y-90845907D01*
X126916685Y-90845907D01*
X126753258Y-90813399D01*
X126599313Y-90749633D01*
X126460766Y-90657059D01*
X126342941Y-90539234D01*
X126250367Y-90400687D01*
X126186601Y-90246742D01*
X126154093Y-90083315D01*
X126154093Y-89916685D01*
X126186601Y-89753258D01*
X126250367Y-89599313D01*
X126342941Y-89460766D01*
X126460766Y-89342941D01*
X126599313Y-89250367D01*
X126753258Y-89186601D01*
X126916685Y-89154093D01*
X127083315Y-89154093D01*
X127246742Y-89186601D01*
G37*
G36*
X129786742Y-89186601D02*
G01*
X129940687Y-89250367D01*
X130079234Y-89342941D01*
X130197059Y-89460766D01*
X130289633Y-89599313D01*
X130353399Y-89753258D01*
X130385907Y-89916685D01*
X130385907Y-90083315D01*
X130353399Y-90246742D01*
X130289633Y-90400687D01*
X130197059Y-90539234D01*
X130079234Y-90657059D01*
X129940687Y-90749633D01*
X129786742Y-90813399D01*
X129623315Y-90845907D01*
X129456685Y-90845907D01*
X129293258Y-90813399D01*
X129139313Y-90749633D01*
X129000766Y-90657059D01*
X128882941Y-90539234D01*
X128790367Y-90400687D01*
X128726601Y-90246742D01*
X128694093Y-90083315D01*
X128694093Y-89916685D01*
X128726601Y-89753258D01*
X128790367Y-89599313D01*
X128882941Y-89460766D01*
X129000766Y-89342941D01*
X129139313Y-89250367D01*
X129293258Y-89186601D01*
X129456685Y-89154093D01*
X129623315Y-89154093D01*
X129786742Y-89186601D01*
G37*
G36*
X160246742Y-87286601D02*
G01*
X160400687Y-87350367D01*
X160539234Y-87442941D01*
X160657059Y-87560766D01*
X160749633Y-87699313D01*
X160813399Y-87853258D01*
X160845907Y-88016685D01*
X160845907Y-88183315D01*
X160813399Y-88346742D01*
X160749633Y-88500687D01*
X160657059Y-88639234D01*
X160539234Y-88757059D01*
X160400687Y-88849633D01*
X160246742Y-88913399D01*
X160083315Y-88945907D01*
X159916685Y-88945907D01*
X159753258Y-88913399D01*
X159599313Y-88849633D01*
X159460766Y-88757059D01*
X159342941Y-88639234D01*
X159250367Y-88500687D01*
X159186601Y-88346742D01*
X159154093Y-88183315D01*
X159154093Y-88016685D01*
X159186601Y-87853258D01*
X159250367Y-87699313D01*
X159342941Y-87560766D01*
X159460766Y-87442941D01*
X159599313Y-87350367D01*
X159753258Y-87286601D01*
X159916685Y-87254093D01*
X160083315Y-87254093D01*
X160246742Y-87286601D01*
G37*
G36*
X162446742Y-87286601D02*
G01*
X162600687Y-87350367D01*
X162739234Y-87442941D01*
X162857059Y-87560766D01*
X162949633Y-87699313D01*
X163013399Y-87853258D01*
X163045907Y-88016685D01*
X163045907Y-88183315D01*
X163013399Y-88346742D01*
X162949633Y-88500687D01*
X162857059Y-88639234D01*
X162739234Y-88757059D01*
X162600687Y-88849633D01*
X162446742Y-88913399D01*
X162283315Y-88945907D01*
X162116685Y-88945907D01*
X161953258Y-88913399D01*
X161799313Y-88849633D01*
X161660766Y-88757059D01*
X161542941Y-88639234D01*
X161450367Y-88500687D01*
X161386601Y-88346742D01*
X161354093Y-88183315D01*
X161354093Y-88016685D01*
X161386601Y-87853258D01*
X161450367Y-87699313D01*
X161542941Y-87560766D01*
X161660766Y-87442941D01*
X161799313Y-87350367D01*
X161953258Y-87286601D01*
X162116685Y-87254093D01*
X162283315Y-87254093D01*
X162446742Y-87286601D01*
G37*
G36*
X120246742Y-85186601D02*
G01*
X120400687Y-85250367D01*
X120539234Y-85342941D01*
X120657059Y-85460766D01*
X120749633Y-85599313D01*
X120813399Y-85753258D01*
X120845907Y-85916685D01*
X120845907Y-86083315D01*
X120813399Y-86246742D01*
X120749633Y-86400687D01*
X120657059Y-86539234D01*
X120539234Y-86657059D01*
X120400687Y-86749633D01*
X120246742Y-86813399D01*
X120083315Y-86845907D01*
X119916685Y-86845907D01*
X119753258Y-86813399D01*
X119599313Y-86749633D01*
X119460766Y-86657059D01*
X119342941Y-86539234D01*
X119250367Y-86400687D01*
X119186601Y-86246742D01*
X119154093Y-86083315D01*
X119154093Y-85916685D01*
X119186601Y-85753258D01*
X119250367Y-85599313D01*
X119342941Y-85460766D01*
X119460766Y-85342941D01*
X119599313Y-85250367D01*
X119753258Y-85186601D01*
X119916685Y-85154093D01*
X120083315Y-85154093D01*
X120246742Y-85186601D01*
G37*
G36*
X104246742Y-84686601D02*
G01*
X104400687Y-84750367D01*
X104539234Y-84842941D01*
X104657059Y-84960766D01*
X104749633Y-85099313D01*
X104813399Y-85253258D01*
X104845907Y-85416685D01*
X104845907Y-85583315D01*
X104813399Y-85746742D01*
X104749633Y-85900687D01*
X104657059Y-86039234D01*
X104539234Y-86157059D01*
X104400687Y-86249633D01*
X104246742Y-86313399D01*
X104083315Y-86345907D01*
X103916685Y-86345907D01*
X103753258Y-86313399D01*
X103599313Y-86249633D01*
X103460766Y-86157059D01*
X103342941Y-86039234D01*
X103250367Y-85900687D01*
X103186601Y-85746742D01*
X103154093Y-85583315D01*
X103154093Y-85416685D01*
X103186601Y-85253258D01*
X103250367Y-85099313D01*
X103342941Y-84960766D01*
X103460766Y-84842941D01*
X103599313Y-84750367D01*
X103753258Y-84686601D01*
X103916685Y-84654093D01*
X104083315Y-84654093D01*
X104246742Y-84686601D01*
G37*
G36*
X120246742Y-81186601D02*
G01*
X120400687Y-81250367D01*
X120539234Y-81342941D01*
X120657059Y-81460766D01*
X120749633Y-81599313D01*
X120813399Y-81753258D01*
X120845907Y-81916685D01*
X120845907Y-82083315D01*
X120813399Y-82246742D01*
X120749633Y-82400687D01*
X120657059Y-82539234D01*
X120539234Y-82657059D01*
X120400687Y-82749633D01*
X120246742Y-82813399D01*
X120083315Y-82845907D01*
X119916685Y-82845907D01*
X119753258Y-82813399D01*
X119599313Y-82749633D01*
X119460766Y-82657059D01*
X119342941Y-82539234D01*
X119250367Y-82400687D01*
X119186601Y-82246742D01*
X119154093Y-82083315D01*
X119154093Y-81916685D01*
X119186601Y-81753258D01*
X119250367Y-81599313D01*
X119342941Y-81460766D01*
X119460766Y-81342941D01*
X119599313Y-81250367D01*
X119753258Y-81186601D01*
X119916685Y-81154093D01*
X120083315Y-81154093D01*
X120246742Y-81186601D01*
G37*
G36*
X165643506Y-82053545D02*
G01*
X165728286Y-82102492D01*
X165797508Y-82171714D01*
X165846455Y-82256494D01*
X165871792Y-82351053D01*
X165871792Y-82448947D01*
X165846455Y-82543506D01*
X165797508Y-82628286D01*
X165728286Y-82697508D01*
X165643506Y-82746455D01*
X165548947Y-82771792D01*
X165451053Y-82771792D01*
X165356494Y-82746455D01*
X165271714Y-82697508D01*
X165202492Y-82628286D01*
X165153545Y-82543506D01*
X165128208Y-82448947D01*
X165128208Y-82351053D01*
X165153545Y-82256494D01*
X165202492Y-82171714D01*
X165271714Y-82102492D01*
X165356494Y-82053545D01*
X165451053Y-82028208D01*
X165548947Y-82028208D01*
X165643506Y-82053545D01*
G37*
G36*
X104246742Y-80186601D02*
G01*
X104400687Y-80250367D01*
X104539234Y-80342941D01*
X104657059Y-80460766D01*
X104749633Y-80599313D01*
X104813399Y-80753258D01*
X104845907Y-80916685D01*
X104845907Y-81083315D01*
X104813399Y-81246742D01*
X104749633Y-81400687D01*
X104657059Y-81539234D01*
X104539234Y-81657059D01*
X104400687Y-81749633D01*
X104246742Y-81813399D01*
X104083315Y-81845907D01*
X103916685Y-81845907D01*
X103753258Y-81813399D01*
X103599313Y-81749633D01*
X103460766Y-81657059D01*
X103342941Y-81539234D01*
X103250367Y-81400687D01*
X103186601Y-81246742D01*
X103154093Y-81083315D01*
X103154093Y-80916685D01*
X103186601Y-80753258D01*
X103250367Y-80599313D01*
X103342941Y-80460766D01*
X103460766Y-80342941D01*
X103599313Y-80250367D01*
X103753258Y-80186601D01*
X103916685Y-80154093D01*
X104083315Y-80154093D01*
X104246742Y-80186601D01*
G37*
G36*
X165643506Y-80653545D02*
G01*
X165728286Y-80702492D01*
X165797508Y-80771714D01*
X165846455Y-80856494D01*
X165871792Y-80951053D01*
X165871792Y-81048947D01*
X165846455Y-81143506D01*
X165797508Y-81228286D01*
X165728286Y-81297508D01*
X165643506Y-81346455D01*
X165548947Y-81371792D01*
X165451053Y-81371792D01*
X165356494Y-81346455D01*
X165271714Y-81297508D01*
X165202492Y-81228286D01*
X165153545Y-81143506D01*
X165128208Y-81048947D01*
X165128208Y-80951053D01*
X165153545Y-80856494D01*
X165202492Y-80771714D01*
X165271714Y-80702492D01*
X165356494Y-80653545D01*
X165451053Y-80628208D01*
X165548947Y-80628208D01*
X165643506Y-80653545D01*
G37*
G36*
X118502399Y-68450477D02*
G01*
X118507224Y-68450952D01*
X118509476Y-68451884D01*
X118519134Y-68453806D01*
X118522684Y-68457356D01*
X118527232Y-68459240D01*
X118540759Y-68472767D01*
X118542642Y-68477314D01*
X118546194Y-68480866D01*
X118548115Y-68490526D01*
X118549047Y-68492775D01*
X118549521Y-68497595D01*
X118550000Y-68500000D01*
X118550000Y-79500000D01*
X118549521Y-79502405D01*
X118549047Y-79507224D01*
X118548115Y-79509471D01*
X118546194Y-79519134D01*
X118542642Y-79522685D01*
X118540759Y-79527232D01*
X118527232Y-79540759D01*
X118522685Y-79542642D01*
X118519134Y-79546194D01*
X118509471Y-79548115D01*
X118507224Y-79549047D01*
X118502404Y-79549521D01*
X118500000Y-79550000D01*
X118497548Y-79550000D01*
X107502452Y-79550000D01*
X107500000Y-79550000D01*
X107497595Y-79549521D01*
X107492775Y-79549047D01*
X107490526Y-79548115D01*
X107480866Y-79546194D01*
X107477314Y-79542642D01*
X107472767Y-79540759D01*
X107459240Y-79527232D01*
X107457356Y-79522684D01*
X107453806Y-79519134D01*
X107451884Y-79509476D01*
X107450952Y-79507224D01*
X107450477Y-79502400D01*
X107450000Y-79500000D01*
X107450000Y-68500000D01*
X107450477Y-68497600D01*
X107450952Y-68492775D01*
X107451885Y-68490521D01*
X107453806Y-68480866D01*
X107457355Y-68477316D01*
X107459240Y-68472767D01*
X107472767Y-68459240D01*
X107477316Y-68457355D01*
X107480866Y-68453806D01*
X107490521Y-68451885D01*
X107492775Y-68450952D01*
X107497600Y-68450477D01*
X107500000Y-68450000D01*
X118500000Y-68450000D01*
X118502399Y-68450477D01*
G37*
G36*
X138502399Y-68450477D02*
G01*
X138507224Y-68450952D01*
X138509476Y-68451884D01*
X138519134Y-68453806D01*
X138522684Y-68457356D01*
X138527232Y-68459240D01*
X138540759Y-68472767D01*
X138542642Y-68477314D01*
X138546194Y-68480866D01*
X138548115Y-68490526D01*
X138549047Y-68492775D01*
X138549521Y-68497595D01*
X138550000Y-68500000D01*
X138550000Y-79500000D01*
X138549521Y-79502405D01*
X138549047Y-79507224D01*
X138548115Y-79509471D01*
X138546194Y-79519134D01*
X138542642Y-79522685D01*
X138540759Y-79527232D01*
X138527232Y-79540759D01*
X138522685Y-79542642D01*
X138519134Y-79546194D01*
X138509471Y-79548115D01*
X138507224Y-79549047D01*
X138502404Y-79549521D01*
X138500000Y-79550000D01*
X138497548Y-79550000D01*
X127502452Y-79550000D01*
X127500000Y-79550000D01*
X127497595Y-79549521D01*
X127492775Y-79549047D01*
X127490526Y-79548115D01*
X127480866Y-79546194D01*
X127477314Y-79542642D01*
X127472767Y-79540759D01*
X127459240Y-79527232D01*
X127457356Y-79522684D01*
X127453806Y-79519134D01*
X127451884Y-79509476D01*
X127450952Y-79507224D01*
X127450477Y-79502400D01*
X127450000Y-79500000D01*
X127450000Y-68500000D01*
X127450477Y-68497600D01*
X127450952Y-68492775D01*
X127451885Y-68490521D01*
X127453806Y-68480866D01*
X127457355Y-68477316D01*
X127459240Y-68472767D01*
X127472767Y-68459240D01*
X127477316Y-68457355D01*
X127480866Y-68453806D01*
X127490521Y-68451885D01*
X127492775Y-68450952D01*
X127497600Y-68450477D01*
X127500000Y-68450000D01*
X138500000Y-68450000D01*
X138502399Y-68450477D01*
G37*
G36*
X170246742Y-76686601D02*
G01*
X170400687Y-76750367D01*
X170539234Y-76842941D01*
X170657059Y-76960766D01*
X170749633Y-77099313D01*
X170813399Y-77253258D01*
X170845907Y-77416685D01*
X170845907Y-77583315D01*
X170813399Y-77746742D01*
X170749633Y-77900687D01*
X170657059Y-78039234D01*
X170539234Y-78157059D01*
X170400687Y-78249633D01*
X170246742Y-78313399D01*
X170083315Y-78345907D01*
X169916685Y-78345907D01*
X169753258Y-78313399D01*
X169599313Y-78249633D01*
X169460766Y-78157059D01*
X169342941Y-78039234D01*
X169250367Y-77900687D01*
X169186601Y-77746742D01*
X169154093Y-77583315D01*
X169154093Y-77416685D01*
X169186601Y-77253258D01*
X169250367Y-77099313D01*
X169342941Y-76960766D01*
X169460766Y-76842941D01*
X169599313Y-76750367D01*
X169753258Y-76686601D01*
X169916685Y-76654093D01*
X170083315Y-76654093D01*
X170246742Y-76686601D01*
G37*
G36*
X104246742Y-70186601D02*
G01*
X104400687Y-70250367D01*
X104539234Y-70342941D01*
X104657059Y-70460766D01*
X104749633Y-70599313D01*
X104813399Y-70753258D01*
X104845907Y-70916685D01*
X104845907Y-71083315D01*
X104813399Y-71246742D01*
X104749633Y-71400687D01*
X104657059Y-71539234D01*
X104539234Y-71657059D01*
X104400687Y-71749633D01*
X104246742Y-71813399D01*
X104083315Y-71845907D01*
X103916685Y-71845907D01*
X103753258Y-71813399D01*
X103599313Y-71749633D01*
X103460766Y-71657059D01*
X103342941Y-71539234D01*
X103250367Y-71400687D01*
X103186601Y-71246742D01*
X103154093Y-71083315D01*
X103154093Y-70916685D01*
X103186601Y-70753258D01*
X103250367Y-70599313D01*
X103342941Y-70460766D01*
X103460766Y-70342941D01*
X103599313Y-70250367D01*
X103753258Y-70186601D01*
X103916685Y-70154093D01*
X104083315Y-70154093D01*
X104246742Y-70186601D01*
G37*
G36*
X118502399Y-54450477D02*
G01*
X118507224Y-54450952D01*
X118509476Y-54451884D01*
X118519134Y-54453806D01*
X118522684Y-54457356D01*
X118527232Y-54459240D01*
X118540759Y-54472767D01*
X118542642Y-54477314D01*
X118546194Y-54480866D01*
X118548115Y-54490526D01*
X118549047Y-54492775D01*
X118549521Y-54497595D01*
X118550000Y-54500000D01*
X118550000Y-65500000D01*
X118549521Y-65502405D01*
X118549047Y-65507224D01*
X118548115Y-65509471D01*
X118546194Y-65519134D01*
X118542642Y-65522685D01*
X118540759Y-65527232D01*
X118527232Y-65540759D01*
X118522685Y-65542642D01*
X118519134Y-65546194D01*
X118509471Y-65548115D01*
X118507224Y-65549047D01*
X118502404Y-65549521D01*
X118500000Y-65550000D01*
X118497548Y-65550000D01*
X107502452Y-65550000D01*
X107500000Y-65550000D01*
X107497595Y-65549521D01*
X107492775Y-65549047D01*
X107490526Y-65548115D01*
X107480866Y-65546194D01*
X107477314Y-65542642D01*
X107472767Y-65540759D01*
X107459240Y-65527232D01*
X107457356Y-65522684D01*
X107453806Y-65519134D01*
X107451884Y-65509476D01*
X107450952Y-65507224D01*
X107450477Y-65502400D01*
X107450000Y-65500000D01*
X107450000Y-54500000D01*
X107450477Y-54497600D01*
X107450952Y-54492775D01*
X107451885Y-54490521D01*
X107453806Y-54480866D01*
X107457355Y-54477316D01*
X107459240Y-54472767D01*
X107472767Y-54459240D01*
X107477316Y-54457355D01*
X107480866Y-54453806D01*
X107490521Y-54451885D01*
X107492775Y-54450952D01*
X107497600Y-54450477D01*
X107500000Y-54450000D01*
X118500000Y-54450000D01*
X118502399Y-54450477D01*
G37*
G36*
X138502399Y-54450477D02*
G01*
X138507224Y-54450952D01*
X138509476Y-54451884D01*
X138519134Y-54453806D01*
X138522684Y-54457356D01*
X138527232Y-54459240D01*
X138540759Y-54472767D01*
X138542642Y-54477314D01*
X138546194Y-54480866D01*
X138548115Y-54490526D01*
X138549047Y-54492775D01*
X138549521Y-54497595D01*
X138550000Y-54500000D01*
X138550000Y-65500000D01*
X138549521Y-65502405D01*
X138549047Y-65507224D01*
X138548115Y-65509471D01*
X138546194Y-65519134D01*
X138542642Y-65522685D01*
X138540759Y-65527232D01*
X138527232Y-65540759D01*
X138522685Y-65542642D01*
X138519134Y-65546194D01*
X138509471Y-65548115D01*
X138507224Y-65549047D01*
X138502404Y-65549521D01*
X138500000Y-65550000D01*
X138497548Y-65550000D01*
X127502452Y-65550000D01*
X127500000Y-65550000D01*
X127497595Y-65549521D01*
X127492775Y-65549047D01*
X127490526Y-65548115D01*
X127480866Y-65546194D01*
X127477314Y-65542642D01*
X127472767Y-65540759D01*
X127459240Y-65527232D01*
X127457356Y-65522684D01*
X127453806Y-65519134D01*
X127451884Y-65509476D01*
X127450952Y-65507224D01*
X127450477Y-65502400D01*
X127450000Y-65500000D01*
X127450000Y-54500000D01*
X127450477Y-54497600D01*
X127450952Y-54492775D01*
X127451885Y-54490521D01*
X127453806Y-54480866D01*
X127457355Y-54477316D01*
X127459240Y-54472767D01*
X127472767Y-54459240D01*
X127477316Y-54457355D01*
X127480866Y-54453806D01*
X127490521Y-54451885D01*
X127492775Y-54450952D01*
X127497600Y-54450477D01*
X127500000Y-54450000D01*
X138500000Y-54450000D01*
X138502399Y-54450477D01*
G37*
G36*
X152893328Y-63269312D02*
G01*
X153006523Y-63316199D01*
X153108396Y-63384268D01*
X153195032Y-63470904D01*
X153263101Y-63572777D01*
X153309988Y-63685972D01*
X153333890Y-63806139D01*
X153333890Y-63928661D01*
X153309988Y-64048828D01*
X153263101Y-64162023D01*
X153195032Y-64263896D01*
X153108396Y-64350532D01*
X153006523Y-64418601D01*
X152893328Y-64465488D01*
X152773161Y-64489390D01*
X152650639Y-64489390D01*
X152530472Y-64465488D01*
X152417277Y-64418601D01*
X152315404Y-64350532D01*
X152228768Y-64263896D01*
X152160699Y-64162023D01*
X152113812Y-64048828D01*
X152089910Y-63928661D01*
X152089910Y-63806139D01*
X152113812Y-63685972D01*
X152160699Y-63572777D01*
X152228768Y-63470904D01*
X152315404Y-63384268D01*
X152417277Y-63316199D01*
X152530472Y-63269312D01*
X152650639Y-63245410D01*
X152773161Y-63245410D01*
X152893328Y-63269312D01*
G37*
G36*
X154643328Y-63269312D02*
G01*
X154756523Y-63316199D01*
X154858396Y-63384268D01*
X154945032Y-63470904D01*
X155013101Y-63572777D01*
X155059988Y-63685972D01*
X155083890Y-63806139D01*
X155083890Y-63928661D01*
X155059988Y-64048828D01*
X155013101Y-64162023D01*
X154945032Y-64263896D01*
X154858396Y-64350532D01*
X154756523Y-64418601D01*
X154643328Y-64465488D01*
X154523161Y-64489390D01*
X154400639Y-64489390D01*
X154280472Y-64465488D01*
X154167277Y-64418601D01*
X154065404Y-64350532D01*
X153978768Y-64263896D01*
X153910699Y-64162023D01*
X153863812Y-64048828D01*
X153839910Y-63928661D01*
X153839910Y-63806139D01*
X153863812Y-63685972D01*
X153910699Y-63572777D01*
X153978768Y-63470904D01*
X154065404Y-63384268D01*
X154167277Y-63316199D01*
X154280472Y-63269312D01*
X154400639Y-63245410D01*
X154523161Y-63245410D01*
X154643328Y-63269312D01*
G37*
G36*
X157143328Y-63269312D02*
G01*
X157256523Y-63316199D01*
X157358396Y-63384268D01*
X157445032Y-63470904D01*
X157513101Y-63572777D01*
X157559988Y-63685972D01*
X157583890Y-63806139D01*
X157583890Y-63928661D01*
X157559988Y-64048828D01*
X157513101Y-64162023D01*
X157445032Y-64263896D01*
X157358396Y-64350532D01*
X157256523Y-64418601D01*
X157143328Y-64465488D01*
X157023161Y-64489390D01*
X156900639Y-64489390D01*
X156780472Y-64465488D01*
X156667277Y-64418601D01*
X156565404Y-64350532D01*
X156478768Y-64263896D01*
X156410699Y-64162023D01*
X156363812Y-64048828D01*
X156339910Y-63928661D01*
X156339910Y-63806139D01*
X156363812Y-63685972D01*
X156410699Y-63572777D01*
X156478768Y-63470904D01*
X156565404Y-63384268D01*
X156667277Y-63316199D01*
X156780472Y-63269312D01*
X156900639Y-63245410D01*
X157023161Y-63245410D01*
X157143328Y-63269312D01*
G37*
G36*
X159643328Y-63269312D02*
G01*
X159756523Y-63316199D01*
X159858396Y-63384268D01*
X159945032Y-63470904D01*
X160013101Y-63572777D01*
X160059988Y-63685972D01*
X160083890Y-63806139D01*
X160083890Y-63928661D01*
X160059988Y-64048828D01*
X160013101Y-64162023D01*
X159945032Y-64263896D01*
X159858396Y-64350532D01*
X159756523Y-64418601D01*
X159643328Y-64465488D01*
X159523161Y-64489390D01*
X159400639Y-64489390D01*
X159280472Y-64465488D01*
X159167277Y-64418601D01*
X159065404Y-64350532D01*
X158978768Y-64263896D01*
X158910699Y-64162023D01*
X158863812Y-64048828D01*
X158839910Y-63928661D01*
X158839910Y-63806139D01*
X158863812Y-63685972D01*
X158910699Y-63572777D01*
X158978768Y-63470904D01*
X159065404Y-63384268D01*
X159167277Y-63316199D01*
X159280472Y-63269312D01*
X159400639Y-63245410D01*
X159523161Y-63245410D01*
X159643328Y-63269312D01*
G37*
G36*
X161393328Y-63269312D02*
G01*
X161506523Y-63316199D01*
X161608396Y-63384268D01*
X161695032Y-63470904D01*
X161763101Y-63572777D01*
X161809988Y-63685972D01*
X161833890Y-63806139D01*
X161833890Y-63928661D01*
X161809988Y-64048828D01*
X161763101Y-64162023D01*
X161695032Y-64263896D01*
X161608396Y-64350532D01*
X161506523Y-64418601D01*
X161393328Y-64465488D01*
X161273161Y-64489390D01*
X161150639Y-64489390D01*
X161030472Y-64465488D01*
X160917277Y-64418601D01*
X160815404Y-64350532D01*
X160728768Y-64263896D01*
X160660699Y-64162023D01*
X160613812Y-64048828D01*
X160589910Y-63928661D01*
X160589910Y-63806139D01*
X160613812Y-63685972D01*
X160660699Y-63572777D01*
X160728768Y-63470904D01*
X160815404Y-63384268D01*
X160917277Y-63316199D01*
X161030472Y-63269312D01*
X161150639Y-63245410D01*
X161273161Y-63245410D01*
X161393328Y-63269312D01*
G37*
G36*
X169451775Y-62641157D02*
G01*
X169559162Y-62703157D01*
X169646843Y-62790838D01*
X169708843Y-62898225D01*
X169740936Y-63018000D01*
X169740936Y-63142000D01*
X169708843Y-63261775D01*
X169646843Y-63369162D01*
X169559162Y-63456843D01*
X169451775Y-63518843D01*
X169332000Y-63550936D01*
X169208000Y-63550936D01*
X169088225Y-63518843D01*
X168980838Y-63456843D01*
X168893157Y-63369162D01*
X168831157Y-63261775D01*
X168799064Y-63142000D01*
X168799064Y-63018000D01*
X168831157Y-62898225D01*
X168893157Y-62790838D01*
X168980838Y-62703157D01*
X169088225Y-62641157D01*
X169208000Y-62609064D01*
X169332000Y-62609064D01*
X169451775Y-62641157D01*
G37*
G36*
X168172208Y-62664254D02*
G01*
X168273943Y-62722991D01*
X168357009Y-62806057D01*
X168415746Y-62907792D01*
X168446150Y-63021263D01*
X168446150Y-63138737D01*
X168415746Y-63252208D01*
X168357009Y-63353943D01*
X168273943Y-63437009D01*
X168172208Y-63495746D01*
X168058737Y-63526150D01*
X167941263Y-63526150D01*
X167827792Y-63495746D01*
X167726057Y-63437009D01*
X167642991Y-63353943D01*
X167584254Y-63252208D01*
X167553850Y-63138737D01*
X167553850Y-63021263D01*
X167584254Y-62907792D01*
X167642991Y-62806057D01*
X167726057Y-62722991D01*
X167827792Y-62664254D01*
X167941263Y-62633850D01*
X168058737Y-62633850D01*
X168172208Y-62664254D01*
G37*
G36*
X155929614Y-61149695D02*
G01*
X156065448Y-61205959D01*
X156187695Y-61287642D01*
X156291658Y-61391605D01*
X156373341Y-61513852D01*
X156429605Y-61649686D01*
X156458289Y-61793887D01*
X156458289Y-61940913D01*
X156429605Y-62085114D01*
X156373341Y-62220948D01*
X156291658Y-62343195D01*
X156187695Y-62447158D01*
X156065448Y-62528841D01*
X155929614Y-62585105D01*
X155785413Y-62613789D01*
X155638387Y-62613789D01*
X155494186Y-62585105D01*
X155358352Y-62528841D01*
X155236105Y-62447158D01*
X155132142Y-62343195D01*
X155050459Y-62220948D01*
X154994195Y-62085114D01*
X154965511Y-61940913D01*
X154965511Y-61793887D01*
X154994195Y-61649686D01*
X155050459Y-61513852D01*
X155132142Y-61391605D01*
X155236105Y-61287642D01*
X155358352Y-61205959D01*
X155494186Y-61149695D01*
X155638387Y-61121011D01*
X155785413Y-61121011D01*
X155929614Y-61149695D01*
G37*
G36*
X158429614Y-61149695D02*
G01*
X158565448Y-61205959D01*
X158687695Y-61287642D01*
X158791658Y-61391605D01*
X158873341Y-61513852D01*
X158929605Y-61649686D01*
X158958289Y-61793887D01*
X158958289Y-61940913D01*
X158929605Y-62085114D01*
X158873341Y-62220948D01*
X158791658Y-62343195D01*
X158687695Y-62447158D01*
X158565448Y-62528841D01*
X158429614Y-62585105D01*
X158285413Y-62613789D01*
X158138387Y-62613789D01*
X157994186Y-62585105D01*
X157858352Y-62528841D01*
X157736105Y-62447158D01*
X157632142Y-62343195D01*
X157550459Y-62220948D01*
X157494195Y-62085114D01*
X157465511Y-61940913D01*
X157465511Y-61793887D01*
X157494195Y-61649686D01*
X157550459Y-61513852D01*
X157632142Y-61391605D01*
X157736105Y-61287642D01*
X157858352Y-61205959D01*
X157994186Y-61149695D01*
X158138387Y-61121011D01*
X158285413Y-61121011D01*
X158429614Y-61149695D01*
G37*
G36*
X168181775Y-61371157D02*
G01*
X168289162Y-61433157D01*
X168376843Y-61520838D01*
X168438843Y-61628225D01*
X168470936Y-61748000D01*
X168470936Y-61872000D01*
X168438843Y-61991775D01*
X168376843Y-62099162D01*
X168289162Y-62186843D01*
X168181775Y-62248843D01*
X168062000Y-62280936D01*
X167938000Y-62280936D01*
X167818225Y-62248843D01*
X167710838Y-62186843D01*
X167623157Y-62099162D01*
X167561157Y-61991775D01*
X167529064Y-61872000D01*
X167529064Y-61748000D01*
X167561157Y-61628225D01*
X167623157Y-61520838D01*
X167710838Y-61433157D01*
X167818225Y-61371157D01*
X167938000Y-61339064D01*
X168062000Y-61339064D01*
X168181775Y-61371157D01*
G37*
G36*
X169451775Y-61371157D02*
G01*
X169559162Y-61433157D01*
X169646843Y-61520838D01*
X169708843Y-61628225D01*
X169740936Y-61748000D01*
X169740936Y-61872000D01*
X169708843Y-61991775D01*
X169646843Y-62099162D01*
X169559162Y-62186843D01*
X169451775Y-62248843D01*
X169332000Y-62280936D01*
X169208000Y-62280936D01*
X169088225Y-62248843D01*
X168980838Y-62186843D01*
X168893157Y-62099162D01*
X168831157Y-61991775D01*
X168799064Y-61872000D01*
X168799064Y-61748000D01*
X168831157Y-61628225D01*
X168893157Y-61520838D01*
X168980838Y-61433157D01*
X169088225Y-61371157D01*
X169208000Y-61339064D01*
X169332000Y-61339064D01*
X169451775Y-61371157D01*
G37*
G36*
X168181775Y-60101157D02*
G01*
X168289162Y-60163157D01*
X168376843Y-60250838D01*
X168438843Y-60358225D01*
X168470936Y-60478000D01*
X168470936Y-60602000D01*
X168438843Y-60721775D01*
X168376843Y-60829162D01*
X168289162Y-60916843D01*
X168181775Y-60978843D01*
X168062000Y-61010936D01*
X167938000Y-61010936D01*
X167818225Y-60978843D01*
X167710838Y-60916843D01*
X167623157Y-60829162D01*
X167561157Y-60721775D01*
X167529064Y-60602000D01*
X167529064Y-60478000D01*
X167561157Y-60358225D01*
X167623157Y-60250838D01*
X167710838Y-60163157D01*
X167818225Y-60101157D01*
X167938000Y-60069064D01*
X168062000Y-60069064D01*
X168181775Y-60101157D01*
G37*
G36*
X169451775Y-60101157D02*
G01*
X169559162Y-60163157D01*
X169646843Y-60250838D01*
X169708843Y-60358225D01*
X169740936Y-60478000D01*
X169740936Y-60602000D01*
X169708843Y-60721775D01*
X169646843Y-60829162D01*
X169559162Y-60916843D01*
X169451775Y-60978843D01*
X169332000Y-61010936D01*
X169208000Y-61010936D01*
X169088225Y-60978843D01*
X168980838Y-60916843D01*
X168893157Y-60829162D01*
X168831157Y-60721775D01*
X168799064Y-60602000D01*
X168799064Y-60478000D01*
X168831157Y-60358225D01*
X168893157Y-60250838D01*
X168980838Y-60163157D01*
X169088225Y-60101157D01*
X169208000Y-60069064D01*
X169332000Y-60069064D01*
X169451775Y-60101157D01*
G37*
G36*
X155929614Y-59149695D02*
G01*
X156065448Y-59205959D01*
X156187695Y-59287642D01*
X156291658Y-59391605D01*
X156373341Y-59513852D01*
X156429605Y-59649686D01*
X156458289Y-59793887D01*
X156458289Y-59940913D01*
X156429605Y-60085114D01*
X156373341Y-60220948D01*
X156291658Y-60343195D01*
X156187695Y-60447158D01*
X156065448Y-60528841D01*
X155929614Y-60585105D01*
X155785413Y-60613789D01*
X155638387Y-60613789D01*
X155494186Y-60585105D01*
X155358352Y-60528841D01*
X155236105Y-60447158D01*
X155132142Y-60343195D01*
X155050459Y-60220948D01*
X154994195Y-60085114D01*
X154965511Y-59940913D01*
X154965511Y-59793887D01*
X154994195Y-59649686D01*
X155050459Y-59513852D01*
X155132142Y-59391605D01*
X155236105Y-59287642D01*
X155358352Y-59205959D01*
X155494186Y-59149695D01*
X155638387Y-59121011D01*
X155785413Y-59121011D01*
X155929614Y-59149695D01*
G37*
G36*
X158429614Y-59149695D02*
G01*
X158565448Y-59205959D01*
X158687695Y-59287642D01*
X158791658Y-59391605D01*
X158873341Y-59513852D01*
X158929605Y-59649686D01*
X158958289Y-59793887D01*
X158958289Y-59940913D01*
X158929605Y-60085114D01*
X158873341Y-60220948D01*
X158791658Y-60343195D01*
X158687695Y-60447158D01*
X158565448Y-60528841D01*
X158429614Y-60585105D01*
X158285413Y-60613789D01*
X158138387Y-60613789D01*
X157994186Y-60585105D01*
X157858352Y-60528841D01*
X157736105Y-60447158D01*
X157632142Y-60343195D01*
X157550459Y-60220948D01*
X157494195Y-60085114D01*
X157465511Y-59940913D01*
X157465511Y-59793887D01*
X157494195Y-59649686D01*
X157550459Y-59513852D01*
X157632142Y-59391605D01*
X157736105Y-59287642D01*
X157858352Y-59205959D01*
X157994186Y-59149695D01*
X158138387Y-59121011D01*
X158285413Y-59121011D01*
X158429614Y-59149695D01*
G37*
G36*
X168181775Y-58831157D02*
G01*
X168289162Y-58893157D01*
X168376843Y-58980838D01*
X168438843Y-59088225D01*
X168470936Y-59208000D01*
X168470936Y-59332000D01*
X168438843Y-59451775D01*
X168376843Y-59559162D01*
X168289162Y-59646843D01*
X168181775Y-59708843D01*
X168062000Y-59740936D01*
X167938000Y-59740936D01*
X167818225Y-59708843D01*
X167710838Y-59646843D01*
X167623157Y-59559162D01*
X167561157Y-59451775D01*
X167529064Y-59332000D01*
X167529064Y-59208000D01*
X167561157Y-59088225D01*
X167623157Y-58980838D01*
X167710838Y-58893157D01*
X167818225Y-58831157D01*
X167938000Y-58799064D01*
X168062000Y-58799064D01*
X168181775Y-58831157D01*
G37*
G36*
X169451775Y-58831157D02*
G01*
X169559162Y-58893157D01*
X169646843Y-58980838D01*
X169708843Y-59088225D01*
X169740936Y-59208000D01*
X169740936Y-59332000D01*
X169708843Y-59451775D01*
X169646843Y-59559162D01*
X169559162Y-59646843D01*
X169451775Y-59708843D01*
X169332000Y-59740936D01*
X169208000Y-59740936D01*
X169088225Y-59708843D01*
X168980838Y-59646843D01*
X168893157Y-59559162D01*
X168831157Y-59451775D01*
X168799064Y-59332000D01*
X168799064Y-59208000D01*
X168831157Y-59088225D01*
X168893157Y-58980838D01*
X168980838Y-58893157D01*
X169088225Y-58831157D01*
X169208000Y-58799064D01*
X169332000Y-58799064D01*
X169451775Y-58831157D01*
G37*
G36*
X151262887Y-55820391D02*
G01*
X151468090Y-55887066D01*
X151660336Y-55985020D01*
X151834891Y-56111842D01*
X151987458Y-56264409D01*
X152114280Y-56438964D01*
X152212234Y-56631210D01*
X152278909Y-56836413D01*
X152312661Y-57049519D01*
X152312661Y-57265281D01*
X152278909Y-57478387D01*
X152212234Y-57683590D01*
X152114280Y-57875836D01*
X151987458Y-58050391D01*
X151834891Y-58202958D01*
X151660336Y-58329780D01*
X151468090Y-58427734D01*
X151262887Y-58494409D01*
X151049781Y-58528161D01*
X150834019Y-58528161D01*
X150620913Y-58494409D01*
X150415710Y-58427734D01*
X150223464Y-58329780D01*
X150048909Y-58202958D01*
X149896342Y-58050391D01*
X149769520Y-57875836D01*
X149671566Y-57683590D01*
X149604891Y-57478387D01*
X149571139Y-57265281D01*
X149571139Y-57049519D01*
X149604891Y-56836413D01*
X149671566Y-56631210D01*
X149769520Y-56438964D01*
X149896342Y-56264409D01*
X150048909Y-56111842D01*
X150223464Y-55985020D01*
X150415710Y-55887066D01*
X150620913Y-55820391D01*
X150834019Y-55786639D01*
X151049781Y-55786639D01*
X151262887Y-55820391D01*
G37*
G36*
X163302887Y-55820391D02*
G01*
X163508090Y-55887066D01*
X163700336Y-55985020D01*
X163874891Y-56111842D01*
X164027458Y-56264409D01*
X164154280Y-56438964D01*
X164252234Y-56631210D01*
X164318909Y-56836413D01*
X164352661Y-57049519D01*
X164352661Y-57265281D01*
X164318909Y-57478387D01*
X164252234Y-57683590D01*
X164154280Y-57875836D01*
X164027458Y-58050391D01*
X163874891Y-58202958D01*
X163700336Y-58329780D01*
X163508090Y-58427734D01*
X163302887Y-58494409D01*
X163089781Y-58528161D01*
X162874019Y-58528161D01*
X162660913Y-58494409D01*
X162455710Y-58427734D01*
X162263464Y-58329780D01*
X162088909Y-58202958D01*
X161936342Y-58050391D01*
X161809520Y-57875836D01*
X161711566Y-57683590D01*
X161644891Y-57478387D01*
X161611139Y-57265281D01*
X161611139Y-57049519D01*
X161644891Y-56836413D01*
X161711566Y-56631210D01*
X161809520Y-56438964D01*
X161936342Y-56264409D01*
X162088909Y-56111842D01*
X162263464Y-55985020D01*
X162455710Y-55887066D01*
X162660913Y-55820391D01*
X162874019Y-55786639D01*
X163089781Y-55786639D01*
X163302887Y-55820391D01*
G37*
G36*
X168181775Y-57561157D02*
G01*
X168289162Y-57623157D01*
X168376843Y-57710838D01*
X168438843Y-57818225D01*
X168470936Y-57938000D01*
X168470936Y-58062000D01*
X168438843Y-58181775D01*
X168376843Y-58289162D01*
X168289162Y-58376843D01*
X168181775Y-58438843D01*
X168062000Y-58470936D01*
X167938000Y-58470936D01*
X167818225Y-58438843D01*
X167710838Y-58376843D01*
X167623157Y-58289162D01*
X167561157Y-58181775D01*
X167529064Y-58062000D01*
X167529064Y-57938000D01*
X167561157Y-57818225D01*
X167623157Y-57710838D01*
X167710838Y-57623157D01*
X167818225Y-57561157D01*
X167938000Y-57529064D01*
X168062000Y-57529064D01*
X168181775Y-57561157D01*
G37*
G36*
X169451775Y-57561157D02*
G01*
X169559162Y-57623157D01*
X169646843Y-57710838D01*
X169708843Y-57818225D01*
X169740936Y-57938000D01*
X169740936Y-58062000D01*
X169708843Y-58181775D01*
X169646843Y-58289162D01*
X169559162Y-58376843D01*
X169451775Y-58438843D01*
X169332000Y-58470936D01*
X169208000Y-58470936D01*
X169088225Y-58438843D01*
X168980838Y-58376843D01*
X168893157Y-58289162D01*
X168831157Y-58181775D01*
X168799064Y-58062000D01*
X168799064Y-57938000D01*
X168831157Y-57818225D01*
X168893157Y-57710838D01*
X168980838Y-57623157D01*
X169088225Y-57561157D01*
X169208000Y-57529064D01*
X169332000Y-57529064D01*
X169451775Y-57561157D01*
G37*
G36*
X104373513Y-51444208D02*
G01*
X104612293Y-51521793D01*
X104835998Y-51635776D01*
X105039117Y-51783350D01*
X105216650Y-51960883D01*
X105364224Y-52164002D01*
X105478207Y-52387707D01*
X105555792Y-52626487D01*
X105595068Y-52874465D01*
X105595068Y-53125535D01*
X105555792Y-53373513D01*
X105478207Y-53612293D01*
X105364224Y-53835998D01*
X105216650Y-54039117D01*
X105039117Y-54216650D01*
X104835998Y-54364224D01*
X104612293Y-54478207D01*
X104373513Y-54555792D01*
X104125535Y-54595068D01*
X103874465Y-54595068D01*
X103626487Y-54555792D01*
X103387707Y-54478207D01*
X103164002Y-54364224D01*
X102960883Y-54216650D01*
X102783350Y-54039117D01*
X102635776Y-53835998D01*
X102521793Y-53612293D01*
X102444208Y-53373513D01*
X102404932Y-53125535D01*
X102404932Y-52874465D01*
X102444208Y-52626487D01*
X102521793Y-52387707D01*
X102635776Y-52164002D01*
X102783350Y-51960883D01*
X102960883Y-51783350D01*
X103164002Y-51635776D01*
X103387707Y-51521793D01*
X103626487Y-51444208D01*
X103874465Y-51404932D01*
X104125535Y-51404932D01*
X104373513Y-51444208D01*
G37*
G36*
X172373513Y-51444208D02*
G01*
X172612293Y-51521793D01*
X172835998Y-51635776D01*
X173039117Y-51783350D01*
X173216650Y-51960883D01*
X173364224Y-52164002D01*
X173478207Y-52387707D01*
X173555792Y-52626487D01*
X173595068Y-52874465D01*
X173595068Y-53125535D01*
X173555792Y-53373513D01*
X173478207Y-53612293D01*
X173364224Y-53835998D01*
X173216650Y-54039117D01*
X173039117Y-54216650D01*
X172835998Y-54364224D01*
X172612293Y-54478207D01*
X172373513Y-54555792D01*
X172125535Y-54595068D01*
X171874465Y-54595068D01*
X171626487Y-54555792D01*
X171387707Y-54478207D01*
X171164002Y-54364224D01*
X170960883Y-54216650D01*
X170783350Y-54039117D01*
X170635776Y-53835998D01*
X170521793Y-53612293D01*
X170444208Y-53373513D01*
X170404932Y-53125535D01*
X170404932Y-52874465D01*
X170444208Y-52626487D01*
X170521793Y-52387707D01*
X170635776Y-52164002D01*
X170783350Y-51960883D01*
X170960883Y-51783350D01*
X171164002Y-51635776D01*
X171387707Y-51521793D01*
X171626487Y-51444208D01*
X171874465Y-51404932D01*
X172125535Y-51404932D01*
X172373513Y-51444208D01*
G37*
M02*
