%TF.GenerationSoftware,KiCad,Pcbnew,10.0.4-10.0.4~ubuntu25.10.1*%
%TF.CreationDate,2026-07-31T14:50:20+00:00*%
%TF.ProjectId,TAPRX-888,54415052-582d-4383-9838-2e6b69636164,DEV*%
%TF.SameCoordinates,Original*%
%TF.FileFunction,Other,Comment*%
%FSLAX46Y46*%
G04 Gerber Fmt 4.6, Leading zero omitted, Abs format (unit mm)*
G04 Created by KiCad (PCBNEW 10.0.4-10.0.4~ubuntu25.10.1) date 2026-07-31 14:50:20*
%MOMM*%
%LPD*%
G01*
G04 APERTURE LIST*
%ADD10C,0.100000*%
%ADD11C,0.150000*%
G04 APERTURE END LIST*
D10*
X130400000Y-69400000D02*
X136000000Y-69400000D01*
X136000000Y-72400000D01*
X130400000Y-72400000D01*
X130400000Y-69400000D01*
X144000000Y-75400000D02*
X144800000Y-75400000D01*
X144800000Y-76200000D01*
X144000000Y-76200000D01*
X144000000Y-75400000D01*
X144600000Y-77800000D02*
X145800000Y-77800000D01*
X145800000Y-80400000D01*
X144600000Y-80400000D01*
X144600000Y-77800000D01*
X146870000Y-73650000D02*
X147650000Y-73650000D01*
X147650000Y-74390000D01*
X146870000Y-74390000D01*
X146870000Y-73650000D01*
X151360000Y-82810000D02*
X151800000Y-82810000D01*
X151800000Y-83240000D01*
X151360000Y-83240000D01*
X151360000Y-82810000D01*
X151806833Y-81410000D02*
G75*
G02*
X151273167Y-81410000I-266833J0D01*
G01*
X151273167Y-81410000D02*
G75*
G02*
X151806833Y-81410000I266833J0D01*
G01*
X151871780Y-77410000D02*
G75*
G02*
X151308220Y-77410000I-281780J0D01*
G01*
X151308220Y-77410000D02*
G75*
G02*
X151871780Y-77410000I281780J0D01*
G01*
X153000000Y-78810000D02*
X153430000Y-78810000D01*
X153430000Y-79240000D01*
X153000000Y-79240000D01*
X153000000Y-78810000D01*
X154590000Y-85180000D02*
X155050000Y-85180000D01*
X155050000Y-85660000D01*
X154590000Y-85660000D01*
X154590000Y-85180000D01*
X156160000Y-85190000D02*
X156640000Y-85190000D01*
X156640000Y-85660000D01*
X156160000Y-85660000D01*
X156160000Y-85190000D01*
X156200000Y-77190000D02*
X156630000Y-77190000D01*
X156630000Y-77630000D01*
X156200000Y-77630000D01*
X156200000Y-77190000D01*
X156630000Y-80610000D02*
G75*
G02*
X156110000Y-80610000I-260000J0D01*
G01*
X156110000Y-80610000D02*
G75*
G02*
X156630000Y-80610000I260000J0D01*
G01*
X157790000Y-80430000D02*
X158210000Y-80430000D01*
X158210000Y-80790000D01*
X157790000Y-80790000D01*
X157790000Y-80430000D01*
X158232594Y-85400000D02*
G75*
G02*
X157767406Y-85400000I-232594J0D01*
G01*
X157767406Y-85400000D02*
G75*
G02*
X158232594Y-85400000I232594J0D01*
G01*
X158630000Y-77990000D02*
X159020000Y-77990000D01*
X159020000Y-78430000D01*
X158630000Y-78430000D01*
X158630000Y-77990000D01*
X159057849Y-80610000D02*
G75*
G02*
X158502151Y-80610000I-277849J0D01*
G01*
X158502151Y-80610000D02*
G75*
G02*
X159057849Y-80610000I277849J0D01*
G01*
X160210000Y-83600000D02*
X160600000Y-83600000D01*
X160600000Y-84010000D01*
X160210000Y-84010000D01*
X160210000Y-83600000D01*
X160220000Y-80400000D02*
X160610000Y-80400000D01*
X160610000Y-80790000D01*
X160220000Y-80790000D01*
X160220000Y-80400000D01*
X160648537Y-83000000D02*
G75*
G02*
X160171463Y-83000000I-238537J0D01*
G01*
X160171463Y-83000000D02*
G75*
G02*
X160648537Y-83000000I238537J0D01*
G01*
X160714722Y-78210000D02*
G75*
G02*
X160265278Y-78210000I-224722J0D01*
G01*
X160265278Y-78210000D02*
G75*
G02*
X160714722Y-78210000I224722J0D01*
G01*
X164775668Y-77010000D02*
G75*
G02*
X163764332Y-77010000I-505668J0D01*
G01*
X163764332Y-77010000D02*
G75*
G02*
X164775668Y-77010000I505668J0D01*
G01*
X166170000Y-84590000D02*
X166930000Y-84590000D01*
X166930000Y-85400000D01*
X166170000Y-85400000D01*
X166170000Y-84590000D01*
X166190000Y-80570000D02*
X166980000Y-80570000D01*
X166980000Y-81390000D01*
X166190000Y-81390000D01*
X166190000Y-80570000D01*
X167012494Y-87040000D02*
G75*
G02*
X166007506Y-87040000I-502494J0D01*
G01*
X166007506Y-87040000D02*
G75*
G02*
X167012494Y-87040000I502494J0D01*
G01*
X166974853Y-82990000D02*
G75*
G02*
X166125147Y-82990000I-424853J0D01*
G01*
X166125147Y-82990000D02*
G75*
G02*
X166974853Y-82990000I424853J0D01*
G01*
D11*
X139634100Y-139769243D02*
X139748386Y-139807338D01*
X139748386Y-139807338D02*
X139786481Y-139845434D01*
X139786481Y-139845434D02*
X139824577Y-139921624D01*
X139824577Y-139921624D02*
X139824577Y-140035910D01*
X139824577Y-140035910D02*
X139786481Y-140112100D01*
X139786481Y-140112100D02*
X139748386Y-140150196D01*
X139748386Y-140150196D02*
X139672196Y-140188291D01*
X139672196Y-140188291D02*
X139367434Y-140188291D01*
X139367434Y-140188291D02*
X139367434Y-139388291D01*
X139367434Y-139388291D02*
X139634100Y-139388291D01*
X139634100Y-139388291D02*
X139710291Y-139426386D01*
X139710291Y-139426386D02*
X139748386Y-139464481D01*
X139748386Y-139464481D02*
X139786481Y-139540672D01*
X139786481Y-139540672D02*
X139786481Y-139616862D01*
X139786481Y-139616862D02*
X139748386Y-139693053D01*
X139748386Y-139693053D02*
X139710291Y-139731148D01*
X139710291Y-139731148D02*
X139634100Y-139769243D01*
X139634100Y-139769243D02*
X139367434Y-139769243D01*
X140281719Y-140188291D02*
X140205529Y-140150196D01*
X140205529Y-140150196D02*
X140167434Y-140112100D01*
X140167434Y-140112100D02*
X140129338Y-140035910D01*
X140129338Y-140035910D02*
X140129338Y-139807338D01*
X140129338Y-139807338D02*
X140167434Y-139731148D01*
X140167434Y-139731148D02*
X140205529Y-139693053D01*
X140205529Y-139693053D02*
X140281719Y-139654957D01*
X140281719Y-139654957D02*
X140396005Y-139654957D01*
X140396005Y-139654957D02*
X140472196Y-139693053D01*
X140472196Y-139693053D02*
X140510291Y-139731148D01*
X140510291Y-139731148D02*
X140548386Y-139807338D01*
X140548386Y-139807338D02*
X140548386Y-140035910D01*
X140548386Y-140035910D02*
X140510291Y-140112100D01*
X140510291Y-140112100D02*
X140472196Y-140150196D01*
X140472196Y-140150196D02*
X140396005Y-140188291D01*
X140396005Y-140188291D02*
X140281719Y-140188291D01*
X141234101Y-140188291D02*
X141234101Y-139769243D01*
X141234101Y-139769243D02*
X141196006Y-139693053D01*
X141196006Y-139693053D02*
X141119815Y-139654957D01*
X141119815Y-139654957D02*
X140967434Y-139654957D01*
X140967434Y-139654957D02*
X140891244Y-139693053D01*
X141234101Y-140150196D02*
X141157910Y-140188291D01*
X141157910Y-140188291D02*
X140967434Y-140188291D01*
X140967434Y-140188291D02*
X140891244Y-140150196D01*
X140891244Y-140150196D02*
X140853148Y-140074005D01*
X140853148Y-140074005D02*
X140853148Y-139997815D01*
X140853148Y-139997815D02*
X140891244Y-139921624D01*
X140891244Y-139921624D02*
X140967434Y-139883529D01*
X140967434Y-139883529D02*
X141157910Y-139883529D01*
X141157910Y-139883529D02*
X141234101Y-139845434D01*
X141615054Y-140188291D02*
X141615054Y-139654957D01*
X141615054Y-139807338D02*
X141653149Y-139731148D01*
X141653149Y-139731148D02*
X141691244Y-139693053D01*
X141691244Y-139693053D02*
X141767435Y-139654957D01*
X141767435Y-139654957D02*
X141843625Y-139654957D01*
X142453149Y-140188291D02*
X142453149Y-139388291D01*
X142453149Y-140150196D02*
X142376958Y-140188291D01*
X142376958Y-140188291D02*
X142224577Y-140188291D01*
X142224577Y-140188291D02*
X142148387Y-140150196D01*
X142148387Y-140150196D02*
X142110292Y-140112100D01*
X142110292Y-140112100D02*
X142072196Y-140035910D01*
X142072196Y-140035910D02*
X142072196Y-139807338D01*
X142072196Y-139807338D02*
X142110292Y-139731148D01*
X142110292Y-139731148D02*
X142148387Y-139693053D01*
X142148387Y-139693053D02*
X142224577Y-139654957D01*
X142224577Y-139654957D02*
X142376958Y-139654957D01*
X142376958Y-139654957D02*
X142453149Y-139693053D01*
X143329340Y-139388291D02*
X143786483Y-139388291D01*
X143557911Y-140188291D02*
X143557911Y-139388291D01*
X144053150Y-140188291D02*
X144053150Y-139388291D01*
X144396007Y-140188291D02*
X144396007Y-139769243D01*
X144396007Y-139769243D02*
X144357912Y-139693053D01*
X144357912Y-139693053D02*
X144281721Y-139654957D01*
X144281721Y-139654957D02*
X144167435Y-139654957D01*
X144167435Y-139654957D02*
X144091245Y-139693053D01*
X144091245Y-139693053D02*
X144053150Y-139731148D01*
X144776960Y-140188291D02*
X144776960Y-139654957D01*
X144776960Y-139388291D02*
X144738864Y-139426386D01*
X144738864Y-139426386D02*
X144776960Y-139464481D01*
X144776960Y-139464481D02*
X144815055Y-139426386D01*
X144815055Y-139426386D02*
X144776960Y-139388291D01*
X144776960Y-139388291D02*
X144776960Y-139464481D01*
X145500769Y-140150196D02*
X145424578Y-140188291D01*
X145424578Y-140188291D02*
X145272197Y-140188291D01*
X145272197Y-140188291D02*
X145196007Y-140150196D01*
X145196007Y-140150196D02*
X145157912Y-140112100D01*
X145157912Y-140112100D02*
X145119816Y-140035910D01*
X145119816Y-140035910D02*
X145119816Y-139807338D01*
X145119816Y-139807338D02*
X145157912Y-139731148D01*
X145157912Y-139731148D02*
X145196007Y-139693053D01*
X145196007Y-139693053D02*
X145272197Y-139654957D01*
X145272197Y-139654957D02*
X145424578Y-139654957D01*
X145424578Y-139654957D02*
X145500769Y-139693053D01*
X145843626Y-140188291D02*
X145843626Y-139388291D01*
X145919816Y-139883529D02*
X146148388Y-140188291D01*
X146148388Y-139654957D02*
X145843626Y-139959719D01*
X146491245Y-139654957D02*
X146491245Y-140188291D01*
X146491245Y-139731148D02*
X146529340Y-139693053D01*
X146529340Y-139693053D02*
X146605530Y-139654957D01*
X146605530Y-139654957D02*
X146719816Y-139654957D01*
X146719816Y-139654957D02*
X146796007Y-139693053D01*
X146796007Y-139693053D02*
X146834102Y-139769243D01*
X146834102Y-139769243D02*
X146834102Y-140188291D01*
X147519817Y-140150196D02*
X147443626Y-140188291D01*
X147443626Y-140188291D02*
X147291245Y-140188291D01*
X147291245Y-140188291D02*
X147215055Y-140150196D01*
X147215055Y-140150196D02*
X147176959Y-140074005D01*
X147176959Y-140074005D02*
X147176959Y-139769243D01*
X147176959Y-139769243D02*
X147215055Y-139693053D01*
X147215055Y-139693053D02*
X147291245Y-139654957D01*
X147291245Y-139654957D02*
X147443626Y-139654957D01*
X147443626Y-139654957D02*
X147519817Y-139693053D01*
X147519817Y-139693053D02*
X147557912Y-139769243D01*
X147557912Y-139769243D02*
X147557912Y-139845434D01*
X147557912Y-139845434D02*
X147176959Y-139921624D01*
X147862673Y-140150196D02*
X147938864Y-140188291D01*
X147938864Y-140188291D02*
X148091245Y-140188291D01*
X148091245Y-140188291D02*
X148167435Y-140150196D01*
X148167435Y-140150196D02*
X148205531Y-140074005D01*
X148205531Y-140074005D02*
X148205531Y-140035910D01*
X148205531Y-140035910D02*
X148167435Y-139959719D01*
X148167435Y-139959719D02*
X148091245Y-139921624D01*
X148091245Y-139921624D02*
X147976959Y-139921624D01*
X147976959Y-139921624D02*
X147900769Y-139883529D01*
X147900769Y-139883529D02*
X147862673Y-139807338D01*
X147862673Y-139807338D02*
X147862673Y-139769243D01*
X147862673Y-139769243D02*
X147900769Y-139693053D01*
X147900769Y-139693053D02*
X147976959Y-139654957D01*
X147976959Y-139654957D02*
X148091245Y-139654957D01*
X148091245Y-139654957D02*
X148167435Y-139693053D01*
X148510292Y-140150196D02*
X148586483Y-140188291D01*
X148586483Y-140188291D02*
X148738864Y-140188291D01*
X148738864Y-140188291D02*
X148815054Y-140150196D01*
X148815054Y-140150196D02*
X148853150Y-140074005D01*
X148853150Y-140074005D02*
X148853150Y-140035910D01*
X148853150Y-140035910D02*
X148815054Y-139959719D01*
X148815054Y-139959719D02*
X148738864Y-139921624D01*
X148738864Y-139921624D02*
X148624578Y-139921624D01*
X148624578Y-139921624D02*
X148548388Y-139883529D01*
X148548388Y-139883529D02*
X148510292Y-139807338D01*
X148510292Y-139807338D02*
X148510292Y-139769243D01*
X148510292Y-139769243D02*
X148548388Y-139693053D01*
X148548388Y-139693053D02*
X148624578Y-139654957D01*
X148624578Y-139654957D02*
X148738864Y-139654957D01*
X148738864Y-139654957D02*
X148815054Y-139693053D01*
X149196007Y-140112100D02*
X149234102Y-140150196D01*
X149234102Y-140150196D02*
X149196007Y-140188291D01*
X149196007Y-140188291D02*
X149157911Y-140150196D01*
X149157911Y-140150196D02*
X149196007Y-140112100D01*
X149196007Y-140112100D02*
X149196007Y-140188291D01*
X149196007Y-139693053D02*
X149234102Y-139731148D01*
X149234102Y-139731148D02*
X149196007Y-139769243D01*
X149196007Y-139769243D02*
X149157911Y-139731148D01*
X149157911Y-139731148D02*
X149196007Y-139693053D01*
X149196007Y-139693053D02*
X149196007Y-139769243D01*
X150605530Y-140188291D02*
X150148387Y-140188291D01*
X150376959Y-140188291D02*
X150376959Y-139388291D01*
X150376959Y-139388291D02*
X150300768Y-139502576D01*
X150300768Y-139502576D02*
X150224578Y-139578767D01*
X150224578Y-139578767D02*
X150148387Y-139616862D01*
X150948388Y-140112100D02*
X150986483Y-140150196D01*
X150986483Y-140150196D02*
X150948388Y-140188291D01*
X150948388Y-140188291D02*
X150910292Y-140150196D01*
X150910292Y-140150196D02*
X150948388Y-140112100D01*
X150948388Y-140112100D02*
X150948388Y-140188291D01*
X151710292Y-139388291D02*
X151329340Y-139388291D01*
X151329340Y-139388291D02*
X151291244Y-139769243D01*
X151291244Y-139769243D02*
X151329340Y-139731148D01*
X151329340Y-139731148D02*
X151405530Y-139693053D01*
X151405530Y-139693053D02*
X151596006Y-139693053D01*
X151596006Y-139693053D02*
X151672197Y-139731148D01*
X151672197Y-139731148D02*
X151710292Y-139769243D01*
X151710292Y-139769243D02*
X151748387Y-139845434D01*
X151748387Y-139845434D02*
X151748387Y-140035910D01*
X151748387Y-140035910D02*
X151710292Y-140112100D01*
X151710292Y-140112100D02*
X151672197Y-140150196D01*
X151672197Y-140150196D02*
X151596006Y-140188291D01*
X151596006Y-140188291D02*
X151405530Y-140188291D01*
X151405530Y-140188291D02*
X151329340Y-140150196D01*
X151329340Y-140150196D02*
X151291244Y-140112100D01*
X152015054Y-139388291D02*
X152548388Y-139388291D01*
X152548388Y-139388291D02*
X152205530Y-140188291D01*
X152853150Y-140188291D02*
X152853150Y-139654957D01*
X152853150Y-139731148D02*
X152891245Y-139693053D01*
X152891245Y-139693053D02*
X152967435Y-139654957D01*
X152967435Y-139654957D02*
X153081721Y-139654957D01*
X153081721Y-139654957D02*
X153157912Y-139693053D01*
X153157912Y-139693053D02*
X153196007Y-139769243D01*
X153196007Y-139769243D02*
X153196007Y-140188291D01*
X153196007Y-139769243D02*
X153234102Y-139693053D01*
X153234102Y-139693053D02*
X153310293Y-139654957D01*
X153310293Y-139654957D02*
X153424578Y-139654957D01*
X153424578Y-139654957D02*
X153500769Y-139693053D01*
X153500769Y-139693053D02*
X153538864Y-139769243D01*
X153538864Y-139769243D02*
X153538864Y-140188291D01*
X153919817Y-140188291D02*
X153919817Y-139654957D01*
X153919817Y-139731148D02*
X153957912Y-139693053D01*
X153957912Y-139693053D02*
X154034102Y-139654957D01*
X154034102Y-139654957D02*
X154148388Y-139654957D01*
X154148388Y-139654957D02*
X154224579Y-139693053D01*
X154224579Y-139693053D02*
X154262674Y-139769243D01*
X154262674Y-139769243D02*
X154262674Y-140188291D01*
X154262674Y-139769243D02*
X154300769Y-139693053D01*
X154300769Y-139693053D02*
X154376960Y-139654957D01*
X154376960Y-139654957D02*
X154491245Y-139654957D01*
X154491245Y-139654957D02*
X154567436Y-139693053D01*
X154567436Y-139693053D02*
X154605531Y-139769243D01*
X154605531Y-139769243D02*
X154605531Y-140188291D01*
X103647617Y-139589858D02*
X103761903Y-139627953D01*
X103761903Y-139627953D02*
X103799998Y-139666049D01*
X103799998Y-139666049D02*
X103838094Y-139742239D01*
X103838094Y-139742239D02*
X103838094Y-139856525D01*
X103838094Y-139856525D02*
X103799998Y-139932715D01*
X103799998Y-139932715D02*
X103761903Y-139970811D01*
X103761903Y-139970811D02*
X103685713Y-140008906D01*
X103685713Y-140008906D02*
X103380951Y-140008906D01*
X103380951Y-140008906D02*
X103380951Y-139208906D01*
X103380951Y-139208906D02*
X103647617Y-139208906D01*
X103647617Y-139208906D02*
X103723808Y-139247001D01*
X103723808Y-139247001D02*
X103761903Y-139285096D01*
X103761903Y-139285096D02*
X103799998Y-139361287D01*
X103799998Y-139361287D02*
X103799998Y-139437477D01*
X103799998Y-139437477D02*
X103761903Y-139513668D01*
X103761903Y-139513668D02*
X103723808Y-139551763D01*
X103723808Y-139551763D02*
X103647617Y-139589858D01*
X103647617Y-139589858D02*
X103380951Y-139589858D01*
X104295236Y-140008906D02*
X104219046Y-139970811D01*
X104219046Y-139970811D02*
X104180951Y-139932715D01*
X104180951Y-139932715D02*
X104142855Y-139856525D01*
X104142855Y-139856525D02*
X104142855Y-139627953D01*
X104142855Y-139627953D02*
X104180951Y-139551763D01*
X104180951Y-139551763D02*
X104219046Y-139513668D01*
X104219046Y-139513668D02*
X104295236Y-139475572D01*
X104295236Y-139475572D02*
X104409522Y-139475572D01*
X104409522Y-139475572D02*
X104485713Y-139513668D01*
X104485713Y-139513668D02*
X104523808Y-139551763D01*
X104523808Y-139551763D02*
X104561903Y-139627953D01*
X104561903Y-139627953D02*
X104561903Y-139856525D01*
X104561903Y-139856525D02*
X104523808Y-139932715D01*
X104523808Y-139932715D02*
X104485713Y-139970811D01*
X104485713Y-139970811D02*
X104409522Y-140008906D01*
X104409522Y-140008906D02*
X104295236Y-140008906D01*
X105247618Y-140008906D02*
X105247618Y-139589858D01*
X105247618Y-139589858D02*
X105209523Y-139513668D01*
X105209523Y-139513668D02*
X105133332Y-139475572D01*
X105133332Y-139475572D02*
X104980951Y-139475572D01*
X104980951Y-139475572D02*
X104904761Y-139513668D01*
X105247618Y-139970811D02*
X105171427Y-140008906D01*
X105171427Y-140008906D02*
X104980951Y-140008906D01*
X104980951Y-140008906D02*
X104904761Y-139970811D01*
X104904761Y-139970811D02*
X104866665Y-139894620D01*
X104866665Y-139894620D02*
X104866665Y-139818430D01*
X104866665Y-139818430D02*
X104904761Y-139742239D01*
X104904761Y-139742239D02*
X104980951Y-139704144D01*
X104980951Y-139704144D02*
X105171427Y-139704144D01*
X105171427Y-139704144D02*
X105247618Y-139666049D01*
X105628571Y-140008906D02*
X105628571Y-139475572D01*
X105628571Y-139627953D02*
X105666666Y-139551763D01*
X105666666Y-139551763D02*
X105704761Y-139513668D01*
X105704761Y-139513668D02*
X105780952Y-139475572D01*
X105780952Y-139475572D02*
X105857142Y-139475572D01*
X106466666Y-140008906D02*
X106466666Y-139208906D01*
X106466666Y-139970811D02*
X106390475Y-140008906D01*
X106390475Y-140008906D02*
X106238094Y-140008906D01*
X106238094Y-140008906D02*
X106161904Y-139970811D01*
X106161904Y-139970811D02*
X106123809Y-139932715D01*
X106123809Y-139932715D02*
X106085713Y-139856525D01*
X106085713Y-139856525D02*
X106085713Y-139627953D01*
X106085713Y-139627953D02*
X106123809Y-139551763D01*
X106123809Y-139551763D02*
X106161904Y-139513668D01*
X106161904Y-139513668D02*
X106238094Y-139475572D01*
X106238094Y-139475572D02*
X106390475Y-139475572D01*
X106390475Y-139475572D02*
X106466666Y-139513668D01*
X107342857Y-139208906D02*
X107800000Y-139208906D01*
X107571428Y-140008906D02*
X107571428Y-139208906D01*
X108066667Y-140008906D02*
X108066667Y-139208906D01*
X108409524Y-140008906D02*
X108409524Y-139589858D01*
X108409524Y-139589858D02*
X108371429Y-139513668D01*
X108371429Y-139513668D02*
X108295238Y-139475572D01*
X108295238Y-139475572D02*
X108180952Y-139475572D01*
X108180952Y-139475572D02*
X108104762Y-139513668D01*
X108104762Y-139513668D02*
X108066667Y-139551763D01*
X108790477Y-140008906D02*
X108790477Y-139475572D01*
X108790477Y-139208906D02*
X108752381Y-139247001D01*
X108752381Y-139247001D02*
X108790477Y-139285096D01*
X108790477Y-139285096D02*
X108828572Y-139247001D01*
X108828572Y-139247001D02*
X108790477Y-139208906D01*
X108790477Y-139208906D02*
X108790477Y-139285096D01*
X109514286Y-139970811D02*
X109438095Y-140008906D01*
X109438095Y-140008906D02*
X109285714Y-140008906D01*
X109285714Y-140008906D02*
X109209524Y-139970811D01*
X109209524Y-139970811D02*
X109171429Y-139932715D01*
X109171429Y-139932715D02*
X109133333Y-139856525D01*
X109133333Y-139856525D02*
X109133333Y-139627953D01*
X109133333Y-139627953D02*
X109171429Y-139551763D01*
X109171429Y-139551763D02*
X109209524Y-139513668D01*
X109209524Y-139513668D02*
X109285714Y-139475572D01*
X109285714Y-139475572D02*
X109438095Y-139475572D01*
X109438095Y-139475572D02*
X109514286Y-139513668D01*
X109857143Y-140008906D02*
X109857143Y-139208906D01*
X109933333Y-139704144D02*
X110161905Y-140008906D01*
X110161905Y-139475572D02*
X109857143Y-139780334D01*
X110504762Y-139475572D02*
X110504762Y-140008906D01*
X110504762Y-139551763D02*
X110542857Y-139513668D01*
X110542857Y-139513668D02*
X110619047Y-139475572D01*
X110619047Y-139475572D02*
X110733333Y-139475572D01*
X110733333Y-139475572D02*
X110809524Y-139513668D01*
X110809524Y-139513668D02*
X110847619Y-139589858D01*
X110847619Y-139589858D02*
X110847619Y-140008906D01*
X111533334Y-139970811D02*
X111457143Y-140008906D01*
X111457143Y-140008906D02*
X111304762Y-140008906D01*
X111304762Y-140008906D02*
X111228572Y-139970811D01*
X111228572Y-139970811D02*
X111190476Y-139894620D01*
X111190476Y-139894620D02*
X111190476Y-139589858D01*
X111190476Y-139589858D02*
X111228572Y-139513668D01*
X111228572Y-139513668D02*
X111304762Y-139475572D01*
X111304762Y-139475572D02*
X111457143Y-139475572D01*
X111457143Y-139475572D02*
X111533334Y-139513668D01*
X111533334Y-139513668D02*
X111571429Y-139589858D01*
X111571429Y-139589858D02*
X111571429Y-139666049D01*
X111571429Y-139666049D02*
X111190476Y-139742239D01*
X111876190Y-139970811D02*
X111952381Y-140008906D01*
X111952381Y-140008906D02*
X112104762Y-140008906D01*
X112104762Y-140008906D02*
X112180952Y-139970811D01*
X112180952Y-139970811D02*
X112219048Y-139894620D01*
X112219048Y-139894620D02*
X112219048Y-139856525D01*
X112219048Y-139856525D02*
X112180952Y-139780334D01*
X112180952Y-139780334D02*
X112104762Y-139742239D01*
X112104762Y-139742239D02*
X111990476Y-139742239D01*
X111990476Y-139742239D02*
X111914286Y-139704144D01*
X111914286Y-139704144D02*
X111876190Y-139627953D01*
X111876190Y-139627953D02*
X111876190Y-139589858D01*
X111876190Y-139589858D02*
X111914286Y-139513668D01*
X111914286Y-139513668D02*
X111990476Y-139475572D01*
X111990476Y-139475572D02*
X112104762Y-139475572D01*
X112104762Y-139475572D02*
X112180952Y-139513668D01*
X112523809Y-139970811D02*
X112600000Y-140008906D01*
X112600000Y-140008906D02*
X112752381Y-140008906D01*
X112752381Y-140008906D02*
X112828571Y-139970811D01*
X112828571Y-139970811D02*
X112866667Y-139894620D01*
X112866667Y-139894620D02*
X112866667Y-139856525D01*
X112866667Y-139856525D02*
X112828571Y-139780334D01*
X112828571Y-139780334D02*
X112752381Y-139742239D01*
X112752381Y-139742239D02*
X112638095Y-139742239D01*
X112638095Y-139742239D02*
X112561905Y-139704144D01*
X112561905Y-139704144D02*
X112523809Y-139627953D01*
X112523809Y-139627953D02*
X112523809Y-139589858D01*
X112523809Y-139589858D02*
X112561905Y-139513668D01*
X112561905Y-139513668D02*
X112638095Y-139475572D01*
X112638095Y-139475572D02*
X112752381Y-139475572D01*
X112752381Y-139475572D02*
X112828571Y-139513668D01*
X113209524Y-139932715D02*
X113247619Y-139970811D01*
X113247619Y-139970811D02*
X113209524Y-140008906D01*
X113209524Y-140008906D02*
X113171428Y-139970811D01*
X113171428Y-139970811D02*
X113209524Y-139932715D01*
X113209524Y-139932715D02*
X113209524Y-140008906D01*
X113209524Y-139513668D02*
X113247619Y-139551763D01*
X113247619Y-139551763D02*
X113209524Y-139589858D01*
X113209524Y-139589858D02*
X113171428Y-139551763D01*
X113171428Y-139551763D02*
X113209524Y-139513668D01*
X113209524Y-139513668D02*
X113209524Y-139589858D01*
X114619047Y-140008906D02*
X114161904Y-140008906D01*
X114390476Y-140008906D02*
X114390476Y-139208906D01*
X114390476Y-139208906D02*
X114314285Y-139323191D01*
X114314285Y-139323191D02*
X114238095Y-139399382D01*
X114238095Y-139399382D02*
X114161904Y-139437477D01*
X114961905Y-139932715D02*
X115000000Y-139970811D01*
X115000000Y-139970811D02*
X114961905Y-140008906D01*
X114961905Y-140008906D02*
X114923809Y-139970811D01*
X114923809Y-139970811D02*
X114961905Y-139932715D01*
X114961905Y-139932715D02*
X114961905Y-140008906D01*
X115723809Y-139208906D02*
X115342857Y-139208906D01*
X115342857Y-139208906D02*
X115304761Y-139589858D01*
X115304761Y-139589858D02*
X115342857Y-139551763D01*
X115342857Y-139551763D02*
X115419047Y-139513668D01*
X115419047Y-139513668D02*
X115609523Y-139513668D01*
X115609523Y-139513668D02*
X115685714Y-139551763D01*
X115685714Y-139551763D02*
X115723809Y-139589858D01*
X115723809Y-139589858D02*
X115761904Y-139666049D01*
X115761904Y-139666049D02*
X115761904Y-139856525D01*
X115761904Y-139856525D02*
X115723809Y-139932715D01*
X115723809Y-139932715D02*
X115685714Y-139970811D01*
X115685714Y-139970811D02*
X115609523Y-140008906D01*
X115609523Y-140008906D02*
X115419047Y-140008906D01*
X115419047Y-140008906D02*
X115342857Y-139970811D01*
X115342857Y-139970811D02*
X115304761Y-139932715D01*
X116028571Y-139208906D02*
X116561905Y-139208906D01*
X116561905Y-139208906D02*
X116219047Y-140008906D01*
X116866667Y-140008906D02*
X116866667Y-139475572D01*
X116866667Y-139551763D02*
X116904762Y-139513668D01*
X116904762Y-139513668D02*
X116980952Y-139475572D01*
X116980952Y-139475572D02*
X117095238Y-139475572D01*
X117095238Y-139475572D02*
X117171429Y-139513668D01*
X117171429Y-139513668D02*
X117209524Y-139589858D01*
X117209524Y-139589858D02*
X117209524Y-140008906D01*
X117209524Y-139589858D02*
X117247619Y-139513668D01*
X117247619Y-139513668D02*
X117323810Y-139475572D01*
X117323810Y-139475572D02*
X117438095Y-139475572D01*
X117438095Y-139475572D02*
X117514286Y-139513668D01*
X117514286Y-139513668D02*
X117552381Y-139589858D01*
X117552381Y-139589858D02*
X117552381Y-140008906D01*
X117933334Y-140008906D02*
X117933334Y-139475572D01*
X117933334Y-139551763D02*
X117971429Y-139513668D01*
X117971429Y-139513668D02*
X118047619Y-139475572D01*
X118047619Y-139475572D02*
X118161905Y-139475572D01*
X118161905Y-139475572D02*
X118238096Y-139513668D01*
X118238096Y-139513668D02*
X118276191Y-139589858D01*
X118276191Y-139589858D02*
X118276191Y-140008906D01*
X118276191Y-139589858D02*
X118314286Y-139513668D01*
X118314286Y-139513668D02*
X118390477Y-139475572D01*
X118390477Y-139475572D02*
X118504762Y-139475572D01*
X118504762Y-139475572D02*
X118580953Y-139513668D01*
X118580953Y-139513668D02*
X118619048Y-139589858D01*
X118619048Y-139589858D02*
X118619048Y-140008906D01*
X121647617Y-139616247D02*
X121761903Y-139654342D01*
X121761903Y-139654342D02*
X121799998Y-139692438D01*
X121799998Y-139692438D02*
X121838094Y-139768628D01*
X121838094Y-139768628D02*
X121838094Y-139882914D01*
X121838094Y-139882914D02*
X121799998Y-139959104D01*
X121799998Y-139959104D02*
X121761903Y-139997200D01*
X121761903Y-139997200D02*
X121685713Y-140035295D01*
X121685713Y-140035295D02*
X121380951Y-140035295D01*
X121380951Y-140035295D02*
X121380951Y-139235295D01*
X121380951Y-139235295D02*
X121647617Y-139235295D01*
X121647617Y-139235295D02*
X121723808Y-139273390D01*
X121723808Y-139273390D02*
X121761903Y-139311485D01*
X121761903Y-139311485D02*
X121799998Y-139387676D01*
X121799998Y-139387676D02*
X121799998Y-139463866D01*
X121799998Y-139463866D02*
X121761903Y-139540057D01*
X121761903Y-139540057D02*
X121723808Y-139578152D01*
X121723808Y-139578152D02*
X121647617Y-139616247D01*
X121647617Y-139616247D02*
X121380951Y-139616247D01*
X122295236Y-140035295D02*
X122219046Y-139997200D01*
X122219046Y-139997200D02*
X122180951Y-139959104D01*
X122180951Y-139959104D02*
X122142855Y-139882914D01*
X122142855Y-139882914D02*
X122142855Y-139654342D01*
X122142855Y-139654342D02*
X122180951Y-139578152D01*
X122180951Y-139578152D02*
X122219046Y-139540057D01*
X122219046Y-139540057D02*
X122295236Y-139501961D01*
X122295236Y-139501961D02*
X122409522Y-139501961D01*
X122409522Y-139501961D02*
X122485713Y-139540057D01*
X122485713Y-139540057D02*
X122523808Y-139578152D01*
X122523808Y-139578152D02*
X122561903Y-139654342D01*
X122561903Y-139654342D02*
X122561903Y-139882914D01*
X122561903Y-139882914D02*
X122523808Y-139959104D01*
X122523808Y-139959104D02*
X122485713Y-139997200D01*
X122485713Y-139997200D02*
X122409522Y-140035295D01*
X122409522Y-140035295D02*
X122295236Y-140035295D01*
X123247618Y-140035295D02*
X123247618Y-139616247D01*
X123247618Y-139616247D02*
X123209523Y-139540057D01*
X123209523Y-139540057D02*
X123133332Y-139501961D01*
X123133332Y-139501961D02*
X122980951Y-139501961D01*
X122980951Y-139501961D02*
X122904761Y-139540057D01*
X123247618Y-139997200D02*
X123171427Y-140035295D01*
X123171427Y-140035295D02*
X122980951Y-140035295D01*
X122980951Y-140035295D02*
X122904761Y-139997200D01*
X122904761Y-139997200D02*
X122866665Y-139921009D01*
X122866665Y-139921009D02*
X122866665Y-139844819D01*
X122866665Y-139844819D02*
X122904761Y-139768628D01*
X122904761Y-139768628D02*
X122980951Y-139730533D01*
X122980951Y-139730533D02*
X123171427Y-139730533D01*
X123171427Y-139730533D02*
X123247618Y-139692438D01*
X123628571Y-140035295D02*
X123628571Y-139501961D01*
X123628571Y-139654342D02*
X123666666Y-139578152D01*
X123666666Y-139578152D02*
X123704761Y-139540057D01*
X123704761Y-139540057D02*
X123780952Y-139501961D01*
X123780952Y-139501961D02*
X123857142Y-139501961D01*
X124466666Y-140035295D02*
X124466666Y-139235295D01*
X124466666Y-139997200D02*
X124390475Y-140035295D01*
X124390475Y-140035295D02*
X124238094Y-140035295D01*
X124238094Y-140035295D02*
X124161904Y-139997200D01*
X124161904Y-139997200D02*
X124123809Y-139959104D01*
X124123809Y-139959104D02*
X124085713Y-139882914D01*
X124085713Y-139882914D02*
X124085713Y-139654342D01*
X124085713Y-139654342D02*
X124123809Y-139578152D01*
X124123809Y-139578152D02*
X124161904Y-139540057D01*
X124161904Y-139540057D02*
X124238094Y-139501961D01*
X124238094Y-139501961D02*
X124390475Y-139501961D01*
X124390475Y-139501961D02*
X124466666Y-139540057D01*
X125342857Y-139235295D02*
X125800000Y-139235295D01*
X125571428Y-140035295D02*
X125571428Y-139235295D01*
X126066667Y-140035295D02*
X126066667Y-139235295D01*
X126409524Y-140035295D02*
X126409524Y-139616247D01*
X126409524Y-139616247D02*
X126371429Y-139540057D01*
X126371429Y-139540057D02*
X126295238Y-139501961D01*
X126295238Y-139501961D02*
X126180952Y-139501961D01*
X126180952Y-139501961D02*
X126104762Y-139540057D01*
X126104762Y-139540057D02*
X126066667Y-139578152D01*
X126790477Y-140035295D02*
X126790477Y-139501961D01*
X126790477Y-139235295D02*
X126752381Y-139273390D01*
X126752381Y-139273390D02*
X126790477Y-139311485D01*
X126790477Y-139311485D02*
X126828572Y-139273390D01*
X126828572Y-139273390D02*
X126790477Y-139235295D01*
X126790477Y-139235295D02*
X126790477Y-139311485D01*
X127514286Y-139997200D02*
X127438095Y-140035295D01*
X127438095Y-140035295D02*
X127285714Y-140035295D01*
X127285714Y-140035295D02*
X127209524Y-139997200D01*
X127209524Y-139997200D02*
X127171429Y-139959104D01*
X127171429Y-139959104D02*
X127133333Y-139882914D01*
X127133333Y-139882914D02*
X127133333Y-139654342D01*
X127133333Y-139654342D02*
X127171429Y-139578152D01*
X127171429Y-139578152D02*
X127209524Y-139540057D01*
X127209524Y-139540057D02*
X127285714Y-139501961D01*
X127285714Y-139501961D02*
X127438095Y-139501961D01*
X127438095Y-139501961D02*
X127514286Y-139540057D01*
X127857143Y-140035295D02*
X127857143Y-139235295D01*
X127933333Y-139730533D02*
X128161905Y-140035295D01*
X128161905Y-139501961D02*
X127857143Y-139806723D01*
X128504762Y-139501961D02*
X128504762Y-140035295D01*
X128504762Y-139578152D02*
X128542857Y-139540057D01*
X128542857Y-139540057D02*
X128619047Y-139501961D01*
X128619047Y-139501961D02*
X128733333Y-139501961D01*
X128733333Y-139501961D02*
X128809524Y-139540057D01*
X128809524Y-139540057D02*
X128847619Y-139616247D01*
X128847619Y-139616247D02*
X128847619Y-140035295D01*
X129533334Y-139997200D02*
X129457143Y-140035295D01*
X129457143Y-140035295D02*
X129304762Y-140035295D01*
X129304762Y-140035295D02*
X129228572Y-139997200D01*
X129228572Y-139997200D02*
X129190476Y-139921009D01*
X129190476Y-139921009D02*
X129190476Y-139616247D01*
X129190476Y-139616247D02*
X129228572Y-139540057D01*
X129228572Y-139540057D02*
X129304762Y-139501961D01*
X129304762Y-139501961D02*
X129457143Y-139501961D01*
X129457143Y-139501961D02*
X129533334Y-139540057D01*
X129533334Y-139540057D02*
X129571429Y-139616247D01*
X129571429Y-139616247D02*
X129571429Y-139692438D01*
X129571429Y-139692438D02*
X129190476Y-139768628D01*
X129876190Y-139997200D02*
X129952381Y-140035295D01*
X129952381Y-140035295D02*
X130104762Y-140035295D01*
X130104762Y-140035295D02*
X130180952Y-139997200D01*
X130180952Y-139997200D02*
X130219048Y-139921009D01*
X130219048Y-139921009D02*
X130219048Y-139882914D01*
X130219048Y-139882914D02*
X130180952Y-139806723D01*
X130180952Y-139806723D02*
X130104762Y-139768628D01*
X130104762Y-139768628D02*
X129990476Y-139768628D01*
X129990476Y-139768628D02*
X129914286Y-139730533D01*
X129914286Y-139730533D02*
X129876190Y-139654342D01*
X129876190Y-139654342D02*
X129876190Y-139616247D01*
X129876190Y-139616247D02*
X129914286Y-139540057D01*
X129914286Y-139540057D02*
X129990476Y-139501961D01*
X129990476Y-139501961D02*
X130104762Y-139501961D01*
X130104762Y-139501961D02*
X130180952Y-139540057D01*
X130523809Y-139997200D02*
X130600000Y-140035295D01*
X130600000Y-140035295D02*
X130752381Y-140035295D01*
X130752381Y-140035295D02*
X130828571Y-139997200D01*
X130828571Y-139997200D02*
X130866667Y-139921009D01*
X130866667Y-139921009D02*
X130866667Y-139882914D01*
X130866667Y-139882914D02*
X130828571Y-139806723D01*
X130828571Y-139806723D02*
X130752381Y-139768628D01*
X130752381Y-139768628D02*
X130638095Y-139768628D01*
X130638095Y-139768628D02*
X130561905Y-139730533D01*
X130561905Y-139730533D02*
X130523809Y-139654342D01*
X130523809Y-139654342D02*
X130523809Y-139616247D01*
X130523809Y-139616247D02*
X130561905Y-139540057D01*
X130561905Y-139540057D02*
X130638095Y-139501961D01*
X130638095Y-139501961D02*
X130752381Y-139501961D01*
X130752381Y-139501961D02*
X130828571Y-139540057D01*
X131209524Y-139959104D02*
X131247619Y-139997200D01*
X131247619Y-139997200D02*
X131209524Y-140035295D01*
X131209524Y-140035295D02*
X131171428Y-139997200D01*
X131171428Y-139997200D02*
X131209524Y-139959104D01*
X131209524Y-139959104D02*
X131209524Y-140035295D01*
X131209524Y-139540057D02*
X131247619Y-139578152D01*
X131247619Y-139578152D02*
X131209524Y-139616247D01*
X131209524Y-139616247D02*
X131171428Y-139578152D01*
X131171428Y-139578152D02*
X131209524Y-139540057D01*
X131209524Y-139540057D02*
X131209524Y-139616247D01*
X132619047Y-140035295D02*
X132161904Y-140035295D01*
X132390476Y-140035295D02*
X132390476Y-139235295D01*
X132390476Y-139235295D02*
X132314285Y-139349580D01*
X132314285Y-139349580D02*
X132238095Y-139425771D01*
X132238095Y-139425771D02*
X132161904Y-139463866D01*
X132961905Y-139959104D02*
X133000000Y-139997200D01*
X133000000Y-139997200D02*
X132961905Y-140035295D01*
X132961905Y-140035295D02*
X132923809Y-139997200D01*
X132923809Y-139997200D02*
X132961905Y-139959104D01*
X132961905Y-139959104D02*
X132961905Y-140035295D01*
X133723809Y-139235295D02*
X133342857Y-139235295D01*
X133342857Y-139235295D02*
X133304761Y-139616247D01*
X133304761Y-139616247D02*
X133342857Y-139578152D01*
X133342857Y-139578152D02*
X133419047Y-139540057D01*
X133419047Y-139540057D02*
X133609523Y-139540057D01*
X133609523Y-139540057D02*
X133685714Y-139578152D01*
X133685714Y-139578152D02*
X133723809Y-139616247D01*
X133723809Y-139616247D02*
X133761904Y-139692438D01*
X133761904Y-139692438D02*
X133761904Y-139882914D01*
X133761904Y-139882914D02*
X133723809Y-139959104D01*
X133723809Y-139959104D02*
X133685714Y-139997200D01*
X133685714Y-139997200D02*
X133609523Y-140035295D01*
X133609523Y-140035295D02*
X133419047Y-140035295D01*
X133419047Y-140035295D02*
X133342857Y-139997200D01*
X133342857Y-139997200D02*
X133304761Y-139959104D01*
X134028571Y-139235295D02*
X134561905Y-139235295D01*
X134561905Y-139235295D02*
X134219047Y-140035295D01*
X134866667Y-140035295D02*
X134866667Y-139501961D01*
X134866667Y-139578152D02*
X134904762Y-139540057D01*
X134904762Y-139540057D02*
X134980952Y-139501961D01*
X134980952Y-139501961D02*
X135095238Y-139501961D01*
X135095238Y-139501961D02*
X135171429Y-139540057D01*
X135171429Y-139540057D02*
X135209524Y-139616247D01*
X135209524Y-139616247D02*
X135209524Y-140035295D01*
X135209524Y-139616247D02*
X135247619Y-139540057D01*
X135247619Y-139540057D02*
X135323810Y-139501961D01*
X135323810Y-139501961D02*
X135438095Y-139501961D01*
X135438095Y-139501961D02*
X135514286Y-139540057D01*
X135514286Y-139540057D02*
X135552381Y-139616247D01*
X135552381Y-139616247D02*
X135552381Y-140035295D01*
X135933334Y-140035295D02*
X135933334Y-139501961D01*
X135933334Y-139578152D02*
X135971429Y-139540057D01*
X135971429Y-139540057D02*
X136047619Y-139501961D01*
X136047619Y-139501961D02*
X136161905Y-139501961D01*
X136161905Y-139501961D02*
X136238096Y-139540057D01*
X136238096Y-139540057D02*
X136276191Y-139616247D01*
X136276191Y-139616247D02*
X136276191Y-140035295D01*
X136276191Y-139616247D02*
X136314286Y-139540057D01*
X136314286Y-139540057D02*
X136390477Y-139501961D01*
X136390477Y-139501961D02*
X136504762Y-139501961D01*
X136504762Y-139501961D02*
X136580953Y-139540057D01*
X136580953Y-139540057D02*
X136619048Y-139616247D01*
X136619048Y-139616247D02*
X136619048Y-140035295D01*
X157447617Y-139566247D02*
X157561903Y-139604342D01*
X157561903Y-139604342D02*
X157599998Y-139642438D01*
X157599998Y-139642438D02*
X157638094Y-139718628D01*
X157638094Y-139718628D02*
X157638094Y-139832914D01*
X157638094Y-139832914D02*
X157599998Y-139909104D01*
X157599998Y-139909104D02*
X157561903Y-139947200D01*
X157561903Y-139947200D02*
X157485713Y-139985295D01*
X157485713Y-139985295D02*
X157180951Y-139985295D01*
X157180951Y-139985295D02*
X157180951Y-139185295D01*
X157180951Y-139185295D02*
X157447617Y-139185295D01*
X157447617Y-139185295D02*
X157523808Y-139223390D01*
X157523808Y-139223390D02*
X157561903Y-139261485D01*
X157561903Y-139261485D02*
X157599998Y-139337676D01*
X157599998Y-139337676D02*
X157599998Y-139413866D01*
X157599998Y-139413866D02*
X157561903Y-139490057D01*
X157561903Y-139490057D02*
X157523808Y-139528152D01*
X157523808Y-139528152D02*
X157447617Y-139566247D01*
X157447617Y-139566247D02*
X157180951Y-139566247D01*
X158095236Y-139985295D02*
X158019046Y-139947200D01*
X158019046Y-139947200D02*
X157980951Y-139909104D01*
X157980951Y-139909104D02*
X157942855Y-139832914D01*
X157942855Y-139832914D02*
X157942855Y-139604342D01*
X157942855Y-139604342D02*
X157980951Y-139528152D01*
X157980951Y-139528152D02*
X158019046Y-139490057D01*
X158019046Y-139490057D02*
X158095236Y-139451961D01*
X158095236Y-139451961D02*
X158209522Y-139451961D01*
X158209522Y-139451961D02*
X158285713Y-139490057D01*
X158285713Y-139490057D02*
X158323808Y-139528152D01*
X158323808Y-139528152D02*
X158361903Y-139604342D01*
X158361903Y-139604342D02*
X158361903Y-139832914D01*
X158361903Y-139832914D02*
X158323808Y-139909104D01*
X158323808Y-139909104D02*
X158285713Y-139947200D01*
X158285713Y-139947200D02*
X158209522Y-139985295D01*
X158209522Y-139985295D02*
X158095236Y-139985295D01*
X159047618Y-139985295D02*
X159047618Y-139566247D01*
X159047618Y-139566247D02*
X159009523Y-139490057D01*
X159009523Y-139490057D02*
X158933332Y-139451961D01*
X158933332Y-139451961D02*
X158780951Y-139451961D01*
X158780951Y-139451961D02*
X158704761Y-139490057D01*
X159047618Y-139947200D02*
X158971427Y-139985295D01*
X158971427Y-139985295D02*
X158780951Y-139985295D01*
X158780951Y-139985295D02*
X158704761Y-139947200D01*
X158704761Y-139947200D02*
X158666665Y-139871009D01*
X158666665Y-139871009D02*
X158666665Y-139794819D01*
X158666665Y-139794819D02*
X158704761Y-139718628D01*
X158704761Y-139718628D02*
X158780951Y-139680533D01*
X158780951Y-139680533D02*
X158971427Y-139680533D01*
X158971427Y-139680533D02*
X159047618Y-139642438D01*
X159428571Y-139985295D02*
X159428571Y-139451961D01*
X159428571Y-139604342D02*
X159466666Y-139528152D01*
X159466666Y-139528152D02*
X159504761Y-139490057D01*
X159504761Y-139490057D02*
X159580952Y-139451961D01*
X159580952Y-139451961D02*
X159657142Y-139451961D01*
X160266666Y-139985295D02*
X160266666Y-139185295D01*
X160266666Y-139947200D02*
X160190475Y-139985295D01*
X160190475Y-139985295D02*
X160038094Y-139985295D01*
X160038094Y-139985295D02*
X159961904Y-139947200D01*
X159961904Y-139947200D02*
X159923809Y-139909104D01*
X159923809Y-139909104D02*
X159885713Y-139832914D01*
X159885713Y-139832914D02*
X159885713Y-139604342D01*
X159885713Y-139604342D02*
X159923809Y-139528152D01*
X159923809Y-139528152D02*
X159961904Y-139490057D01*
X159961904Y-139490057D02*
X160038094Y-139451961D01*
X160038094Y-139451961D02*
X160190475Y-139451961D01*
X160190475Y-139451961D02*
X160266666Y-139490057D01*
X161142857Y-139185295D02*
X161600000Y-139185295D01*
X161371428Y-139985295D02*
X161371428Y-139185295D01*
X161866667Y-139985295D02*
X161866667Y-139185295D01*
X162209524Y-139985295D02*
X162209524Y-139566247D01*
X162209524Y-139566247D02*
X162171429Y-139490057D01*
X162171429Y-139490057D02*
X162095238Y-139451961D01*
X162095238Y-139451961D02*
X161980952Y-139451961D01*
X161980952Y-139451961D02*
X161904762Y-139490057D01*
X161904762Y-139490057D02*
X161866667Y-139528152D01*
X162590477Y-139985295D02*
X162590477Y-139451961D01*
X162590477Y-139185295D02*
X162552381Y-139223390D01*
X162552381Y-139223390D02*
X162590477Y-139261485D01*
X162590477Y-139261485D02*
X162628572Y-139223390D01*
X162628572Y-139223390D02*
X162590477Y-139185295D01*
X162590477Y-139185295D02*
X162590477Y-139261485D01*
X163314286Y-139947200D02*
X163238095Y-139985295D01*
X163238095Y-139985295D02*
X163085714Y-139985295D01*
X163085714Y-139985295D02*
X163009524Y-139947200D01*
X163009524Y-139947200D02*
X162971429Y-139909104D01*
X162971429Y-139909104D02*
X162933333Y-139832914D01*
X162933333Y-139832914D02*
X162933333Y-139604342D01*
X162933333Y-139604342D02*
X162971429Y-139528152D01*
X162971429Y-139528152D02*
X163009524Y-139490057D01*
X163009524Y-139490057D02*
X163085714Y-139451961D01*
X163085714Y-139451961D02*
X163238095Y-139451961D01*
X163238095Y-139451961D02*
X163314286Y-139490057D01*
X163657143Y-139985295D02*
X163657143Y-139185295D01*
X163733333Y-139680533D02*
X163961905Y-139985295D01*
X163961905Y-139451961D02*
X163657143Y-139756723D01*
X164304762Y-139451961D02*
X164304762Y-139985295D01*
X164304762Y-139528152D02*
X164342857Y-139490057D01*
X164342857Y-139490057D02*
X164419047Y-139451961D01*
X164419047Y-139451961D02*
X164533333Y-139451961D01*
X164533333Y-139451961D02*
X164609524Y-139490057D01*
X164609524Y-139490057D02*
X164647619Y-139566247D01*
X164647619Y-139566247D02*
X164647619Y-139985295D01*
X165333334Y-139947200D02*
X165257143Y-139985295D01*
X165257143Y-139985295D02*
X165104762Y-139985295D01*
X165104762Y-139985295D02*
X165028572Y-139947200D01*
X165028572Y-139947200D02*
X164990476Y-139871009D01*
X164990476Y-139871009D02*
X164990476Y-139566247D01*
X164990476Y-139566247D02*
X165028572Y-139490057D01*
X165028572Y-139490057D02*
X165104762Y-139451961D01*
X165104762Y-139451961D02*
X165257143Y-139451961D01*
X165257143Y-139451961D02*
X165333334Y-139490057D01*
X165333334Y-139490057D02*
X165371429Y-139566247D01*
X165371429Y-139566247D02*
X165371429Y-139642438D01*
X165371429Y-139642438D02*
X164990476Y-139718628D01*
X165676190Y-139947200D02*
X165752381Y-139985295D01*
X165752381Y-139985295D02*
X165904762Y-139985295D01*
X165904762Y-139985295D02*
X165980952Y-139947200D01*
X165980952Y-139947200D02*
X166019048Y-139871009D01*
X166019048Y-139871009D02*
X166019048Y-139832914D01*
X166019048Y-139832914D02*
X165980952Y-139756723D01*
X165980952Y-139756723D02*
X165904762Y-139718628D01*
X165904762Y-139718628D02*
X165790476Y-139718628D01*
X165790476Y-139718628D02*
X165714286Y-139680533D01*
X165714286Y-139680533D02*
X165676190Y-139604342D01*
X165676190Y-139604342D02*
X165676190Y-139566247D01*
X165676190Y-139566247D02*
X165714286Y-139490057D01*
X165714286Y-139490057D02*
X165790476Y-139451961D01*
X165790476Y-139451961D02*
X165904762Y-139451961D01*
X165904762Y-139451961D02*
X165980952Y-139490057D01*
X166323809Y-139947200D02*
X166400000Y-139985295D01*
X166400000Y-139985295D02*
X166552381Y-139985295D01*
X166552381Y-139985295D02*
X166628571Y-139947200D01*
X166628571Y-139947200D02*
X166666667Y-139871009D01*
X166666667Y-139871009D02*
X166666667Y-139832914D01*
X166666667Y-139832914D02*
X166628571Y-139756723D01*
X166628571Y-139756723D02*
X166552381Y-139718628D01*
X166552381Y-139718628D02*
X166438095Y-139718628D01*
X166438095Y-139718628D02*
X166361905Y-139680533D01*
X166361905Y-139680533D02*
X166323809Y-139604342D01*
X166323809Y-139604342D02*
X166323809Y-139566247D01*
X166323809Y-139566247D02*
X166361905Y-139490057D01*
X166361905Y-139490057D02*
X166438095Y-139451961D01*
X166438095Y-139451961D02*
X166552381Y-139451961D01*
X166552381Y-139451961D02*
X166628571Y-139490057D01*
X167009524Y-139909104D02*
X167047619Y-139947200D01*
X167047619Y-139947200D02*
X167009524Y-139985295D01*
X167009524Y-139985295D02*
X166971428Y-139947200D01*
X166971428Y-139947200D02*
X167009524Y-139909104D01*
X167009524Y-139909104D02*
X167009524Y-139985295D01*
X167009524Y-139490057D02*
X167047619Y-139528152D01*
X167047619Y-139528152D02*
X167009524Y-139566247D01*
X167009524Y-139566247D02*
X166971428Y-139528152D01*
X166971428Y-139528152D02*
X167009524Y-139490057D01*
X167009524Y-139490057D02*
X167009524Y-139566247D01*
X168419047Y-139985295D02*
X167961904Y-139985295D01*
X168190476Y-139985295D02*
X168190476Y-139185295D01*
X168190476Y-139185295D02*
X168114285Y-139299580D01*
X168114285Y-139299580D02*
X168038095Y-139375771D01*
X168038095Y-139375771D02*
X167961904Y-139413866D01*
X168761905Y-139909104D02*
X168800000Y-139947200D01*
X168800000Y-139947200D02*
X168761905Y-139985295D01*
X168761905Y-139985295D02*
X168723809Y-139947200D01*
X168723809Y-139947200D02*
X168761905Y-139909104D01*
X168761905Y-139909104D02*
X168761905Y-139985295D01*
X169523809Y-139185295D02*
X169142857Y-139185295D01*
X169142857Y-139185295D02*
X169104761Y-139566247D01*
X169104761Y-139566247D02*
X169142857Y-139528152D01*
X169142857Y-139528152D02*
X169219047Y-139490057D01*
X169219047Y-139490057D02*
X169409523Y-139490057D01*
X169409523Y-139490057D02*
X169485714Y-139528152D01*
X169485714Y-139528152D02*
X169523809Y-139566247D01*
X169523809Y-139566247D02*
X169561904Y-139642438D01*
X169561904Y-139642438D02*
X169561904Y-139832914D01*
X169561904Y-139832914D02*
X169523809Y-139909104D01*
X169523809Y-139909104D02*
X169485714Y-139947200D01*
X169485714Y-139947200D02*
X169409523Y-139985295D01*
X169409523Y-139985295D02*
X169219047Y-139985295D01*
X169219047Y-139985295D02*
X169142857Y-139947200D01*
X169142857Y-139947200D02*
X169104761Y-139909104D01*
X169828571Y-139185295D02*
X170361905Y-139185295D01*
X170361905Y-139185295D02*
X170019047Y-139985295D01*
X170666667Y-139985295D02*
X170666667Y-139451961D01*
X170666667Y-139528152D02*
X170704762Y-139490057D01*
X170704762Y-139490057D02*
X170780952Y-139451961D01*
X170780952Y-139451961D02*
X170895238Y-139451961D01*
X170895238Y-139451961D02*
X170971429Y-139490057D01*
X170971429Y-139490057D02*
X171009524Y-139566247D01*
X171009524Y-139566247D02*
X171009524Y-139985295D01*
X171009524Y-139566247D02*
X171047619Y-139490057D01*
X171047619Y-139490057D02*
X171123810Y-139451961D01*
X171123810Y-139451961D02*
X171238095Y-139451961D01*
X171238095Y-139451961D02*
X171314286Y-139490057D01*
X171314286Y-139490057D02*
X171352381Y-139566247D01*
X171352381Y-139566247D02*
X171352381Y-139985295D01*
X171733334Y-139985295D02*
X171733334Y-139451961D01*
X171733334Y-139528152D02*
X171771429Y-139490057D01*
X171771429Y-139490057D02*
X171847619Y-139451961D01*
X171847619Y-139451961D02*
X171961905Y-139451961D01*
X171961905Y-139451961D02*
X172038096Y-139490057D01*
X172038096Y-139490057D02*
X172076191Y-139566247D01*
X172076191Y-139566247D02*
X172076191Y-139985295D01*
X172076191Y-139566247D02*
X172114286Y-139490057D01*
X172114286Y-139490057D02*
X172190477Y-139451961D01*
X172190477Y-139451961D02*
X172304762Y-139451961D01*
X172304762Y-139451961D02*
X172380953Y-139490057D01*
X172380953Y-139490057D02*
X172419048Y-139566247D01*
X172419048Y-139566247D02*
X172419048Y-139985295D01*
M02*
