%TF.GenerationSoftware,KiCad,Pcbnew,10.0.4-10.0.4~ubuntu25.10.1*%
%TF.CreationDate,2026-08-30T05:02:17+00:00*%
%TF.ProjectId,TAPRX-888,54415052-582d-4383-9838-2e6b69636164,DEV*%
%TF.SameCoordinates,Original*%
%TF.FileFunction,Other,User*%
%FSLAX46Y46*%
G04 Gerber Fmt 4.6, Leading zero omitted, Abs format (unit mm)*
G04 Created by KiCad (PCBNEW 10.0.4-10.0.4~ubuntu25.10.1) date 2026-08-30 05:02:17*
%MOMM*%
%LPD*%
G01*
G04 APERTURE LIST*
%ADD10C,0.150000*%
G04 APERTURE END LIST*
D10*
X149523809Y-87359580D02*
X149476190Y-87407200D01*
X149476190Y-87407200D02*
X149333333Y-87454819D01*
X149333333Y-87454819D02*
X149238095Y-87454819D01*
X149238095Y-87454819D02*
X149095238Y-87407200D01*
X149095238Y-87407200D02*
X149000000Y-87311961D01*
X149000000Y-87311961D02*
X148952381Y-87216723D01*
X148952381Y-87216723D02*
X148904762Y-87026247D01*
X148904762Y-87026247D02*
X148904762Y-86883390D01*
X148904762Y-86883390D02*
X148952381Y-86692914D01*
X148952381Y-86692914D02*
X149000000Y-86597676D01*
X149000000Y-86597676D02*
X149095238Y-86502438D01*
X149095238Y-86502438D02*
X149238095Y-86454819D01*
X149238095Y-86454819D02*
X149333333Y-86454819D01*
X149333333Y-86454819D02*
X149476190Y-86502438D01*
X149476190Y-86502438D02*
X149523809Y-86550057D01*
X150142857Y-86978628D02*
X150142857Y-87454819D01*
X149809524Y-86454819D02*
X150142857Y-86978628D01*
X150142857Y-86978628D02*
X150476190Y-86454819D01*
X150809524Y-86454819D02*
X150809524Y-87264342D01*
X150809524Y-87264342D02*
X150857143Y-87359580D01*
X150857143Y-87359580D02*
X150904762Y-87407200D01*
X150904762Y-87407200D02*
X151000000Y-87454819D01*
X151000000Y-87454819D02*
X151190476Y-87454819D01*
X151190476Y-87454819D02*
X151285714Y-87407200D01*
X151285714Y-87407200D02*
X151333333Y-87359580D01*
X151333333Y-87359580D02*
X151380952Y-87264342D01*
X151380952Y-87264342D02*
X151380952Y-86454819D01*
X151809524Y-87407200D02*
X151952381Y-87454819D01*
X151952381Y-87454819D02*
X152190476Y-87454819D01*
X152190476Y-87454819D02*
X152285714Y-87407200D01*
X152285714Y-87407200D02*
X152333333Y-87359580D01*
X152333333Y-87359580D02*
X152380952Y-87264342D01*
X152380952Y-87264342D02*
X152380952Y-87169104D01*
X152380952Y-87169104D02*
X152333333Y-87073866D01*
X152333333Y-87073866D02*
X152285714Y-87026247D01*
X152285714Y-87026247D02*
X152190476Y-86978628D01*
X152190476Y-86978628D02*
X152000000Y-86931009D01*
X152000000Y-86931009D02*
X151904762Y-86883390D01*
X151904762Y-86883390D02*
X151857143Y-86835771D01*
X151857143Y-86835771D02*
X151809524Y-86740533D01*
X151809524Y-86740533D02*
X151809524Y-86645295D01*
X151809524Y-86645295D02*
X151857143Y-86550057D01*
X151857143Y-86550057D02*
X151904762Y-86502438D01*
X151904762Y-86502438D02*
X152000000Y-86454819D01*
X152000000Y-86454819D02*
X152238095Y-86454819D01*
X152238095Y-86454819D02*
X152380952Y-86502438D01*
X153142857Y-86931009D02*
X153285714Y-86978628D01*
X153285714Y-86978628D02*
X153333333Y-87026247D01*
X153333333Y-87026247D02*
X153380952Y-87121485D01*
X153380952Y-87121485D02*
X153380952Y-87264342D01*
X153380952Y-87264342D02*
X153333333Y-87359580D01*
X153333333Y-87359580D02*
X153285714Y-87407200D01*
X153285714Y-87407200D02*
X153190476Y-87454819D01*
X153190476Y-87454819D02*
X152809524Y-87454819D01*
X152809524Y-87454819D02*
X152809524Y-86454819D01*
X152809524Y-86454819D02*
X153142857Y-86454819D01*
X153142857Y-86454819D02*
X153238095Y-86502438D01*
X153238095Y-86502438D02*
X153285714Y-86550057D01*
X153285714Y-86550057D02*
X153333333Y-86645295D01*
X153333333Y-86645295D02*
X153333333Y-86740533D01*
X153333333Y-86740533D02*
X153285714Y-86835771D01*
X153285714Y-86835771D02*
X153238095Y-86883390D01*
X153238095Y-86883390D02*
X153142857Y-86931009D01*
X153142857Y-86931009D02*
X152809524Y-86931009D01*
X153714286Y-86454819D02*
X154333333Y-86454819D01*
X154333333Y-86454819D02*
X154000000Y-86835771D01*
X154000000Y-86835771D02*
X154142857Y-86835771D01*
X154142857Y-86835771D02*
X154238095Y-86883390D01*
X154238095Y-86883390D02*
X154285714Y-86931009D01*
X154285714Y-86931009D02*
X154333333Y-87026247D01*
X154333333Y-87026247D02*
X154333333Y-87264342D01*
X154333333Y-87264342D02*
X154285714Y-87359580D01*
X154285714Y-87359580D02*
X154238095Y-87407200D01*
X154238095Y-87407200D02*
X154142857Y-87454819D01*
X154142857Y-87454819D02*
X153857143Y-87454819D01*
X153857143Y-87454819D02*
X153761905Y-87407200D01*
X153761905Y-87407200D02*
X153714286Y-87359580D01*
X154952381Y-86454819D02*
X155047619Y-86454819D01*
X155047619Y-86454819D02*
X155142857Y-86502438D01*
X155142857Y-86502438D02*
X155190476Y-86550057D01*
X155190476Y-86550057D02*
X155238095Y-86645295D01*
X155238095Y-86645295D02*
X155285714Y-86835771D01*
X155285714Y-86835771D02*
X155285714Y-87073866D01*
X155285714Y-87073866D02*
X155238095Y-87264342D01*
X155238095Y-87264342D02*
X155190476Y-87359580D01*
X155190476Y-87359580D02*
X155142857Y-87407200D01*
X155142857Y-87407200D02*
X155047619Y-87454819D01*
X155047619Y-87454819D02*
X154952381Y-87454819D01*
X154952381Y-87454819D02*
X154857143Y-87407200D01*
X154857143Y-87407200D02*
X154809524Y-87359580D01*
X154809524Y-87359580D02*
X154761905Y-87264342D01*
X154761905Y-87264342D02*
X154714286Y-87073866D01*
X154714286Y-87073866D02*
X154714286Y-86835771D01*
X154714286Y-86835771D02*
X154761905Y-86645295D01*
X154761905Y-86645295D02*
X154809524Y-86550057D01*
X154809524Y-86550057D02*
X154857143Y-86502438D01*
X154857143Y-86502438D02*
X154952381Y-86454819D01*
X156238095Y-87454819D02*
X155666667Y-87454819D01*
X155952381Y-87454819D02*
X155952381Y-86454819D01*
X155952381Y-86454819D02*
X155857143Y-86597676D01*
X155857143Y-86597676D02*
X155761905Y-86692914D01*
X155761905Y-86692914D02*
X155666667Y-86740533D01*
X157095238Y-86788152D02*
X157095238Y-87454819D01*
X156857143Y-86407200D02*
X156619048Y-87121485D01*
X156619048Y-87121485D02*
X157238095Y-87121485D01*
X157619048Y-87073866D02*
X158380953Y-87073866D01*
X159190476Y-86931009D02*
X159333333Y-86978628D01*
X159333333Y-86978628D02*
X159380952Y-87026247D01*
X159380952Y-87026247D02*
X159428571Y-87121485D01*
X159428571Y-87121485D02*
X159428571Y-87264342D01*
X159428571Y-87264342D02*
X159380952Y-87359580D01*
X159380952Y-87359580D02*
X159333333Y-87407200D01*
X159333333Y-87407200D02*
X159238095Y-87454819D01*
X159238095Y-87454819D02*
X158857143Y-87454819D01*
X158857143Y-87454819D02*
X158857143Y-86454819D01*
X158857143Y-86454819D02*
X159190476Y-86454819D01*
X159190476Y-86454819D02*
X159285714Y-86502438D01*
X159285714Y-86502438D02*
X159333333Y-86550057D01*
X159333333Y-86550057D02*
X159380952Y-86645295D01*
X159380952Y-86645295D02*
X159380952Y-86740533D01*
X159380952Y-86740533D02*
X159333333Y-86835771D01*
X159333333Y-86835771D02*
X159285714Y-86883390D01*
X159285714Y-86883390D02*
X159190476Y-86931009D01*
X159190476Y-86931009D02*
X158857143Y-86931009D01*
X159761905Y-86454819D02*
X160428571Y-86454819D01*
X160428571Y-86454819D02*
X159761905Y-87454819D01*
X159761905Y-87454819D02*
X160428571Y-87454819D01*
X160714286Y-86454819D02*
X161380952Y-87454819D01*
X161380952Y-86454819D02*
X160714286Y-87454819D01*
X162333333Y-87359580D02*
X162285714Y-87407200D01*
X162285714Y-87407200D02*
X162142857Y-87454819D01*
X162142857Y-87454819D02*
X162047619Y-87454819D01*
X162047619Y-87454819D02*
X161904762Y-87407200D01*
X161904762Y-87407200D02*
X161809524Y-87311961D01*
X161809524Y-87311961D02*
X161761905Y-87216723D01*
X161761905Y-87216723D02*
X161714286Y-87026247D01*
X161714286Y-87026247D02*
X161714286Y-86883390D01*
X161714286Y-86883390D02*
X161761905Y-86692914D01*
X161761905Y-86692914D02*
X161809524Y-86597676D01*
X161809524Y-86597676D02*
X161904762Y-86502438D01*
X161904762Y-86502438D02*
X162047619Y-86454819D01*
X162047619Y-86454819D02*
X162142857Y-86454819D01*
X162142857Y-86454819D02*
X162285714Y-86502438D01*
X162285714Y-86502438D02*
X162333333Y-86550057D01*
X162619048Y-86454819D02*
X163190476Y-86454819D01*
X162904762Y-87454819D02*
X162904762Y-86454819D01*
M02*
