%TF.GenerationSoftware,KiCad,Pcbnew,10.0.4-10.0.4~ubuntu25.10.1*%
%TF.CreationDate,2026-07-31T15:16:36+00:00*%
%TF.ProjectId,TAPRX-888,54415052-582d-4383-9838-2e6b69636164,DEV*%
%TF.SameCoordinates,Original*%
%TF.FileFunction,OtherDrawing,Comment*%
%FSLAX46Y46*%
G04 Gerber Fmt 4.6, Leading zero omitted, Abs format (unit mm)*
G04 Created by KiCad (PCBNEW 10.0.4-10.0.4~ubuntu25.10.1) date 2026-07-31 15:16:36*
%MOMM*%
%LPD*%
G01*
G04 APERTURE LIST*
%ADD10C,0.100000*%
%ADD11C,0.150000*%
%ADD12C,0.120000*%
G04 APERTURE END LIST*
D10*
X102000000Y-165000000D02*
X102000000Y-39000000D01*
D11*
X112116000Y-165438000D02*
X112116000Y-167216000D01*
X127116000Y-165438000D02*
X127116000Y-167216000D01*
D10*
X138000000Y-165000000D02*
X138000000Y-38000000D01*
D11*
X142116000Y-165438000D02*
X142116000Y-167216000D01*
X157116000Y-165438000D02*
X157116000Y-167216000D01*
X172116000Y-165438000D02*
X172116000Y-167216000D01*
D10*
X174000000Y-165000000D02*
X174000000Y-38000000D01*
D11*
X102336779Y-164346009D02*
X102670112Y-164346009D01*
X102812969Y-164869819D02*
X102336779Y-164869819D01*
X102336779Y-164869819D02*
X102336779Y-163869819D01*
X102336779Y-163869819D02*
X102812969Y-163869819D01*
X103670112Y-164869819D02*
X103670112Y-163869819D01*
X103670112Y-164822200D02*
X103574874Y-164869819D01*
X103574874Y-164869819D02*
X103384398Y-164869819D01*
X103384398Y-164869819D02*
X103289160Y-164822200D01*
X103289160Y-164822200D02*
X103241541Y-164774580D01*
X103241541Y-164774580D02*
X103193922Y-164679342D01*
X103193922Y-164679342D02*
X103193922Y-164393628D01*
X103193922Y-164393628D02*
X103241541Y-164298390D01*
X103241541Y-164298390D02*
X103289160Y-164250771D01*
X103289160Y-164250771D02*
X103384398Y-164203152D01*
X103384398Y-164203152D02*
X103574874Y-164203152D01*
X103574874Y-164203152D02*
X103670112Y-164250771D01*
X104574874Y-164203152D02*
X104574874Y-165012676D01*
X104574874Y-165012676D02*
X104527255Y-165107914D01*
X104527255Y-165107914D02*
X104479636Y-165155533D01*
X104479636Y-165155533D02*
X104384398Y-165203152D01*
X104384398Y-165203152D02*
X104241541Y-165203152D01*
X104241541Y-165203152D02*
X104146303Y-165155533D01*
X104574874Y-164822200D02*
X104479636Y-164869819D01*
X104479636Y-164869819D02*
X104289160Y-164869819D01*
X104289160Y-164869819D02*
X104193922Y-164822200D01*
X104193922Y-164822200D02*
X104146303Y-164774580D01*
X104146303Y-164774580D02*
X104098684Y-164679342D01*
X104098684Y-164679342D02*
X104098684Y-164393628D01*
X104098684Y-164393628D02*
X104146303Y-164298390D01*
X104146303Y-164298390D02*
X104193922Y-164250771D01*
X104193922Y-164250771D02*
X104289160Y-164203152D01*
X104289160Y-164203152D02*
X104479636Y-164203152D01*
X104479636Y-164203152D02*
X104574874Y-164250771D01*
X105432017Y-164822200D02*
X105336779Y-164869819D01*
X105336779Y-164869819D02*
X105146303Y-164869819D01*
X105146303Y-164869819D02*
X105051065Y-164822200D01*
X105051065Y-164822200D02*
X105003446Y-164726961D01*
X105003446Y-164726961D02*
X105003446Y-164346009D01*
X105003446Y-164346009D02*
X105051065Y-164250771D01*
X105051065Y-164250771D02*
X105146303Y-164203152D01*
X105146303Y-164203152D02*
X105336779Y-164203152D01*
X105336779Y-164203152D02*
X105432017Y-164250771D01*
X105432017Y-164250771D02*
X105479636Y-164346009D01*
X105479636Y-164346009D02*
X105479636Y-164441247D01*
X105479636Y-164441247D02*
X105003446Y-164536485D01*
X107241541Y-164774580D02*
X107193922Y-164822200D01*
X107193922Y-164822200D02*
X107051065Y-164869819D01*
X107051065Y-164869819D02*
X106955827Y-164869819D01*
X106955827Y-164869819D02*
X106812970Y-164822200D01*
X106812970Y-164822200D02*
X106717732Y-164726961D01*
X106717732Y-164726961D02*
X106670113Y-164631723D01*
X106670113Y-164631723D02*
X106622494Y-164441247D01*
X106622494Y-164441247D02*
X106622494Y-164298390D01*
X106622494Y-164298390D02*
X106670113Y-164107914D01*
X106670113Y-164107914D02*
X106717732Y-164012676D01*
X106717732Y-164012676D02*
X106812970Y-163917438D01*
X106812970Y-163917438D02*
X106955827Y-163869819D01*
X106955827Y-163869819D02*
X107051065Y-163869819D01*
X107051065Y-163869819D02*
X107193922Y-163917438D01*
X107193922Y-163917438D02*
X107241541Y-163965057D01*
X107812970Y-164869819D02*
X107717732Y-164822200D01*
X107717732Y-164822200D02*
X107670113Y-164726961D01*
X107670113Y-164726961D02*
X107670113Y-163869819D01*
X108574875Y-164822200D02*
X108479637Y-164869819D01*
X108479637Y-164869819D02*
X108289161Y-164869819D01*
X108289161Y-164869819D02*
X108193923Y-164822200D01*
X108193923Y-164822200D02*
X108146304Y-164726961D01*
X108146304Y-164726961D02*
X108146304Y-164346009D01*
X108146304Y-164346009D02*
X108193923Y-164250771D01*
X108193923Y-164250771D02*
X108289161Y-164203152D01*
X108289161Y-164203152D02*
X108479637Y-164203152D01*
X108479637Y-164203152D02*
X108574875Y-164250771D01*
X108574875Y-164250771D02*
X108622494Y-164346009D01*
X108622494Y-164346009D02*
X108622494Y-164441247D01*
X108622494Y-164441247D02*
X108146304Y-164536485D01*
X109479637Y-164869819D02*
X109479637Y-164346009D01*
X109479637Y-164346009D02*
X109432018Y-164250771D01*
X109432018Y-164250771D02*
X109336780Y-164203152D01*
X109336780Y-164203152D02*
X109146304Y-164203152D01*
X109146304Y-164203152D02*
X109051066Y-164250771D01*
X109479637Y-164822200D02*
X109384399Y-164869819D01*
X109384399Y-164869819D02*
X109146304Y-164869819D01*
X109146304Y-164869819D02*
X109051066Y-164822200D01*
X109051066Y-164822200D02*
X109003447Y-164726961D01*
X109003447Y-164726961D02*
X109003447Y-164631723D01*
X109003447Y-164631723D02*
X109051066Y-164536485D01*
X109051066Y-164536485D02*
X109146304Y-164488866D01*
X109146304Y-164488866D02*
X109384399Y-164488866D01*
X109384399Y-164488866D02*
X109479637Y-164441247D01*
X109955828Y-164869819D02*
X109955828Y-164203152D01*
X109955828Y-164393628D02*
X110003447Y-164298390D01*
X110003447Y-164298390D02*
X110051066Y-164250771D01*
X110051066Y-164250771D02*
X110146304Y-164203152D01*
X110146304Y-164203152D02*
X110241542Y-164203152D01*
X111003447Y-164869819D02*
X111003447Y-164346009D01*
X111003447Y-164346009D02*
X110955828Y-164250771D01*
X110955828Y-164250771D02*
X110860590Y-164203152D01*
X110860590Y-164203152D02*
X110670114Y-164203152D01*
X110670114Y-164203152D02*
X110574876Y-164250771D01*
X111003447Y-164822200D02*
X110908209Y-164869819D01*
X110908209Y-164869819D02*
X110670114Y-164869819D01*
X110670114Y-164869819D02*
X110574876Y-164822200D01*
X110574876Y-164822200D02*
X110527257Y-164726961D01*
X110527257Y-164726961D02*
X110527257Y-164631723D01*
X110527257Y-164631723D02*
X110574876Y-164536485D01*
X110574876Y-164536485D02*
X110670114Y-164488866D01*
X110670114Y-164488866D02*
X110908209Y-164488866D01*
X110908209Y-164488866D02*
X111003447Y-164441247D01*
X111479638Y-164203152D02*
X111479638Y-164869819D01*
X111479638Y-164298390D02*
X111527257Y-164250771D01*
X111527257Y-164250771D02*
X111622495Y-164203152D01*
X111622495Y-164203152D02*
X111765352Y-164203152D01*
X111765352Y-164203152D02*
X111860590Y-164250771D01*
X111860590Y-164250771D02*
X111908209Y-164346009D01*
X111908209Y-164346009D02*
X111908209Y-164869819D01*
X112812971Y-164822200D02*
X112717733Y-164869819D01*
X112717733Y-164869819D02*
X112527257Y-164869819D01*
X112527257Y-164869819D02*
X112432019Y-164822200D01*
X112432019Y-164822200D02*
X112384400Y-164774580D01*
X112384400Y-164774580D02*
X112336781Y-164679342D01*
X112336781Y-164679342D02*
X112336781Y-164393628D01*
X112336781Y-164393628D02*
X112384400Y-164298390D01*
X112384400Y-164298390D02*
X112432019Y-164250771D01*
X112432019Y-164250771D02*
X112527257Y-164203152D01*
X112527257Y-164203152D02*
X112717733Y-164203152D01*
X112717733Y-164203152D02*
X112812971Y-164250771D01*
X113622495Y-164822200D02*
X113527257Y-164869819D01*
X113527257Y-164869819D02*
X113336781Y-164869819D01*
X113336781Y-164869819D02*
X113241543Y-164822200D01*
X113241543Y-164822200D02*
X113193924Y-164726961D01*
X113193924Y-164726961D02*
X113193924Y-164346009D01*
X113193924Y-164346009D02*
X113241543Y-164250771D01*
X113241543Y-164250771D02*
X113336781Y-164203152D01*
X113336781Y-164203152D02*
X113527257Y-164203152D01*
X113527257Y-164203152D02*
X113622495Y-164250771D01*
X113622495Y-164250771D02*
X113670114Y-164346009D01*
X113670114Y-164346009D02*
X113670114Y-164441247D01*
X113670114Y-164441247D02*
X113193924Y-164536485D01*
X118636779Y-170059875D02*
X118636779Y-169059875D01*
X118636779Y-169059875D02*
X119208207Y-170059875D01*
X119208207Y-170059875D02*
X119208207Y-169059875D01*
X119827255Y-170059875D02*
X119732017Y-170012256D01*
X119732017Y-170012256D02*
X119684398Y-169964636D01*
X119684398Y-169964636D02*
X119636779Y-169869398D01*
X119636779Y-169869398D02*
X119636779Y-169583684D01*
X119636779Y-169583684D02*
X119684398Y-169488446D01*
X119684398Y-169488446D02*
X119732017Y-169440827D01*
X119732017Y-169440827D02*
X119827255Y-169393208D01*
X119827255Y-169393208D02*
X119970112Y-169393208D01*
X119970112Y-169393208D02*
X120065350Y-169440827D01*
X120065350Y-169440827D02*
X120112969Y-169488446D01*
X120112969Y-169488446D02*
X120160588Y-169583684D01*
X120160588Y-169583684D02*
X120160588Y-169869398D01*
X120160588Y-169869398D02*
X120112969Y-169964636D01*
X120112969Y-169964636D02*
X120065350Y-170012256D01*
X120065350Y-170012256D02*
X119970112Y-170059875D01*
X119970112Y-170059875D02*
X119827255Y-170059875D01*
X120446303Y-169393208D02*
X120827255Y-169393208D01*
X120589160Y-169059875D02*
X120589160Y-169917017D01*
X120589160Y-169917017D02*
X120636779Y-170012256D01*
X120636779Y-170012256D02*
X120732017Y-170059875D01*
X120732017Y-170059875D02*
X120827255Y-170059875D01*
X121541541Y-170012256D02*
X121446303Y-170059875D01*
X121446303Y-170059875D02*
X121255827Y-170059875D01*
X121255827Y-170059875D02*
X121160589Y-170012256D01*
X121160589Y-170012256D02*
X121112970Y-169917017D01*
X121112970Y-169917017D02*
X121112970Y-169536065D01*
X121112970Y-169536065D02*
X121160589Y-169440827D01*
X121160589Y-169440827D02*
X121255827Y-169393208D01*
X121255827Y-169393208D02*
X121446303Y-169393208D01*
X121446303Y-169393208D02*
X121541541Y-169440827D01*
X121541541Y-169440827D02*
X121589160Y-169536065D01*
X121589160Y-169536065D02*
X121589160Y-169631303D01*
X121589160Y-169631303D02*
X121112970Y-169726541D01*
X122017732Y-169964636D02*
X122065351Y-170012256D01*
X122065351Y-170012256D02*
X122017732Y-170059875D01*
X122017732Y-170059875D02*
X121970113Y-170012256D01*
X121970113Y-170012256D02*
X122017732Y-169964636D01*
X122017732Y-169964636D02*
X122017732Y-170059875D01*
X122017732Y-169440827D02*
X122065351Y-169488446D01*
X122065351Y-169488446D02*
X122017732Y-169536065D01*
X122017732Y-169536065D02*
X121970113Y-169488446D01*
X121970113Y-169488446D02*
X122017732Y-169440827D01*
X122017732Y-169440827D02*
X122017732Y-169536065D01*
X123208208Y-170012256D02*
X123351065Y-170059875D01*
X123351065Y-170059875D02*
X123589160Y-170059875D01*
X123589160Y-170059875D02*
X123684398Y-170012256D01*
X123684398Y-170012256D02*
X123732017Y-169964636D01*
X123732017Y-169964636D02*
X123779636Y-169869398D01*
X123779636Y-169869398D02*
X123779636Y-169774160D01*
X123779636Y-169774160D02*
X123732017Y-169678922D01*
X123732017Y-169678922D02*
X123684398Y-169631303D01*
X123684398Y-169631303D02*
X123589160Y-169583684D01*
X123589160Y-169583684D02*
X123398684Y-169536065D01*
X123398684Y-169536065D02*
X123303446Y-169488446D01*
X123303446Y-169488446D02*
X123255827Y-169440827D01*
X123255827Y-169440827D02*
X123208208Y-169345589D01*
X123208208Y-169345589D02*
X123208208Y-169250351D01*
X123208208Y-169250351D02*
X123255827Y-169155113D01*
X123255827Y-169155113D02*
X123303446Y-169107494D01*
X123303446Y-169107494D02*
X123398684Y-169059875D01*
X123398684Y-169059875D02*
X123636779Y-169059875D01*
X123636779Y-169059875D02*
X123779636Y-169107494D01*
X124208208Y-170059875D02*
X124208208Y-169059875D01*
X124208208Y-169059875D02*
X124541541Y-169774160D01*
X124541541Y-169774160D02*
X124874874Y-169059875D01*
X124874874Y-169059875D02*
X124874874Y-170059875D01*
X125303446Y-169774160D02*
X125779636Y-169774160D01*
X125208208Y-170059875D02*
X125541541Y-169059875D01*
X125541541Y-169059875D02*
X125874874Y-170059875D01*
X127398684Y-170012256D02*
X127303446Y-170059875D01*
X127303446Y-170059875D02*
X127112970Y-170059875D01*
X127112970Y-170059875D02*
X127017732Y-170012256D01*
X127017732Y-170012256D02*
X126970113Y-169964636D01*
X126970113Y-169964636D02*
X126922494Y-169869398D01*
X126922494Y-169869398D02*
X126922494Y-169583684D01*
X126922494Y-169583684D02*
X126970113Y-169488446D01*
X126970113Y-169488446D02*
X127017732Y-169440827D01*
X127017732Y-169440827D02*
X127112970Y-169393208D01*
X127112970Y-169393208D02*
X127303446Y-169393208D01*
X127303446Y-169393208D02*
X127398684Y-169440827D01*
X127970113Y-170059875D02*
X127874875Y-170012256D01*
X127874875Y-170012256D02*
X127827256Y-169964636D01*
X127827256Y-169964636D02*
X127779637Y-169869398D01*
X127779637Y-169869398D02*
X127779637Y-169583684D01*
X127779637Y-169583684D02*
X127827256Y-169488446D01*
X127827256Y-169488446D02*
X127874875Y-169440827D01*
X127874875Y-169440827D02*
X127970113Y-169393208D01*
X127970113Y-169393208D02*
X128112970Y-169393208D01*
X128112970Y-169393208D02*
X128208208Y-169440827D01*
X128208208Y-169440827D02*
X128255827Y-169488446D01*
X128255827Y-169488446D02*
X128303446Y-169583684D01*
X128303446Y-169583684D02*
X128303446Y-169869398D01*
X128303446Y-169869398D02*
X128255827Y-169964636D01*
X128255827Y-169964636D02*
X128208208Y-170012256D01*
X128208208Y-170012256D02*
X128112970Y-170059875D01*
X128112970Y-170059875D02*
X127970113Y-170059875D01*
X128732018Y-169393208D02*
X128732018Y-170059875D01*
X128732018Y-169488446D02*
X128779637Y-169440827D01*
X128779637Y-169440827D02*
X128874875Y-169393208D01*
X128874875Y-169393208D02*
X129017732Y-169393208D01*
X129017732Y-169393208D02*
X129112970Y-169440827D01*
X129112970Y-169440827D02*
X129160589Y-169536065D01*
X129160589Y-169536065D02*
X129160589Y-170059875D01*
X129636780Y-169393208D02*
X129636780Y-170059875D01*
X129636780Y-169488446D02*
X129684399Y-169440827D01*
X129684399Y-169440827D02*
X129779637Y-169393208D01*
X129779637Y-169393208D02*
X129922494Y-169393208D01*
X129922494Y-169393208D02*
X130017732Y-169440827D01*
X130017732Y-169440827D02*
X130065351Y-169536065D01*
X130065351Y-169536065D02*
X130065351Y-170059875D01*
X130922494Y-170012256D02*
X130827256Y-170059875D01*
X130827256Y-170059875D02*
X130636780Y-170059875D01*
X130636780Y-170059875D02*
X130541542Y-170012256D01*
X130541542Y-170012256D02*
X130493923Y-169917017D01*
X130493923Y-169917017D02*
X130493923Y-169536065D01*
X130493923Y-169536065D02*
X130541542Y-169440827D01*
X130541542Y-169440827D02*
X130636780Y-169393208D01*
X130636780Y-169393208D02*
X130827256Y-169393208D01*
X130827256Y-169393208D02*
X130922494Y-169440827D01*
X130922494Y-169440827D02*
X130970113Y-169536065D01*
X130970113Y-169536065D02*
X130970113Y-169631303D01*
X130970113Y-169631303D02*
X130493923Y-169726541D01*
X131827256Y-170012256D02*
X131732018Y-170059875D01*
X131732018Y-170059875D02*
X131541542Y-170059875D01*
X131541542Y-170059875D02*
X131446304Y-170012256D01*
X131446304Y-170012256D02*
X131398685Y-169964636D01*
X131398685Y-169964636D02*
X131351066Y-169869398D01*
X131351066Y-169869398D02*
X131351066Y-169583684D01*
X131351066Y-169583684D02*
X131398685Y-169488446D01*
X131398685Y-169488446D02*
X131446304Y-169440827D01*
X131446304Y-169440827D02*
X131541542Y-169393208D01*
X131541542Y-169393208D02*
X131732018Y-169393208D01*
X131732018Y-169393208D02*
X131827256Y-169440827D01*
X132112971Y-169393208D02*
X132493923Y-169393208D01*
X132255828Y-169059875D02*
X132255828Y-169917017D01*
X132255828Y-169917017D02*
X132303447Y-170012256D01*
X132303447Y-170012256D02*
X132398685Y-170059875D01*
X132398685Y-170059875D02*
X132493923Y-170059875D01*
X132970114Y-170059875D02*
X132874876Y-170012256D01*
X132874876Y-170012256D02*
X132827257Y-169964636D01*
X132827257Y-169964636D02*
X132779638Y-169869398D01*
X132779638Y-169869398D02*
X132779638Y-169583684D01*
X132779638Y-169583684D02*
X132827257Y-169488446D01*
X132827257Y-169488446D02*
X132874876Y-169440827D01*
X132874876Y-169440827D02*
X132970114Y-169393208D01*
X132970114Y-169393208D02*
X133112971Y-169393208D01*
X133112971Y-169393208D02*
X133208209Y-169440827D01*
X133208209Y-169440827D02*
X133255828Y-169488446D01*
X133255828Y-169488446D02*
X133303447Y-169583684D01*
X133303447Y-169583684D02*
X133303447Y-169869398D01*
X133303447Y-169869398D02*
X133255828Y-169964636D01*
X133255828Y-169964636D02*
X133208209Y-170012256D01*
X133208209Y-170012256D02*
X133112971Y-170059875D01*
X133112971Y-170059875D02*
X132970114Y-170059875D01*
X133732019Y-170059875D02*
X133732019Y-169393208D01*
X133732019Y-169583684D02*
X133779638Y-169488446D01*
X133779638Y-169488446D02*
X133827257Y-169440827D01*
X133827257Y-169440827D02*
X133922495Y-169393208D01*
X133922495Y-169393208D02*
X134017733Y-169393208D01*
X134303448Y-170012256D02*
X134398686Y-170059875D01*
X134398686Y-170059875D02*
X134589162Y-170059875D01*
X134589162Y-170059875D02*
X134684400Y-170012256D01*
X134684400Y-170012256D02*
X134732019Y-169917017D01*
X134732019Y-169917017D02*
X134732019Y-169869398D01*
X134732019Y-169869398D02*
X134684400Y-169774160D01*
X134684400Y-169774160D02*
X134589162Y-169726541D01*
X134589162Y-169726541D02*
X134446305Y-169726541D01*
X134446305Y-169726541D02*
X134351067Y-169678922D01*
X134351067Y-169678922D02*
X134303448Y-169583684D01*
X134303448Y-169583684D02*
X134303448Y-169536065D01*
X134303448Y-169536065D02*
X134351067Y-169440827D01*
X134351067Y-169440827D02*
X134446305Y-169393208D01*
X134446305Y-169393208D02*
X134589162Y-169393208D01*
X134589162Y-169393208D02*
X134684400Y-169440827D01*
X136303448Y-170012256D02*
X136208210Y-170059875D01*
X136208210Y-170059875D02*
X136017734Y-170059875D01*
X136017734Y-170059875D02*
X135922496Y-170012256D01*
X135922496Y-170012256D02*
X135874877Y-169917017D01*
X135874877Y-169917017D02*
X135874877Y-169536065D01*
X135874877Y-169536065D02*
X135922496Y-169440827D01*
X135922496Y-169440827D02*
X136017734Y-169393208D01*
X136017734Y-169393208D02*
X136208210Y-169393208D01*
X136208210Y-169393208D02*
X136303448Y-169440827D01*
X136303448Y-169440827D02*
X136351067Y-169536065D01*
X136351067Y-169536065D02*
X136351067Y-169631303D01*
X136351067Y-169631303D02*
X135874877Y-169726541D01*
X136684401Y-170059875D02*
X137208210Y-169393208D01*
X136684401Y-169393208D02*
X137208210Y-170059875D01*
X137446306Y-169393208D02*
X137827258Y-169393208D01*
X137589163Y-169059875D02*
X137589163Y-169917017D01*
X137589163Y-169917017D02*
X137636782Y-170012256D01*
X137636782Y-170012256D02*
X137732020Y-170059875D01*
X137732020Y-170059875D02*
X137827258Y-170059875D01*
X138541544Y-170012256D02*
X138446306Y-170059875D01*
X138446306Y-170059875D02*
X138255830Y-170059875D01*
X138255830Y-170059875D02*
X138160592Y-170012256D01*
X138160592Y-170012256D02*
X138112973Y-169917017D01*
X138112973Y-169917017D02*
X138112973Y-169536065D01*
X138112973Y-169536065D02*
X138160592Y-169440827D01*
X138160592Y-169440827D02*
X138255830Y-169393208D01*
X138255830Y-169393208D02*
X138446306Y-169393208D01*
X138446306Y-169393208D02*
X138541544Y-169440827D01*
X138541544Y-169440827D02*
X138589163Y-169536065D01*
X138589163Y-169536065D02*
X138589163Y-169631303D01*
X138589163Y-169631303D02*
X138112973Y-169726541D01*
X139017735Y-169393208D02*
X139017735Y-170059875D01*
X139017735Y-169488446D02*
X139065354Y-169440827D01*
X139065354Y-169440827D02*
X139160592Y-169393208D01*
X139160592Y-169393208D02*
X139303449Y-169393208D01*
X139303449Y-169393208D02*
X139398687Y-169440827D01*
X139398687Y-169440827D02*
X139446306Y-169536065D01*
X139446306Y-169536065D02*
X139446306Y-170059875D01*
X140351068Y-170059875D02*
X140351068Y-169059875D01*
X140351068Y-170012256D02*
X140255830Y-170059875D01*
X140255830Y-170059875D02*
X140065354Y-170059875D01*
X140065354Y-170059875D02*
X139970116Y-170012256D01*
X139970116Y-170012256D02*
X139922497Y-169964636D01*
X139922497Y-169964636D02*
X139874878Y-169869398D01*
X139874878Y-169869398D02*
X139874878Y-169583684D01*
X139874878Y-169583684D02*
X139922497Y-169488446D01*
X139922497Y-169488446D02*
X139970116Y-169440827D01*
X139970116Y-169440827D02*
X140065354Y-169393208D01*
X140065354Y-169393208D02*
X140255830Y-169393208D01*
X140255830Y-169393208D02*
X140351068Y-169440827D01*
X141779640Y-169059875D02*
X141874878Y-169059875D01*
X141874878Y-169059875D02*
X141970116Y-169107494D01*
X141970116Y-169107494D02*
X142017735Y-169155113D01*
X142017735Y-169155113D02*
X142065354Y-169250351D01*
X142065354Y-169250351D02*
X142112973Y-169440827D01*
X142112973Y-169440827D02*
X142112973Y-169678922D01*
X142112973Y-169678922D02*
X142065354Y-169869398D01*
X142065354Y-169869398D02*
X142017735Y-169964636D01*
X142017735Y-169964636D02*
X141970116Y-170012256D01*
X141970116Y-170012256D02*
X141874878Y-170059875D01*
X141874878Y-170059875D02*
X141779640Y-170059875D01*
X141779640Y-170059875D02*
X141684402Y-170012256D01*
X141684402Y-170012256D02*
X141636783Y-169964636D01*
X141636783Y-169964636D02*
X141589164Y-169869398D01*
X141589164Y-169869398D02*
X141541545Y-169678922D01*
X141541545Y-169678922D02*
X141541545Y-169440827D01*
X141541545Y-169440827D02*
X141589164Y-169250351D01*
X141589164Y-169250351D02*
X141636783Y-169155113D01*
X141636783Y-169155113D02*
X141684402Y-169107494D01*
X141684402Y-169107494D02*
X141779640Y-169059875D01*
X142541545Y-169964636D02*
X142589164Y-170012256D01*
X142589164Y-170012256D02*
X142541545Y-170059875D01*
X142541545Y-170059875D02*
X142493926Y-170012256D01*
X142493926Y-170012256D02*
X142541545Y-169964636D01*
X142541545Y-169964636D02*
X142541545Y-170059875D01*
X143446306Y-169059875D02*
X143255830Y-169059875D01*
X143255830Y-169059875D02*
X143160592Y-169107494D01*
X143160592Y-169107494D02*
X143112973Y-169155113D01*
X143112973Y-169155113D02*
X143017735Y-169297970D01*
X143017735Y-169297970D02*
X142970116Y-169488446D01*
X142970116Y-169488446D02*
X142970116Y-169869398D01*
X142970116Y-169869398D02*
X143017735Y-169964636D01*
X143017735Y-169964636D02*
X143065354Y-170012256D01*
X143065354Y-170012256D02*
X143160592Y-170059875D01*
X143160592Y-170059875D02*
X143351068Y-170059875D01*
X143351068Y-170059875D02*
X143446306Y-170012256D01*
X143446306Y-170012256D02*
X143493925Y-169964636D01*
X143493925Y-169964636D02*
X143541544Y-169869398D01*
X143541544Y-169869398D02*
X143541544Y-169631303D01*
X143541544Y-169631303D02*
X143493925Y-169536065D01*
X143493925Y-169536065D02*
X143446306Y-169488446D01*
X143446306Y-169488446D02*
X143351068Y-169440827D01*
X143351068Y-169440827D02*
X143160592Y-169440827D01*
X143160592Y-169440827D02*
X143065354Y-169488446D01*
X143065354Y-169488446D02*
X143017735Y-169536065D01*
X143017735Y-169536065D02*
X142970116Y-169631303D01*
X143970116Y-170059875D02*
X143970116Y-169393208D01*
X143970116Y-169488446D02*
X144017735Y-169440827D01*
X144017735Y-169440827D02*
X144112973Y-169393208D01*
X144112973Y-169393208D02*
X144255830Y-169393208D01*
X144255830Y-169393208D02*
X144351068Y-169440827D01*
X144351068Y-169440827D02*
X144398687Y-169536065D01*
X144398687Y-169536065D02*
X144398687Y-170059875D01*
X144398687Y-169536065D02*
X144446306Y-169440827D01*
X144446306Y-169440827D02*
X144541544Y-169393208D01*
X144541544Y-169393208D02*
X144684401Y-169393208D01*
X144684401Y-169393208D02*
X144779640Y-169440827D01*
X144779640Y-169440827D02*
X144827259Y-169536065D01*
X144827259Y-169536065D02*
X144827259Y-170059875D01*
X145303449Y-170059875D02*
X145303449Y-169393208D01*
X145303449Y-169488446D02*
X145351068Y-169440827D01*
X145351068Y-169440827D02*
X145446306Y-169393208D01*
X145446306Y-169393208D02*
X145589163Y-169393208D01*
X145589163Y-169393208D02*
X145684401Y-169440827D01*
X145684401Y-169440827D02*
X145732020Y-169536065D01*
X145732020Y-169536065D02*
X145732020Y-170059875D01*
X145732020Y-169536065D02*
X145779639Y-169440827D01*
X145779639Y-169440827D02*
X145874877Y-169393208D01*
X145874877Y-169393208D02*
X146017734Y-169393208D01*
X146017734Y-169393208D02*
X146112973Y-169440827D01*
X146112973Y-169440827D02*
X146160592Y-169536065D01*
X146160592Y-169536065D02*
X146160592Y-170059875D01*
X147255830Y-169393208D02*
X147636782Y-169393208D01*
X147398687Y-170059875D02*
X147398687Y-169202732D01*
X147398687Y-169202732D02*
X147446306Y-169107494D01*
X147446306Y-169107494D02*
X147541544Y-169059875D01*
X147541544Y-169059875D02*
X147636782Y-169059875D01*
X147970116Y-170059875D02*
X147970116Y-169393208D01*
X147970116Y-169583684D02*
X148017735Y-169488446D01*
X148017735Y-169488446D02*
X148065354Y-169440827D01*
X148065354Y-169440827D02*
X148160592Y-169393208D01*
X148160592Y-169393208D02*
X148255830Y-169393208D01*
X148732021Y-170059875D02*
X148636783Y-170012256D01*
X148636783Y-170012256D02*
X148589164Y-169964636D01*
X148589164Y-169964636D02*
X148541545Y-169869398D01*
X148541545Y-169869398D02*
X148541545Y-169583684D01*
X148541545Y-169583684D02*
X148589164Y-169488446D01*
X148589164Y-169488446D02*
X148636783Y-169440827D01*
X148636783Y-169440827D02*
X148732021Y-169393208D01*
X148732021Y-169393208D02*
X148874878Y-169393208D01*
X148874878Y-169393208D02*
X148970116Y-169440827D01*
X148970116Y-169440827D02*
X149017735Y-169488446D01*
X149017735Y-169488446D02*
X149065354Y-169583684D01*
X149065354Y-169583684D02*
X149065354Y-169869398D01*
X149065354Y-169869398D02*
X149017735Y-169964636D01*
X149017735Y-169964636D02*
X148970116Y-170012256D01*
X148970116Y-170012256D02*
X148874878Y-170059875D01*
X148874878Y-170059875D02*
X148732021Y-170059875D01*
X149493926Y-170059875D02*
X149493926Y-169393208D01*
X149493926Y-169488446D02*
X149541545Y-169440827D01*
X149541545Y-169440827D02*
X149636783Y-169393208D01*
X149636783Y-169393208D02*
X149779640Y-169393208D01*
X149779640Y-169393208D02*
X149874878Y-169440827D01*
X149874878Y-169440827D02*
X149922497Y-169536065D01*
X149922497Y-169536065D02*
X149922497Y-170059875D01*
X149922497Y-169536065D02*
X149970116Y-169440827D01*
X149970116Y-169440827D02*
X150065354Y-169393208D01*
X150065354Y-169393208D02*
X150208211Y-169393208D01*
X150208211Y-169393208D02*
X150303450Y-169440827D01*
X150303450Y-169440827D02*
X150351069Y-169536065D01*
X150351069Y-169536065D02*
X150351069Y-170059875D01*
X151589164Y-170059875D02*
X151589164Y-169059875D01*
X151589164Y-169440827D02*
X151684402Y-169393208D01*
X151684402Y-169393208D02*
X151874878Y-169393208D01*
X151874878Y-169393208D02*
X151970116Y-169440827D01*
X151970116Y-169440827D02*
X152017735Y-169488446D01*
X152017735Y-169488446D02*
X152065354Y-169583684D01*
X152065354Y-169583684D02*
X152065354Y-169869398D01*
X152065354Y-169869398D02*
X152017735Y-169964636D01*
X152017735Y-169964636D02*
X151970116Y-170012256D01*
X151970116Y-170012256D02*
X151874878Y-170059875D01*
X151874878Y-170059875D02*
X151684402Y-170059875D01*
X151684402Y-170059875D02*
X151589164Y-170012256D01*
X152636783Y-170059875D02*
X152541545Y-170012256D01*
X152541545Y-170012256D02*
X152493926Y-169964636D01*
X152493926Y-169964636D02*
X152446307Y-169869398D01*
X152446307Y-169869398D02*
X152446307Y-169583684D01*
X152446307Y-169583684D02*
X152493926Y-169488446D01*
X152493926Y-169488446D02*
X152541545Y-169440827D01*
X152541545Y-169440827D02*
X152636783Y-169393208D01*
X152636783Y-169393208D02*
X152779640Y-169393208D01*
X152779640Y-169393208D02*
X152874878Y-169440827D01*
X152874878Y-169440827D02*
X152922497Y-169488446D01*
X152922497Y-169488446D02*
X152970116Y-169583684D01*
X152970116Y-169583684D02*
X152970116Y-169869398D01*
X152970116Y-169869398D02*
X152922497Y-169964636D01*
X152922497Y-169964636D02*
X152874878Y-170012256D01*
X152874878Y-170012256D02*
X152779640Y-170059875D01*
X152779640Y-170059875D02*
X152636783Y-170059875D01*
X153827259Y-170059875D02*
X153827259Y-169536065D01*
X153827259Y-169536065D02*
X153779640Y-169440827D01*
X153779640Y-169440827D02*
X153684402Y-169393208D01*
X153684402Y-169393208D02*
X153493926Y-169393208D01*
X153493926Y-169393208D02*
X153398688Y-169440827D01*
X153827259Y-170012256D02*
X153732021Y-170059875D01*
X153732021Y-170059875D02*
X153493926Y-170059875D01*
X153493926Y-170059875D02*
X153398688Y-170012256D01*
X153398688Y-170012256D02*
X153351069Y-169917017D01*
X153351069Y-169917017D02*
X153351069Y-169821779D01*
X153351069Y-169821779D02*
X153398688Y-169726541D01*
X153398688Y-169726541D02*
X153493926Y-169678922D01*
X153493926Y-169678922D02*
X153732021Y-169678922D01*
X153732021Y-169678922D02*
X153827259Y-169631303D01*
X154303450Y-170059875D02*
X154303450Y-169393208D01*
X154303450Y-169583684D02*
X154351069Y-169488446D01*
X154351069Y-169488446D02*
X154398688Y-169440827D01*
X154398688Y-169440827D02*
X154493926Y-169393208D01*
X154493926Y-169393208D02*
X154589164Y-169393208D01*
X155351069Y-170059875D02*
X155351069Y-169059875D01*
X155351069Y-170012256D02*
X155255831Y-170059875D01*
X155255831Y-170059875D02*
X155065355Y-170059875D01*
X155065355Y-170059875D02*
X154970117Y-170012256D01*
X154970117Y-170012256D02*
X154922498Y-169964636D01*
X154922498Y-169964636D02*
X154874879Y-169869398D01*
X154874879Y-169869398D02*
X154874879Y-169583684D01*
X154874879Y-169583684D02*
X154922498Y-169488446D01*
X154922498Y-169488446D02*
X154970117Y-169440827D01*
X154970117Y-169440827D02*
X155065355Y-169393208D01*
X155065355Y-169393208D02*
X155255831Y-169393208D01*
X155255831Y-169393208D02*
X155351069Y-169440827D01*
X156970117Y-170012256D02*
X156874879Y-170059875D01*
X156874879Y-170059875D02*
X156684403Y-170059875D01*
X156684403Y-170059875D02*
X156589165Y-170012256D01*
X156589165Y-170012256D02*
X156541546Y-169917017D01*
X156541546Y-169917017D02*
X156541546Y-169536065D01*
X156541546Y-169536065D02*
X156589165Y-169440827D01*
X156589165Y-169440827D02*
X156684403Y-169393208D01*
X156684403Y-169393208D02*
X156874879Y-169393208D01*
X156874879Y-169393208D02*
X156970117Y-169440827D01*
X156970117Y-169440827D02*
X157017736Y-169536065D01*
X157017736Y-169536065D02*
X157017736Y-169631303D01*
X157017736Y-169631303D02*
X156541546Y-169726541D01*
X157874879Y-170059875D02*
X157874879Y-169059875D01*
X157874879Y-170012256D02*
X157779641Y-170059875D01*
X157779641Y-170059875D02*
X157589165Y-170059875D01*
X157589165Y-170059875D02*
X157493927Y-170012256D01*
X157493927Y-170012256D02*
X157446308Y-169964636D01*
X157446308Y-169964636D02*
X157398689Y-169869398D01*
X157398689Y-169869398D02*
X157398689Y-169583684D01*
X157398689Y-169583684D02*
X157446308Y-169488446D01*
X157446308Y-169488446D02*
X157493927Y-169440827D01*
X157493927Y-169440827D02*
X157589165Y-169393208D01*
X157589165Y-169393208D02*
X157779641Y-169393208D01*
X157779641Y-169393208D02*
X157874879Y-169440827D01*
X158779641Y-169393208D02*
X158779641Y-170202732D01*
X158779641Y-170202732D02*
X158732022Y-170297970D01*
X158732022Y-170297970D02*
X158684403Y-170345589D01*
X158684403Y-170345589D02*
X158589165Y-170393208D01*
X158589165Y-170393208D02*
X158446308Y-170393208D01*
X158446308Y-170393208D02*
X158351070Y-170345589D01*
X158779641Y-170012256D02*
X158684403Y-170059875D01*
X158684403Y-170059875D02*
X158493927Y-170059875D01*
X158493927Y-170059875D02*
X158398689Y-170012256D01*
X158398689Y-170012256D02*
X158351070Y-169964636D01*
X158351070Y-169964636D02*
X158303451Y-169869398D01*
X158303451Y-169869398D02*
X158303451Y-169583684D01*
X158303451Y-169583684D02*
X158351070Y-169488446D01*
X158351070Y-169488446D02*
X158398689Y-169440827D01*
X158398689Y-169440827D02*
X158493927Y-169393208D01*
X158493927Y-169393208D02*
X158684403Y-169393208D01*
X158684403Y-169393208D02*
X158779641Y-169440827D01*
X159636784Y-170012256D02*
X159541546Y-170059875D01*
X159541546Y-170059875D02*
X159351070Y-170059875D01*
X159351070Y-170059875D02*
X159255832Y-170012256D01*
X159255832Y-170012256D02*
X159208213Y-169917017D01*
X159208213Y-169917017D02*
X159208213Y-169536065D01*
X159208213Y-169536065D02*
X159255832Y-169440827D01*
X159255832Y-169440827D02*
X159351070Y-169393208D01*
X159351070Y-169393208D02*
X159541546Y-169393208D01*
X159541546Y-169393208D02*
X159636784Y-169440827D01*
X159636784Y-169440827D02*
X159684403Y-169536065D01*
X159684403Y-169536065D02*
X159684403Y-169631303D01*
X159684403Y-169631303D02*
X159208213Y-169726541D01*
X160160594Y-170012256D02*
X160160594Y-170059875D01*
X160160594Y-170059875D02*
X160112975Y-170155113D01*
X160112975Y-170155113D02*
X160065356Y-170202732D01*
X118684398Y-171669819D02*
X118874874Y-171669819D01*
X118874874Y-171669819D02*
X118970112Y-171622200D01*
X118970112Y-171622200D02*
X119017731Y-171574580D01*
X119017731Y-171574580D02*
X119112969Y-171431723D01*
X119112969Y-171431723D02*
X119160588Y-171241247D01*
X119160588Y-171241247D02*
X119160588Y-170860295D01*
X119160588Y-170860295D02*
X119112969Y-170765057D01*
X119112969Y-170765057D02*
X119065350Y-170717438D01*
X119065350Y-170717438D02*
X118970112Y-170669819D01*
X118970112Y-170669819D02*
X118779636Y-170669819D01*
X118779636Y-170669819D02*
X118684398Y-170717438D01*
X118684398Y-170717438D02*
X118636779Y-170765057D01*
X118636779Y-170765057D02*
X118589160Y-170860295D01*
X118589160Y-170860295D02*
X118589160Y-171098390D01*
X118589160Y-171098390D02*
X118636779Y-171193628D01*
X118636779Y-171193628D02*
X118684398Y-171241247D01*
X118684398Y-171241247D02*
X118779636Y-171288866D01*
X118779636Y-171288866D02*
X118970112Y-171288866D01*
X118970112Y-171288866D02*
X119065350Y-171241247D01*
X119065350Y-171241247D02*
X119112969Y-171193628D01*
X119112969Y-171193628D02*
X119160588Y-171098390D01*
X119636779Y-171669819D02*
X119827255Y-171669819D01*
X119827255Y-171669819D02*
X119922493Y-171622200D01*
X119922493Y-171622200D02*
X119970112Y-171574580D01*
X119970112Y-171574580D02*
X120065350Y-171431723D01*
X120065350Y-171431723D02*
X120112969Y-171241247D01*
X120112969Y-171241247D02*
X120112969Y-170860295D01*
X120112969Y-170860295D02*
X120065350Y-170765057D01*
X120065350Y-170765057D02*
X120017731Y-170717438D01*
X120017731Y-170717438D02*
X119922493Y-170669819D01*
X119922493Y-170669819D02*
X119732017Y-170669819D01*
X119732017Y-170669819D02*
X119636779Y-170717438D01*
X119636779Y-170717438D02*
X119589160Y-170765057D01*
X119589160Y-170765057D02*
X119541541Y-170860295D01*
X119541541Y-170860295D02*
X119541541Y-171098390D01*
X119541541Y-171098390D02*
X119589160Y-171193628D01*
X119589160Y-171193628D02*
X119636779Y-171241247D01*
X119636779Y-171241247D02*
X119732017Y-171288866D01*
X119732017Y-171288866D02*
X119922493Y-171288866D01*
X119922493Y-171288866D02*
X120017731Y-171241247D01*
X120017731Y-171241247D02*
X120065350Y-171193628D01*
X120065350Y-171193628D02*
X120112969Y-171098390D01*
X120541541Y-171574580D02*
X120589160Y-171622200D01*
X120589160Y-171622200D02*
X120541541Y-171669819D01*
X120541541Y-171669819D02*
X120493922Y-171622200D01*
X120493922Y-171622200D02*
X120541541Y-171574580D01*
X120541541Y-171574580D02*
X120541541Y-171669819D01*
X121446302Y-171003152D02*
X121446302Y-171669819D01*
X121208207Y-170622200D02*
X120970112Y-171336485D01*
X120970112Y-171336485D02*
X121589159Y-171336485D01*
X121970112Y-171669819D02*
X121970112Y-171003152D01*
X121970112Y-171098390D02*
X122017731Y-171050771D01*
X122017731Y-171050771D02*
X122112969Y-171003152D01*
X122112969Y-171003152D02*
X122255826Y-171003152D01*
X122255826Y-171003152D02*
X122351064Y-171050771D01*
X122351064Y-171050771D02*
X122398683Y-171146009D01*
X122398683Y-171146009D02*
X122398683Y-171669819D01*
X122398683Y-171146009D02*
X122446302Y-171050771D01*
X122446302Y-171050771D02*
X122541540Y-171003152D01*
X122541540Y-171003152D02*
X122684397Y-171003152D01*
X122684397Y-171003152D02*
X122779636Y-171050771D01*
X122779636Y-171050771D02*
X122827255Y-171146009D01*
X122827255Y-171146009D02*
X122827255Y-171669819D01*
X123303445Y-171669819D02*
X123303445Y-171003152D01*
X123303445Y-171098390D02*
X123351064Y-171050771D01*
X123351064Y-171050771D02*
X123446302Y-171003152D01*
X123446302Y-171003152D02*
X123589159Y-171003152D01*
X123589159Y-171003152D02*
X123684397Y-171050771D01*
X123684397Y-171050771D02*
X123732016Y-171146009D01*
X123732016Y-171146009D02*
X123732016Y-171669819D01*
X123732016Y-171146009D02*
X123779635Y-171050771D01*
X123779635Y-171050771D02*
X123874873Y-171003152D01*
X123874873Y-171003152D02*
X124017730Y-171003152D01*
X124017730Y-171003152D02*
X124112969Y-171050771D01*
X124112969Y-171050771D02*
X124160588Y-171146009D01*
X124160588Y-171146009D02*
X124160588Y-171669819D01*
X125398683Y-171288866D02*
X126160588Y-171288866D01*
X125779635Y-171669819D02*
X125779635Y-170907914D01*
X127589159Y-170669819D02*
X127684397Y-170669819D01*
X127684397Y-170669819D02*
X127779635Y-170717438D01*
X127779635Y-170717438D02*
X127827254Y-170765057D01*
X127827254Y-170765057D02*
X127874873Y-170860295D01*
X127874873Y-170860295D02*
X127922492Y-171050771D01*
X127922492Y-171050771D02*
X127922492Y-171288866D01*
X127922492Y-171288866D02*
X127874873Y-171479342D01*
X127874873Y-171479342D02*
X127827254Y-171574580D01*
X127827254Y-171574580D02*
X127779635Y-171622200D01*
X127779635Y-171622200D02*
X127684397Y-171669819D01*
X127684397Y-171669819D02*
X127589159Y-171669819D01*
X127589159Y-171669819D02*
X127493921Y-171622200D01*
X127493921Y-171622200D02*
X127446302Y-171574580D01*
X127446302Y-171574580D02*
X127398683Y-171479342D01*
X127398683Y-171479342D02*
X127351064Y-171288866D01*
X127351064Y-171288866D02*
X127351064Y-171050771D01*
X127351064Y-171050771D02*
X127398683Y-170860295D01*
X127398683Y-170860295D02*
X127446302Y-170765057D01*
X127446302Y-170765057D02*
X127493921Y-170717438D01*
X127493921Y-170717438D02*
X127589159Y-170669819D01*
X128351064Y-171574580D02*
X128398683Y-171622200D01*
X128398683Y-171622200D02*
X128351064Y-171669819D01*
X128351064Y-171669819D02*
X128303445Y-171622200D01*
X128303445Y-171622200D02*
X128351064Y-171574580D01*
X128351064Y-171574580D02*
X128351064Y-171669819D01*
X129255825Y-170669819D02*
X129065349Y-170669819D01*
X129065349Y-170669819D02*
X128970111Y-170717438D01*
X128970111Y-170717438D02*
X128922492Y-170765057D01*
X128922492Y-170765057D02*
X128827254Y-170907914D01*
X128827254Y-170907914D02*
X128779635Y-171098390D01*
X128779635Y-171098390D02*
X128779635Y-171479342D01*
X128779635Y-171479342D02*
X128827254Y-171574580D01*
X128827254Y-171574580D02*
X128874873Y-171622200D01*
X128874873Y-171622200D02*
X128970111Y-171669819D01*
X128970111Y-171669819D02*
X129160587Y-171669819D01*
X129160587Y-171669819D02*
X129255825Y-171622200D01*
X129255825Y-171622200D02*
X129303444Y-171574580D01*
X129303444Y-171574580D02*
X129351063Y-171479342D01*
X129351063Y-171479342D02*
X129351063Y-171241247D01*
X129351063Y-171241247D02*
X129303444Y-171146009D01*
X129303444Y-171146009D02*
X129255825Y-171098390D01*
X129255825Y-171098390D02*
X129160587Y-171050771D01*
X129160587Y-171050771D02*
X128970111Y-171050771D01*
X128970111Y-171050771D02*
X128874873Y-171098390D01*
X128874873Y-171098390D02*
X128827254Y-171146009D01*
X128827254Y-171146009D02*
X128779635Y-171241247D01*
X129779635Y-171669819D02*
X129779635Y-171003152D01*
X129779635Y-171098390D02*
X129827254Y-171050771D01*
X129827254Y-171050771D02*
X129922492Y-171003152D01*
X129922492Y-171003152D02*
X130065349Y-171003152D01*
X130065349Y-171003152D02*
X130160587Y-171050771D01*
X130160587Y-171050771D02*
X130208206Y-171146009D01*
X130208206Y-171146009D02*
X130208206Y-171669819D01*
X130208206Y-171146009D02*
X130255825Y-171050771D01*
X130255825Y-171050771D02*
X130351063Y-171003152D01*
X130351063Y-171003152D02*
X130493920Y-171003152D01*
X130493920Y-171003152D02*
X130589159Y-171050771D01*
X130589159Y-171050771D02*
X130636778Y-171146009D01*
X130636778Y-171146009D02*
X130636778Y-171669819D01*
X131112968Y-171669819D02*
X131112968Y-171003152D01*
X131112968Y-171098390D02*
X131160587Y-171050771D01*
X131160587Y-171050771D02*
X131255825Y-171003152D01*
X131255825Y-171003152D02*
X131398682Y-171003152D01*
X131398682Y-171003152D02*
X131493920Y-171050771D01*
X131493920Y-171050771D02*
X131541539Y-171146009D01*
X131541539Y-171146009D02*
X131541539Y-171669819D01*
X131541539Y-171146009D02*
X131589158Y-171050771D01*
X131589158Y-171050771D02*
X131684396Y-171003152D01*
X131684396Y-171003152D02*
X131827253Y-171003152D01*
X131827253Y-171003152D02*
X131922492Y-171050771D01*
X131922492Y-171050771D02*
X131970111Y-171146009D01*
X131970111Y-171146009D02*
X131970111Y-171669819D01*
X133208206Y-171146009D02*
X133970111Y-171146009D01*
X133970111Y-171431723D02*
X133208206Y-171431723D01*
X135732015Y-171669819D02*
X135160587Y-171669819D01*
X135446301Y-171669819D02*
X135446301Y-170669819D01*
X135446301Y-170669819D02*
X135351063Y-170812676D01*
X135351063Y-170812676D02*
X135255825Y-170907914D01*
X135255825Y-170907914D02*
X135160587Y-170955533D01*
X136351063Y-170669819D02*
X136446301Y-170669819D01*
X136446301Y-170669819D02*
X136541539Y-170717438D01*
X136541539Y-170717438D02*
X136589158Y-170765057D01*
X136589158Y-170765057D02*
X136636777Y-170860295D01*
X136636777Y-170860295D02*
X136684396Y-171050771D01*
X136684396Y-171050771D02*
X136684396Y-171288866D01*
X136684396Y-171288866D02*
X136636777Y-171479342D01*
X136636777Y-171479342D02*
X136589158Y-171574580D01*
X136589158Y-171574580D02*
X136541539Y-171622200D01*
X136541539Y-171622200D02*
X136446301Y-171669819D01*
X136446301Y-171669819D02*
X136351063Y-171669819D01*
X136351063Y-171669819D02*
X136255825Y-171622200D01*
X136255825Y-171622200D02*
X136208206Y-171574580D01*
X136208206Y-171574580D02*
X136160587Y-171479342D01*
X136160587Y-171479342D02*
X136112968Y-171288866D01*
X136112968Y-171288866D02*
X136112968Y-171050771D01*
X136112968Y-171050771D02*
X136160587Y-170860295D01*
X136160587Y-170860295D02*
X136208206Y-170765057D01*
X136208206Y-170765057D02*
X136255825Y-170717438D01*
X136255825Y-170717438D02*
X136351063Y-170669819D01*
X137303444Y-170669819D02*
X137398682Y-170669819D01*
X137398682Y-170669819D02*
X137493920Y-170717438D01*
X137493920Y-170717438D02*
X137541539Y-170765057D01*
X137541539Y-170765057D02*
X137589158Y-170860295D01*
X137589158Y-170860295D02*
X137636777Y-171050771D01*
X137636777Y-171050771D02*
X137636777Y-171288866D01*
X137636777Y-171288866D02*
X137589158Y-171479342D01*
X137589158Y-171479342D02*
X137541539Y-171574580D01*
X137541539Y-171574580D02*
X137493920Y-171622200D01*
X137493920Y-171622200D02*
X137398682Y-171669819D01*
X137398682Y-171669819D02*
X137303444Y-171669819D01*
X137303444Y-171669819D02*
X137208206Y-171622200D01*
X137208206Y-171622200D02*
X137160587Y-171574580D01*
X137160587Y-171574580D02*
X137112968Y-171479342D01*
X137112968Y-171479342D02*
X137065349Y-171288866D01*
X137065349Y-171288866D02*
X137065349Y-171050771D01*
X137065349Y-171050771D02*
X137112968Y-170860295D01*
X137112968Y-170860295D02*
X137160587Y-170765057D01*
X137160587Y-170765057D02*
X137208206Y-170717438D01*
X137208206Y-170717438D02*
X137303444Y-170669819D01*
X138065349Y-171669819D02*
X138065349Y-171003152D01*
X138065349Y-171098390D02*
X138112968Y-171050771D01*
X138112968Y-171050771D02*
X138208206Y-171003152D01*
X138208206Y-171003152D02*
X138351063Y-171003152D01*
X138351063Y-171003152D02*
X138446301Y-171050771D01*
X138446301Y-171050771D02*
X138493920Y-171146009D01*
X138493920Y-171146009D02*
X138493920Y-171669819D01*
X138493920Y-171146009D02*
X138541539Y-171050771D01*
X138541539Y-171050771D02*
X138636777Y-171003152D01*
X138636777Y-171003152D02*
X138779634Y-171003152D01*
X138779634Y-171003152D02*
X138874873Y-171050771D01*
X138874873Y-171050771D02*
X138922492Y-171146009D01*
X138922492Y-171146009D02*
X138922492Y-171669819D01*
X139398682Y-171669819D02*
X139398682Y-171003152D01*
X139398682Y-171098390D02*
X139446301Y-171050771D01*
X139446301Y-171050771D02*
X139541539Y-171003152D01*
X139541539Y-171003152D02*
X139684396Y-171003152D01*
X139684396Y-171003152D02*
X139779634Y-171050771D01*
X139779634Y-171050771D02*
X139827253Y-171146009D01*
X139827253Y-171146009D02*
X139827253Y-171669819D01*
X139827253Y-171146009D02*
X139874872Y-171050771D01*
X139874872Y-171050771D02*
X139970110Y-171003152D01*
X139970110Y-171003152D02*
X140112967Y-171003152D01*
X140112967Y-171003152D02*
X140208206Y-171050771D01*
X140208206Y-171050771D02*
X140255825Y-171146009D01*
X140255825Y-171146009D02*
X140255825Y-171669819D01*
X138908207Y-164774580D02*
X138860588Y-164822200D01*
X138860588Y-164822200D02*
X138717731Y-164869819D01*
X138717731Y-164869819D02*
X138622493Y-164869819D01*
X138622493Y-164869819D02*
X138479636Y-164822200D01*
X138479636Y-164822200D02*
X138384398Y-164726961D01*
X138384398Y-164726961D02*
X138336779Y-164631723D01*
X138336779Y-164631723D02*
X138289160Y-164441247D01*
X138289160Y-164441247D02*
X138289160Y-164298390D01*
X138289160Y-164298390D02*
X138336779Y-164107914D01*
X138336779Y-164107914D02*
X138384398Y-164012676D01*
X138384398Y-164012676D02*
X138479636Y-163917438D01*
X138479636Y-163917438D02*
X138622493Y-163869819D01*
X138622493Y-163869819D02*
X138717731Y-163869819D01*
X138717731Y-163869819D02*
X138860588Y-163917438D01*
X138860588Y-163917438D02*
X138908207Y-163965057D01*
X139717731Y-164822200D02*
X139622493Y-164869819D01*
X139622493Y-164869819D02*
X139432017Y-164869819D01*
X139432017Y-164869819D02*
X139336779Y-164822200D01*
X139336779Y-164822200D02*
X139289160Y-164726961D01*
X139289160Y-164726961D02*
X139289160Y-164346009D01*
X139289160Y-164346009D02*
X139336779Y-164250771D01*
X139336779Y-164250771D02*
X139432017Y-164203152D01*
X139432017Y-164203152D02*
X139622493Y-164203152D01*
X139622493Y-164203152D02*
X139717731Y-164250771D01*
X139717731Y-164250771D02*
X139765350Y-164346009D01*
X139765350Y-164346009D02*
X139765350Y-164441247D01*
X139765350Y-164441247D02*
X139289160Y-164536485D01*
X140193922Y-164203152D02*
X140193922Y-164869819D01*
X140193922Y-164298390D02*
X140241541Y-164250771D01*
X140241541Y-164250771D02*
X140336779Y-164203152D01*
X140336779Y-164203152D02*
X140479636Y-164203152D01*
X140479636Y-164203152D02*
X140574874Y-164250771D01*
X140574874Y-164250771D02*
X140622493Y-164346009D01*
X140622493Y-164346009D02*
X140622493Y-164869819D01*
X140955827Y-164203152D02*
X141336779Y-164203152D01*
X141098684Y-163869819D02*
X141098684Y-164726961D01*
X141098684Y-164726961D02*
X141146303Y-164822200D01*
X141146303Y-164822200D02*
X141241541Y-164869819D01*
X141241541Y-164869819D02*
X141336779Y-164869819D01*
X142051065Y-164822200D02*
X141955827Y-164869819D01*
X141955827Y-164869819D02*
X141765351Y-164869819D01*
X141765351Y-164869819D02*
X141670113Y-164822200D01*
X141670113Y-164822200D02*
X141622494Y-164726961D01*
X141622494Y-164726961D02*
X141622494Y-164346009D01*
X141622494Y-164346009D02*
X141670113Y-164250771D01*
X141670113Y-164250771D02*
X141765351Y-164203152D01*
X141765351Y-164203152D02*
X141955827Y-164203152D01*
X141955827Y-164203152D02*
X142051065Y-164250771D01*
X142051065Y-164250771D02*
X142098684Y-164346009D01*
X142098684Y-164346009D02*
X142098684Y-164441247D01*
X142098684Y-164441247D02*
X141622494Y-164536485D01*
X142527256Y-164869819D02*
X142527256Y-164203152D01*
X142527256Y-164393628D02*
X142574875Y-164298390D01*
X142574875Y-164298390D02*
X142622494Y-164250771D01*
X142622494Y-164250771D02*
X142717732Y-164203152D01*
X142717732Y-164203152D02*
X142812970Y-164203152D01*
X174336779Y-164346009D02*
X174670112Y-164346009D01*
X174812969Y-164869819D02*
X174336779Y-164869819D01*
X174336779Y-164869819D02*
X174336779Y-163869819D01*
X174336779Y-163869819D02*
X174812969Y-163869819D01*
X175670112Y-164869819D02*
X175670112Y-163869819D01*
X175670112Y-164822200D02*
X175574874Y-164869819D01*
X175574874Y-164869819D02*
X175384398Y-164869819D01*
X175384398Y-164869819D02*
X175289160Y-164822200D01*
X175289160Y-164822200D02*
X175241541Y-164774580D01*
X175241541Y-164774580D02*
X175193922Y-164679342D01*
X175193922Y-164679342D02*
X175193922Y-164393628D01*
X175193922Y-164393628D02*
X175241541Y-164298390D01*
X175241541Y-164298390D02*
X175289160Y-164250771D01*
X175289160Y-164250771D02*
X175384398Y-164203152D01*
X175384398Y-164203152D02*
X175574874Y-164203152D01*
X175574874Y-164203152D02*
X175670112Y-164250771D01*
X176574874Y-164203152D02*
X176574874Y-165012676D01*
X176574874Y-165012676D02*
X176527255Y-165107914D01*
X176527255Y-165107914D02*
X176479636Y-165155533D01*
X176479636Y-165155533D02*
X176384398Y-165203152D01*
X176384398Y-165203152D02*
X176241541Y-165203152D01*
X176241541Y-165203152D02*
X176146303Y-165155533D01*
X176574874Y-164822200D02*
X176479636Y-164869819D01*
X176479636Y-164869819D02*
X176289160Y-164869819D01*
X176289160Y-164869819D02*
X176193922Y-164822200D01*
X176193922Y-164822200D02*
X176146303Y-164774580D01*
X176146303Y-164774580D02*
X176098684Y-164679342D01*
X176098684Y-164679342D02*
X176098684Y-164393628D01*
X176098684Y-164393628D02*
X176146303Y-164298390D01*
X176146303Y-164298390D02*
X176193922Y-164250771D01*
X176193922Y-164250771D02*
X176289160Y-164203152D01*
X176289160Y-164203152D02*
X176479636Y-164203152D01*
X176479636Y-164203152D02*
X176574874Y-164250771D01*
X177432017Y-164822200D02*
X177336779Y-164869819D01*
X177336779Y-164869819D02*
X177146303Y-164869819D01*
X177146303Y-164869819D02*
X177051065Y-164822200D01*
X177051065Y-164822200D02*
X177003446Y-164726961D01*
X177003446Y-164726961D02*
X177003446Y-164346009D01*
X177003446Y-164346009D02*
X177051065Y-164250771D01*
X177051065Y-164250771D02*
X177146303Y-164203152D01*
X177146303Y-164203152D02*
X177336779Y-164203152D01*
X177336779Y-164203152D02*
X177432017Y-164250771D01*
X177432017Y-164250771D02*
X177479636Y-164346009D01*
X177479636Y-164346009D02*
X177479636Y-164441247D01*
X177479636Y-164441247D02*
X177003446Y-164536485D01*
X179241541Y-164774580D02*
X179193922Y-164822200D01*
X179193922Y-164822200D02*
X179051065Y-164869819D01*
X179051065Y-164869819D02*
X178955827Y-164869819D01*
X178955827Y-164869819D02*
X178812970Y-164822200D01*
X178812970Y-164822200D02*
X178717732Y-164726961D01*
X178717732Y-164726961D02*
X178670113Y-164631723D01*
X178670113Y-164631723D02*
X178622494Y-164441247D01*
X178622494Y-164441247D02*
X178622494Y-164298390D01*
X178622494Y-164298390D02*
X178670113Y-164107914D01*
X178670113Y-164107914D02*
X178717732Y-164012676D01*
X178717732Y-164012676D02*
X178812970Y-163917438D01*
X178812970Y-163917438D02*
X178955827Y-163869819D01*
X178955827Y-163869819D02*
X179051065Y-163869819D01*
X179051065Y-163869819D02*
X179193922Y-163917438D01*
X179193922Y-163917438D02*
X179241541Y-163965057D01*
X179812970Y-164869819D02*
X179717732Y-164822200D01*
X179717732Y-164822200D02*
X179670113Y-164726961D01*
X179670113Y-164726961D02*
X179670113Y-163869819D01*
X180574875Y-164822200D02*
X180479637Y-164869819D01*
X180479637Y-164869819D02*
X180289161Y-164869819D01*
X180289161Y-164869819D02*
X180193923Y-164822200D01*
X180193923Y-164822200D02*
X180146304Y-164726961D01*
X180146304Y-164726961D02*
X180146304Y-164346009D01*
X180146304Y-164346009D02*
X180193923Y-164250771D01*
X180193923Y-164250771D02*
X180289161Y-164203152D01*
X180289161Y-164203152D02*
X180479637Y-164203152D01*
X180479637Y-164203152D02*
X180574875Y-164250771D01*
X180574875Y-164250771D02*
X180622494Y-164346009D01*
X180622494Y-164346009D02*
X180622494Y-164441247D01*
X180622494Y-164441247D02*
X180146304Y-164536485D01*
X181479637Y-164869819D02*
X181479637Y-164346009D01*
X181479637Y-164346009D02*
X181432018Y-164250771D01*
X181432018Y-164250771D02*
X181336780Y-164203152D01*
X181336780Y-164203152D02*
X181146304Y-164203152D01*
X181146304Y-164203152D02*
X181051066Y-164250771D01*
X181479637Y-164822200D02*
X181384399Y-164869819D01*
X181384399Y-164869819D02*
X181146304Y-164869819D01*
X181146304Y-164869819D02*
X181051066Y-164822200D01*
X181051066Y-164822200D02*
X181003447Y-164726961D01*
X181003447Y-164726961D02*
X181003447Y-164631723D01*
X181003447Y-164631723D02*
X181051066Y-164536485D01*
X181051066Y-164536485D02*
X181146304Y-164488866D01*
X181146304Y-164488866D02*
X181384399Y-164488866D01*
X181384399Y-164488866D02*
X181479637Y-164441247D01*
X181955828Y-164869819D02*
X181955828Y-164203152D01*
X181955828Y-164393628D02*
X182003447Y-164298390D01*
X182003447Y-164298390D02*
X182051066Y-164250771D01*
X182051066Y-164250771D02*
X182146304Y-164203152D01*
X182146304Y-164203152D02*
X182241542Y-164203152D01*
X183003447Y-164869819D02*
X183003447Y-164346009D01*
X183003447Y-164346009D02*
X182955828Y-164250771D01*
X182955828Y-164250771D02*
X182860590Y-164203152D01*
X182860590Y-164203152D02*
X182670114Y-164203152D01*
X182670114Y-164203152D02*
X182574876Y-164250771D01*
X183003447Y-164822200D02*
X182908209Y-164869819D01*
X182908209Y-164869819D02*
X182670114Y-164869819D01*
X182670114Y-164869819D02*
X182574876Y-164822200D01*
X182574876Y-164822200D02*
X182527257Y-164726961D01*
X182527257Y-164726961D02*
X182527257Y-164631723D01*
X182527257Y-164631723D02*
X182574876Y-164536485D01*
X182574876Y-164536485D02*
X182670114Y-164488866D01*
X182670114Y-164488866D02*
X182908209Y-164488866D01*
X182908209Y-164488866D02*
X183003447Y-164441247D01*
X183479638Y-164203152D02*
X183479638Y-164869819D01*
X183479638Y-164298390D02*
X183527257Y-164250771D01*
X183527257Y-164250771D02*
X183622495Y-164203152D01*
X183622495Y-164203152D02*
X183765352Y-164203152D01*
X183765352Y-164203152D02*
X183860590Y-164250771D01*
X183860590Y-164250771D02*
X183908209Y-164346009D01*
X183908209Y-164346009D02*
X183908209Y-164869819D01*
X184812971Y-164822200D02*
X184717733Y-164869819D01*
X184717733Y-164869819D02*
X184527257Y-164869819D01*
X184527257Y-164869819D02*
X184432019Y-164822200D01*
X184432019Y-164822200D02*
X184384400Y-164774580D01*
X184384400Y-164774580D02*
X184336781Y-164679342D01*
X184336781Y-164679342D02*
X184336781Y-164393628D01*
X184336781Y-164393628D02*
X184384400Y-164298390D01*
X184384400Y-164298390D02*
X184432019Y-164250771D01*
X184432019Y-164250771D02*
X184527257Y-164203152D01*
X184527257Y-164203152D02*
X184717733Y-164203152D01*
X184717733Y-164203152D02*
X184812971Y-164250771D01*
X185622495Y-164822200D02*
X185527257Y-164869819D01*
X185527257Y-164869819D02*
X185336781Y-164869819D01*
X185336781Y-164869819D02*
X185241543Y-164822200D01*
X185241543Y-164822200D02*
X185193924Y-164726961D01*
X185193924Y-164726961D02*
X185193924Y-164346009D01*
X185193924Y-164346009D02*
X185241543Y-164250771D01*
X185241543Y-164250771D02*
X185336781Y-164203152D01*
X185336781Y-164203152D02*
X185527257Y-164203152D01*
X185527257Y-164203152D02*
X185622495Y-164250771D01*
X185622495Y-164250771D02*
X185670114Y-164346009D01*
X185670114Y-164346009D02*
X185670114Y-164441247D01*
X185670114Y-164441247D02*
X185193924Y-164536485D01*
X132476190Y-161304819D02*
X131904762Y-161304819D01*
X132190476Y-161304819D02*
X132190476Y-160304819D01*
X132190476Y-160304819D02*
X132095238Y-160447676D01*
X132095238Y-160447676D02*
X132000000Y-160542914D01*
X132000000Y-160542914D02*
X131904762Y-160590533D01*
X133047619Y-160733390D02*
X132952381Y-160685771D01*
X132952381Y-160685771D02*
X132904762Y-160638152D01*
X132904762Y-160638152D02*
X132857143Y-160542914D01*
X132857143Y-160542914D02*
X132857143Y-160495295D01*
X132857143Y-160495295D02*
X132904762Y-160400057D01*
X132904762Y-160400057D02*
X132952381Y-160352438D01*
X132952381Y-160352438D02*
X133047619Y-160304819D01*
X133047619Y-160304819D02*
X133238095Y-160304819D01*
X133238095Y-160304819D02*
X133333333Y-160352438D01*
X133333333Y-160352438D02*
X133380952Y-160400057D01*
X133380952Y-160400057D02*
X133428571Y-160495295D01*
X133428571Y-160495295D02*
X133428571Y-160542914D01*
X133428571Y-160542914D02*
X133380952Y-160638152D01*
X133380952Y-160638152D02*
X133333333Y-160685771D01*
X133333333Y-160685771D02*
X133238095Y-160733390D01*
X133238095Y-160733390D02*
X133047619Y-160733390D01*
X133047619Y-160733390D02*
X132952381Y-160781009D01*
X132952381Y-160781009D02*
X132904762Y-160828628D01*
X132904762Y-160828628D02*
X132857143Y-160923866D01*
X132857143Y-160923866D02*
X132857143Y-161114342D01*
X132857143Y-161114342D02*
X132904762Y-161209580D01*
X132904762Y-161209580D02*
X132952381Y-161257200D01*
X132952381Y-161257200D02*
X133047619Y-161304819D01*
X133047619Y-161304819D02*
X133238095Y-161304819D01*
X133238095Y-161304819D02*
X133333333Y-161257200D01*
X133333333Y-161257200D02*
X133380952Y-161209580D01*
X133380952Y-161209580D02*
X133428571Y-161114342D01*
X133428571Y-161114342D02*
X133428571Y-160923866D01*
X133428571Y-160923866D02*
X133380952Y-160828628D01*
X133380952Y-160828628D02*
X133333333Y-160781009D01*
X133333333Y-160781009D02*
X133238095Y-160733390D01*
X133857143Y-161304819D02*
X133857143Y-160638152D01*
X133857143Y-160733390D02*
X133904762Y-160685771D01*
X133904762Y-160685771D02*
X134000000Y-160638152D01*
X134000000Y-160638152D02*
X134142857Y-160638152D01*
X134142857Y-160638152D02*
X134238095Y-160685771D01*
X134238095Y-160685771D02*
X134285714Y-160781009D01*
X134285714Y-160781009D02*
X134285714Y-161304819D01*
X134285714Y-160781009D02*
X134333333Y-160685771D01*
X134333333Y-160685771D02*
X134428571Y-160638152D01*
X134428571Y-160638152D02*
X134571428Y-160638152D01*
X134571428Y-160638152D02*
X134666667Y-160685771D01*
X134666667Y-160685771D02*
X134714286Y-160781009D01*
X134714286Y-160781009D02*
X134714286Y-161304819D01*
X135190476Y-161304819D02*
X135190476Y-160638152D01*
X135190476Y-160733390D02*
X135238095Y-160685771D01*
X135238095Y-160685771D02*
X135333333Y-160638152D01*
X135333333Y-160638152D02*
X135476190Y-160638152D01*
X135476190Y-160638152D02*
X135571428Y-160685771D01*
X135571428Y-160685771D02*
X135619047Y-160781009D01*
X135619047Y-160781009D02*
X135619047Y-161304819D01*
X135619047Y-160781009D02*
X135666666Y-160685771D01*
X135666666Y-160685771D02*
X135761904Y-160638152D01*
X135761904Y-160638152D02*
X135904761Y-160638152D01*
X135904761Y-160638152D02*
X136000000Y-160685771D01*
X136000000Y-160685771D02*
X136047619Y-160781009D01*
X136047619Y-160781009D02*
X136047619Y-161304819D01*
D10*
X129000000Y-160500000D02*
X129000000Y-162586420D01*
X147000000Y-162586420D02*
X147000000Y-160500000D01*
X129000000Y-162000000D02*
X147000000Y-162000000D01*
X129000000Y-162000000D02*
X130126504Y-161413579D01*
X129000000Y-162000000D02*
X130126504Y-162586421D01*
X147000000Y-162000000D02*
X145873496Y-162586421D01*
X147000000Y-162000000D02*
X145873496Y-161413579D01*
D11*
X136714286Y-175233390D02*
X136619048Y-175185771D01*
X136619048Y-175185771D02*
X136571429Y-175138152D01*
X136571429Y-175138152D02*
X136523810Y-175042914D01*
X136523810Y-175042914D02*
X136523810Y-174995295D01*
X136523810Y-174995295D02*
X136571429Y-174900057D01*
X136571429Y-174900057D02*
X136619048Y-174852438D01*
X136619048Y-174852438D02*
X136714286Y-174804819D01*
X136714286Y-174804819D02*
X136904762Y-174804819D01*
X136904762Y-174804819D02*
X137000000Y-174852438D01*
X137000000Y-174852438D02*
X137047619Y-174900057D01*
X137047619Y-174900057D02*
X137095238Y-174995295D01*
X137095238Y-174995295D02*
X137095238Y-175042914D01*
X137095238Y-175042914D02*
X137047619Y-175138152D01*
X137047619Y-175138152D02*
X137000000Y-175185771D01*
X137000000Y-175185771D02*
X136904762Y-175233390D01*
X136904762Y-175233390D02*
X136714286Y-175233390D01*
X136714286Y-175233390D02*
X136619048Y-175281009D01*
X136619048Y-175281009D02*
X136571429Y-175328628D01*
X136571429Y-175328628D02*
X136523810Y-175423866D01*
X136523810Y-175423866D02*
X136523810Y-175614342D01*
X136523810Y-175614342D02*
X136571429Y-175709580D01*
X136571429Y-175709580D02*
X136619048Y-175757200D01*
X136619048Y-175757200D02*
X136714286Y-175804819D01*
X136714286Y-175804819D02*
X136904762Y-175804819D01*
X136904762Y-175804819D02*
X137000000Y-175757200D01*
X137000000Y-175757200D02*
X137047619Y-175709580D01*
X137047619Y-175709580D02*
X137095238Y-175614342D01*
X137095238Y-175614342D02*
X137095238Y-175423866D01*
X137095238Y-175423866D02*
X137047619Y-175328628D01*
X137047619Y-175328628D02*
X137000000Y-175281009D01*
X137000000Y-175281009D02*
X136904762Y-175233390D01*
X137428572Y-174804819D02*
X138047619Y-174804819D01*
X138047619Y-174804819D02*
X137714286Y-175185771D01*
X137714286Y-175185771D02*
X137857143Y-175185771D01*
X137857143Y-175185771D02*
X137952381Y-175233390D01*
X137952381Y-175233390D02*
X138000000Y-175281009D01*
X138000000Y-175281009D02*
X138047619Y-175376247D01*
X138047619Y-175376247D02*
X138047619Y-175614342D01*
X138047619Y-175614342D02*
X138000000Y-175709580D01*
X138000000Y-175709580D02*
X137952381Y-175757200D01*
X137952381Y-175757200D02*
X137857143Y-175804819D01*
X137857143Y-175804819D02*
X137571429Y-175804819D01*
X137571429Y-175804819D02*
X137476191Y-175757200D01*
X137476191Y-175757200D02*
X137428572Y-175709580D01*
X138476191Y-175709580D02*
X138523810Y-175757200D01*
X138523810Y-175757200D02*
X138476191Y-175804819D01*
X138476191Y-175804819D02*
X138428572Y-175757200D01*
X138428572Y-175757200D02*
X138476191Y-175709580D01*
X138476191Y-175709580D02*
X138476191Y-175804819D01*
X139428571Y-174804819D02*
X138952381Y-174804819D01*
X138952381Y-174804819D02*
X138904762Y-175281009D01*
X138904762Y-175281009D02*
X138952381Y-175233390D01*
X138952381Y-175233390D02*
X139047619Y-175185771D01*
X139047619Y-175185771D02*
X139285714Y-175185771D01*
X139285714Y-175185771D02*
X139380952Y-175233390D01*
X139380952Y-175233390D02*
X139428571Y-175281009D01*
X139428571Y-175281009D02*
X139476190Y-175376247D01*
X139476190Y-175376247D02*
X139476190Y-175614342D01*
X139476190Y-175614342D02*
X139428571Y-175709580D01*
X139428571Y-175709580D02*
X139380952Y-175757200D01*
X139380952Y-175757200D02*
X139285714Y-175804819D01*
X139285714Y-175804819D02*
X139047619Y-175804819D01*
X139047619Y-175804819D02*
X138952381Y-175757200D01*
X138952381Y-175757200D02*
X138904762Y-175709580D01*
D10*
X96250000Y-149900000D02*
X96250000Y-177086420D01*
X179750000Y-177086420D02*
X179750000Y-149900000D01*
X96250000Y-176500000D02*
X179750000Y-176500000D01*
X96250000Y-176500000D02*
X97376504Y-175913579D01*
X96250000Y-176500000D02*
X97376504Y-177086421D01*
X179750000Y-176500000D02*
X178623496Y-177086421D01*
X179750000Y-176500000D02*
X178623496Y-175913579D01*
D11*
X91404819Y-101080951D02*
X91404819Y-100890475D01*
X91404819Y-100890475D02*
X91357200Y-100795237D01*
X91357200Y-100795237D02*
X91309580Y-100747618D01*
X91309580Y-100747618D02*
X91166723Y-100652380D01*
X91166723Y-100652380D02*
X90976247Y-100604761D01*
X90976247Y-100604761D02*
X90595295Y-100604761D01*
X90595295Y-100604761D02*
X90500057Y-100652380D01*
X90500057Y-100652380D02*
X90452438Y-100699999D01*
X90452438Y-100699999D02*
X90404819Y-100795237D01*
X90404819Y-100795237D02*
X90404819Y-100985713D01*
X90404819Y-100985713D02*
X90452438Y-101080951D01*
X90452438Y-101080951D02*
X90500057Y-101128570D01*
X90500057Y-101128570D02*
X90595295Y-101176189D01*
X90595295Y-101176189D02*
X90833390Y-101176189D01*
X90833390Y-101176189D02*
X90928628Y-101128570D01*
X90928628Y-101128570D02*
X90976247Y-101080951D01*
X90976247Y-101080951D02*
X91023866Y-100985713D01*
X91023866Y-100985713D02*
X91023866Y-100795237D01*
X91023866Y-100795237D02*
X90976247Y-100699999D01*
X90976247Y-100699999D02*
X90928628Y-100652380D01*
X90928628Y-100652380D02*
X90833390Y-100604761D01*
X91404819Y-100128570D02*
X91404819Y-99938094D01*
X91404819Y-99938094D02*
X91357200Y-99842856D01*
X91357200Y-99842856D02*
X91309580Y-99795237D01*
X91309580Y-99795237D02*
X91166723Y-99699999D01*
X91166723Y-99699999D02*
X90976247Y-99652380D01*
X90976247Y-99652380D02*
X90595295Y-99652380D01*
X90595295Y-99652380D02*
X90500057Y-99699999D01*
X90500057Y-99699999D02*
X90452438Y-99747618D01*
X90452438Y-99747618D02*
X90404819Y-99842856D01*
X90404819Y-99842856D02*
X90404819Y-100033332D01*
X90404819Y-100033332D02*
X90452438Y-100128570D01*
X90452438Y-100128570D02*
X90500057Y-100176189D01*
X90500057Y-100176189D02*
X90595295Y-100223808D01*
X90595295Y-100223808D02*
X90833390Y-100223808D01*
X90833390Y-100223808D02*
X90928628Y-100176189D01*
X90928628Y-100176189D02*
X90976247Y-100128570D01*
X90976247Y-100128570D02*
X91023866Y-100033332D01*
X91023866Y-100033332D02*
X91023866Y-99842856D01*
X91023866Y-99842856D02*
X90976247Y-99747618D01*
X90976247Y-99747618D02*
X90928628Y-99699999D01*
X90928628Y-99699999D02*
X90833390Y-99652380D01*
X91309580Y-99223808D02*
X91357200Y-99176189D01*
X91357200Y-99176189D02*
X91404819Y-99223808D01*
X91404819Y-99223808D02*
X91357200Y-99271427D01*
X91357200Y-99271427D02*
X91309580Y-99223808D01*
X91309580Y-99223808D02*
X91404819Y-99223808D01*
X90738152Y-98319047D02*
X91404819Y-98319047D01*
X90357200Y-98557142D02*
X91071485Y-98795237D01*
X91071485Y-98795237D02*
X91071485Y-98176190D01*
D10*
X95750000Y-149400000D02*
X91513580Y-149400000D01*
X91513580Y-50000000D02*
X95750000Y-50000000D01*
X92100000Y-149400000D02*
X92100000Y-50000000D01*
X92100000Y-149400000D02*
X91513579Y-148273496D01*
X92100000Y-149400000D02*
X92686421Y-148273496D01*
X92100000Y-50000000D02*
X92686421Y-51126504D01*
X92100000Y-50000000D02*
X91513579Y-51126504D01*
D11*
X144243625Y-148238291D02*
X144243625Y-147438291D01*
X144243625Y-147438291D02*
X144548387Y-147438291D01*
X144548387Y-147438291D02*
X144624577Y-147476386D01*
X144624577Y-147476386D02*
X144662672Y-147514481D01*
X144662672Y-147514481D02*
X144700768Y-147590672D01*
X144700768Y-147590672D02*
X144700768Y-147704957D01*
X144700768Y-147704957D02*
X144662672Y-147781148D01*
X144662672Y-147781148D02*
X144624577Y-147819243D01*
X144624577Y-147819243D02*
X144548387Y-147857338D01*
X144548387Y-147857338D02*
X144243625Y-147857338D01*
X145500768Y-148162100D02*
X145462672Y-148200196D01*
X145462672Y-148200196D02*
X145348387Y-148238291D01*
X145348387Y-148238291D02*
X145272196Y-148238291D01*
X145272196Y-148238291D02*
X145157910Y-148200196D01*
X145157910Y-148200196D02*
X145081720Y-148124005D01*
X145081720Y-148124005D02*
X145043625Y-148047815D01*
X145043625Y-148047815D02*
X145005529Y-147895434D01*
X145005529Y-147895434D02*
X145005529Y-147781148D01*
X145005529Y-147781148D02*
X145043625Y-147628767D01*
X145043625Y-147628767D02*
X145081720Y-147552576D01*
X145081720Y-147552576D02*
X145157910Y-147476386D01*
X145157910Y-147476386D02*
X145272196Y-147438291D01*
X145272196Y-147438291D02*
X145348387Y-147438291D01*
X145348387Y-147438291D02*
X145462672Y-147476386D01*
X145462672Y-147476386D02*
X145500768Y-147514481D01*
X146110291Y-147819243D02*
X146224577Y-147857338D01*
X146224577Y-147857338D02*
X146262672Y-147895434D01*
X146262672Y-147895434D02*
X146300768Y-147971624D01*
X146300768Y-147971624D02*
X146300768Y-148085910D01*
X146300768Y-148085910D02*
X146262672Y-148162100D01*
X146262672Y-148162100D02*
X146224577Y-148200196D01*
X146224577Y-148200196D02*
X146148387Y-148238291D01*
X146148387Y-148238291D02*
X145843625Y-148238291D01*
X145843625Y-148238291D02*
X145843625Y-147438291D01*
X145843625Y-147438291D02*
X146110291Y-147438291D01*
X146110291Y-147438291D02*
X146186482Y-147476386D01*
X146186482Y-147476386D02*
X146224577Y-147514481D01*
X146224577Y-147514481D02*
X146262672Y-147590672D01*
X146262672Y-147590672D02*
X146262672Y-147666862D01*
X146262672Y-147666862D02*
X146224577Y-147743053D01*
X146224577Y-147743053D02*
X146186482Y-147781148D01*
X146186482Y-147781148D02*
X146110291Y-147819243D01*
X146110291Y-147819243D02*
X145843625Y-147819243D01*
X147253149Y-147819243D02*
X147519815Y-147819243D01*
X147634101Y-148238291D02*
X147253149Y-148238291D01*
X147253149Y-148238291D02*
X147253149Y-147438291D01*
X147253149Y-147438291D02*
X147634101Y-147438291D01*
X148319816Y-148238291D02*
X148319816Y-147438291D01*
X148319816Y-148200196D02*
X148243625Y-148238291D01*
X148243625Y-148238291D02*
X148091244Y-148238291D01*
X148091244Y-148238291D02*
X148015054Y-148200196D01*
X148015054Y-148200196D02*
X147976959Y-148162100D01*
X147976959Y-148162100D02*
X147938863Y-148085910D01*
X147938863Y-148085910D02*
X147938863Y-147857338D01*
X147938863Y-147857338D02*
X147976959Y-147781148D01*
X147976959Y-147781148D02*
X148015054Y-147743053D01*
X148015054Y-147743053D02*
X148091244Y-147704957D01*
X148091244Y-147704957D02*
X148243625Y-147704957D01*
X148243625Y-147704957D02*
X148319816Y-147743053D01*
X149043626Y-147704957D02*
X149043626Y-148352576D01*
X149043626Y-148352576D02*
X149005531Y-148428767D01*
X149005531Y-148428767D02*
X148967435Y-148466862D01*
X148967435Y-148466862D02*
X148891245Y-148504957D01*
X148891245Y-148504957D02*
X148776959Y-148504957D01*
X148776959Y-148504957D02*
X148700769Y-148466862D01*
X149043626Y-148200196D02*
X148967435Y-148238291D01*
X148967435Y-148238291D02*
X148815054Y-148238291D01*
X148815054Y-148238291D02*
X148738864Y-148200196D01*
X148738864Y-148200196D02*
X148700769Y-148162100D01*
X148700769Y-148162100D02*
X148662673Y-148085910D01*
X148662673Y-148085910D02*
X148662673Y-147857338D01*
X148662673Y-147857338D02*
X148700769Y-147781148D01*
X148700769Y-147781148D02*
X148738864Y-147743053D01*
X148738864Y-147743053D02*
X148815054Y-147704957D01*
X148815054Y-147704957D02*
X148967435Y-147704957D01*
X148967435Y-147704957D02*
X149043626Y-147743053D01*
X149729341Y-148200196D02*
X149653150Y-148238291D01*
X149653150Y-148238291D02*
X149500769Y-148238291D01*
X149500769Y-148238291D02*
X149424579Y-148200196D01*
X149424579Y-148200196D02*
X149386483Y-148124005D01*
X149386483Y-148124005D02*
X149386483Y-147819243D01*
X149386483Y-147819243D02*
X149424579Y-147743053D01*
X149424579Y-147743053D02*
X149500769Y-147704957D01*
X149500769Y-147704957D02*
X149653150Y-147704957D01*
X149653150Y-147704957D02*
X149729341Y-147743053D01*
X149729341Y-147743053D02*
X149767436Y-147819243D01*
X149767436Y-147819243D02*
X149767436Y-147895434D01*
X149767436Y-147895434D02*
X149386483Y-147971624D01*
X108257142Y-148058906D02*
X108257142Y-147258906D01*
X108257142Y-147258906D02*
X108561904Y-147258906D01*
X108561904Y-147258906D02*
X108638094Y-147297001D01*
X108638094Y-147297001D02*
X108676189Y-147335096D01*
X108676189Y-147335096D02*
X108714285Y-147411287D01*
X108714285Y-147411287D02*
X108714285Y-147525572D01*
X108714285Y-147525572D02*
X108676189Y-147601763D01*
X108676189Y-147601763D02*
X108638094Y-147639858D01*
X108638094Y-147639858D02*
X108561904Y-147677953D01*
X108561904Y-147677953D02*
X108257142Y-147677953D01*
X109514285Y-147982715D02*
X109476189Y-148020811D01*
X109476189Y-148020811D02*
X109361904Y-148058906D01*
X109361904Y-148058906D02*
X109285713Y-148058906D01*
X109285713Y-148058906D02*
X109171427Y-148020811D01*
X109171427Y-148020811D02*
X109095237Y-147944620D01*
X109095237Y-147944620D02*
X109057142Y-147868430D01*
X109057142Y-147868430D02*
X109019046Y-147716049D01*
X109019046Y-147716049D02*
X109019046Y-147601763D01*
X109019046Y-147601763D02*
X109057142Y-147449382D01*
X109057142Y-147449382D02*
X109095237Y-147373191D01*
X109095237Y-147373191D02*
X109171427Y-147297001D01*
X109171427Y-147297001D02*
X109285713Y-147258906D01*
X109285713Y-147258906D02*
X109361904Y-147258906D01*
X109361904Y-147258906D02*
X109476189Y-147297001D01*
X109476189Y-147297001D02*
X109514285Y-147335096D01*
X110123808Y-147639858D02*
X110238094Y-147677953D01*
X110238094Y-147677953D02*
X110276189Y-147716049D01*
X110276189Y-147716049D02*
X110314285Y-147792239D01*
X110314285Y-147792239D02*
X110314285Y-147906525D01*
X110314285Y-147906525D02*
X110276189Y-147982715D01*
X110276189Y-147982715D02*
X110238094Y-148020811D01*
X110238094Y-148020811D02*
X110161904Y-148058906D01*
X110161904Y-148058906D02*
X109857142Y-148058906D01*
X109857142Y-148058906D02*
X109857142Y-147258906D01*
X109857142Y-147258906D02*
X110123808Y-147258906D01*
X110123808Y-147258906D02*
X110199999Y-147297001D01*
X110199999Y-147297001D02*
X110238094Y-147335096D01*
X110238094Y-147335096D02*
X110276189Y-147411287D01*
X110276189Y-147411287D02*
X110276189Y-147487477D01*
X110276189Y-147487477D02*
X110238094Y-147563668D01*
X110238094Y-147563668D02*
X110199999Y-147601763D01*
X110199999Y-147601763D02*
X110123808Y-147639858D01*
X110123808Y-147639858D02*
X109857142Y-147639858D01*
X111266666Y-147639858D02*
X111533332Y-147639858D01*
X111647618Y-148058906D02*
X111266666Y-148058906D01*
X111266666Y-148058906D02*
X111266666Y-147258906D01*
X111266666Y-147258906D02*
X111647618Y-147258906D01*
X112333333Y-148058906D02*
X112333333Y-147258906D01*
X112333333Y-148020811D02*
X112257142Y-148058906D01*
X112257142Y-148058906D02*
X112104761Y-148058906D01*
X112104761Y-148058906D02*
X112028571Y-148020811D01*
X112028571Y-148020811D02*
X111990476Y-147982715D01*
X111990476Y-147982715D02*
X111952380Y-147906525D01*
X111952380Y-147906525D02*
X111952380Y-147677953D01*
X111952380Y-147677953D02*
X111990476Y-147601763D01*
X111990476Y-147601763D02*
X112028571Y-147563668D01*
X112028571Y-147563668D02*
X112104761Y-147525572D01*
X112104761Y-147525572D02*
X112257142Y-147525572D01*
X112257142Y-147525572D02*
X112333333Y-147563668D01*
X113057143Y-147525572D02*
X113057143Y-148173191D01*
X113057143Y-148173191D02*
X113019048Y-148249382D01*
X113019048Y-148249382D02*
X112980952Y-148287477D01*
X112980952Y-148287477D02*
X112904762Y-148325572D01*
X112904762Y-148325572D02*
X112790476Y-148325572D01*
X112790476Y-148325572D02*
X112714286Y-148287477D01*
X113057143Y-148020811D02*
X112980952Y-148058906D01*
X112980952Y-148058906D02*
X112828571Y-148058906D01*
X112828571Y-148058906D02*
X112752381Y-148020811D01*
X112752381Y-148020811D02*
X112714286Y-147982715D01*
X112714286Y-147982715D02*
X112676190Y-147906525D01*
X112676190Y-147906525D02*
X112676190Y-147677953D01*
X112676190Y-147677953D02*
X112714286Y-147601763D01*
X112714286Y-147601763D02*
X112752381Y-147563668D01*
X112752381Y-147563668D02*
X112828571Y-147525572D01*
X112828571Y-147525572D02*
X112980952Y-147525572D01*
X112980952Y-147525572D02*
X113057143Y-147563668D01*
X113742858Y-148020811D02*
X113666667Y-148058906D01*
X113666667Y-148058906D02*
X113514286Y-148058906D01*
X113514286Y-148058906D02*
X113438096Y-148020811D01*
X113438096Y-148020811D02*
X113400000Y-147944620D01*
X113400000Y-147944620D02*
X113400000Y-147639858D01*
X113400000Y-147639858D02*
X113438096Y-147563668D01*
X113438096Y-147563668D02*
X113514286Y-147525572D01*
X113514286Y-147525572D02*
X113666667Y-147525572D01*
X113666667Y-147525572D02*
X113742858Y-147563668D01*
X113742858Y-147563668D02*
X113780953Y-147639858D01*
X113780953Y-147639858D02*
X113780953Y-147716049D01*
X113780953Y-147716049D02*
X113400000Y-147792239D01*
X126257142Y-148085295D02*
X126257142Y-147285295D01*
X126257142Y-147285295D02*
X126561904Y-147285295D01*
X126561904Y-147285295D02*
X126638094Y-147323390D01*
X126638094Y-147323390D02*
X126676189Y-147361485D01*
X126676189Y-147361485D02*
X126714285Y-147437676D01*
X126714285Y-147437676D02*
X126714285Y-147551961D01*
X126714285Y-147551961D02*
X126676189Y-147628152D01*
X126676189Y-147628152D02*
X126638094Y-147666247D01*
X126638094Y-147666247D02*
X126561904Y-147704342D01*
X126561904Y-147704342D02*
X126257142Y-147704342D01*
X127514285Y-148009104D02*
X127476189Y-148047200D01*
X127476189Y-148047200D02*
X127361904Y-148085295D01*
X127361904Y-148085295D02*
X127285713Y-148085295D01*
X127285713Y-148085295D02*
X127171427Y-148047200D01*
X127171427Y-148047200D02*
X127095237Y-147971009D01*
X127095237Y-147971009D02*
X127057142Y-147894819D01*
X127057142Y-147894819D02*
X127019046Y-147742438D01*
X127019046Y-147742438D02*
X127019046Y-147628152D01*
X127019046Y-147628152D02*
X127057142Y-147475771D01*
X127057142Y-147475771D02*
X127095237Y-147399580D01*
X127095237Y-147399580D02*
X127171427Y-147323390D01*
X127171427Y-147323390D02*
X127285713Y-147285295D01*
X127285713Y-147285295D02*
X127361904Y-147285295D01*
X127361904Y-147285295D02*
X127476189Y-147323390D01*
X127476189Y-147323390D02*
X127514285Y-147361485D01*
X128123808Y-147666247D02*
X128238094Y-147704342D01*
X128238094Y-147704342D02*
X128276189Y-147742438D01*
X128276189Y-147742438D02*
X128314285Y-147818628D01*
X128314285Y-147818628D02*
X128314285Y-147932914D01*
X128314285Y-147932914D02*
X128276189Y-148009104D01*
X128276189Y-148009104D02*
X128238094Y-148047200D01*
X128238094Y-148047200D02*
X128161904Y-148085295D01*
X128161904Y-148085295D02*
X127857142Y-148085295D01*
X127857142Y-148085295D02*
X127857142Y-147285295D01*
X127857142Y-147285295D02*
X128123808Y-147285295D01*
X128123808Y-147285295D02*
X128199999Y-147323390D01*
X128199999Y-147323390D02*
X128238094Y-147361485D01*
X128238094Y-147361485D02*
X128276189Y-147437676D01*
X128276189Y-147437676D02*
X128276189Y-147513866D01*
X128276189Y-147513866D02*
X128238094Y-147590057D01*
X128238094Y-147590057D02*
X128199999Y-147628152D01*
X128199999Y-147628152D02*
X128123808Y-147666247D01*
X128123808Y-147666247D02*
X127857142Y-147666247D01*
X129266666Y-147666247D02*
X129533332Y-147666247D01*
X129647618Y-148085295D02*
X129266666Y-148085295D01*
X129266666Y-148085295D02*
X129266666Y-147285295D01*
X129266666Y-147285295D02*
X129647618Y-147285295D01*
X130333333Y-148085295D02*
X130333333Y-147285295D01*
X130333333Y-148047200D02*
X130257142Y-148085295D01*
X130257142Y-148085295D02*
X130104761Y-148085295D01*
X130104761Y-148085295D02*
X130028571Y-148047200D01*
X130028571Y-148047200D02*
X129990476Y-148009104D01*
X129990476Y-148009104D02*
X129952380Y-147932914D01*
X129952380Y-147932914D02*
X129952380Y-147704342D01*
X129952380Y-147704342D02*
X129990476Y-147628152D01*
X129990476Y-147628152D02*
X130028571Y-147590057D01*
X130028571Y-147590057D02*
X130104761Y-147551961D01*
X130104761Y-147551961D02*
X130257142Y-147551961D01*
X130257142Y-147551961D02*
X130333333Y-147590057D01*
X131057143Y-147551961D02*
X131057143Y-148199580D01*
X131057143Y-148199580D02*
X131019048Y-148275771D01*
X131019048Y-148275771D02*
X130980952Y-148313866D01*
X130980952Y-148313866D02*
X130904762Y-148351961D01*
X130904762Y-148351961D02*
X130790476Y-148351961D01*
X130790476Y-148351961D02*
X130714286Y-148313866D01*
X131057143Y-148047200D02*
X130980952Y-148085295D01*
X130980952Y-148085295D02*
X130828571Y-148085295D01*
X130828571Y-148085295D02*
X130752381Y-148047200D01*
X130752381Y-148047200D02*
X130714286Y-148009104D01*
X130714286Y-148009104D02*
X130676190Y-147932914D01*
X130676190Y-147932914D02*
X130676190Y-147704342D01*
X130676190Y-147704342D02*
X130714286Y-147628152D01*
X130714286Y-147628152D02*
X130752381Y-147590057D01*
X130752381Y-147590057D02*
X130828571Y-147551961D01*
X130828571Y-147551961D02*
X130980952Y-147551961D01*
X130980952Y-147551961D02*
X131057143Y-147590057D01*
X131742858Y-148047200D02*
X131666667Y-148085295D01*
X131666667Y-148085295D02*
X131514286Y-148085295D01*
X131514286Y-148085295D02*
X131438096Y-148047200D01*
X131438096Y-148047200D02*
X131400000Y-147971009D01*
X131400000Y-147971009D02*
X131400000Y-147666247D01*
X131400000Y-147666247D02*
X131438096Y-147590057D01*
X131438096Y-147590057D02*
X131514286Y-147551961D01*
X131514286Y-147551961D02*
X131666667Y-147551961D01*
X131666667Y-147551961D02*
X131742858Y-147590057D01*
X131742858Y-147590057D02*
X131780953Y-147666247D01*
X131780953Y-147666247D02*
X131780953Y-147742438D01*
X131780953Y-147742438D02*
X131400000Y-147818628D01*
X162057142Y-148035295D02*
X162057142Y-147235295D01*
X162057142Y-147235295D02*
X162361904Y-147235295D01*
X162361904Y-147235295D02*
X162438094Y-147273390D01*
X162438094Y-147273390D02*
X162476189Y-147311485D01*
X162476189Y-147311485D02*
X162514285Y-147387676D01*
X162514285Y-147387676D02*
X162514285Y-147501961D01*
X162514285Y-147501961D02*
X162476189Y-147578152D01*
X162476189Y-147578152D02*
X162438094Y-147616247D01*
X162438094Y-147616247D02*
X162361904Y-147654342D01*
X162361904Y-147654342D02*
X162057142Y-147654342D01*
X163314285Y-147959104D02*
X163276189Y-147997200D01*
X163276189Y-147997200D02*
X163161904Y-148035295D01*
X163161904Y-148035295D02*
X163085713Y-148035295D01*
X163085713Y-148035295D02*
X162971427Y-147997200D01*
X162971427Y-147997200D02*
X162895237Y-147921009D01*
X162895237Y-147921009D02*
X162857142Y-147844819D01*
X162857142Y-147844819D02*
X162819046Y-147692438D01*
X162819046Y-147692438D02*
X162819046Y-147578152D01*
X162819046Y-147578152D02*
X162857142Y-147425771D01*
X162857142Y-147425771D02*
X162895237Y-147349580D01*
X162895237Y-147349580D02*
X162971427Y-147273390D01*
X162971427Y-147273390D02*
X163085713Y-147235295D01*
X163085713Y-147235295D02*
X163161904Y-147235295D01*
X163161904Y-147235295D02*
X163276189Y-147273390D01*
X163276189Y-147273390D02*
X163314285Y-147311485D01*
X163923808Y-147616247D02*
X164038094Y-147654342D01*
X164038094Y-147654342D02*
X164076189Y-147692438D01*
X164076189Y-147692438D02*
X164114285Y-147768628D01*
X164114285Y-147768628D02*
X164114285Y-147882914D01*
X164114285Y-147882914D02*
X164076189Y-147959104D01*
X164076189Y-147959104D02*
X164038094Y-147997200D01*
X164038094Y-147997200D02*
X163961904Y-148035295D01*
X163961904Y-148035295D02*
X163657142Y-148035295D01*
X163657142Y-148035295D02*
X163657142Y-147235295D01*
X163657142Y-147235295D02*
X163923808Y-147235295D01*
X163923808Y-147235295D02*
X163999999Y-147273390D01*
X163999999Y-147273390D02*
X164038094Y-147311485D01*
X164038094Y-147311485D02*
X164076189Y-147387676D01*
X164076189Y-147387676D02*
X164076189Y-147463866D01*
X164076189Y-147463866D02*
X164038094Y-147540057D01*
X164038094Y-147540057D02*
X163999999Y-147578152D01*
X163999999Y-147578152D02*
X163923808Y-147616247D01*
X163923808Y-147616247D02*
X163657142Y-147616247D01*
X165066666Y-147616247D02*
X165333332Y-147616247D01*
X165447618Y-148035295D02*
X165066666Y-148035295D01*
X165066666Y-148035295D02*
X165066666Y-147235295D01*
X165066666Y-147235295D02*
X165447618Y-147235295D01*
X166133333Y-148035295D02*
X166133333Y-147235295D01*
X166133333Y-147997200D02*
X166057142Y-148035295D01*
X166057142Y-148035295D02*
X165904761Y-148035295D01*
X165904761Y-148035295D02*
X165828571Y-147997200D01*
X165828571Y-147997200D02*
X165790476Y-147959104D01*
X165790476Y-147959104D02*
X165752380Y-147882914D01*
X165752380Y-147882914D02*
X165752380Y-147654342D01*
X165752380Y-147654342D02*
X165790476Y-147578152D01*
X165790476Y-147578152D02*
X165828571Y-147540057D01*
X165828571Y-147540057D02*
X165904761Y-147501961D01*
X165904761Y-147501961D02*
X166057142Y-147501961D01*
X166057142Y-147501961D02*
X166133333Y-147540057D01*
X166857143Y-147501961D02*
X166857143Y-148149580D01*
X166857143Y-148149580D02*
X166819048Y-148225771D01*
X166819048Y-148225771D02*
X166780952Y-148263866D01*
X166780952Y-148263866D02*
X166704762Y-148301961D01*
X166704762Y-148301961D02*
X166590476Y-148301961D01*
X166590476Y-148301961D02*
X166514286Y-148263866D01*
X166857143Y-147997200D02*
X166780952Y-148035295D01*
X166780952Y-148035295D02*
X166628571Y-148035295D01*
X166628571Y-148035295D02*
X166552381Y-147997200D01*
X166552381Y-147997200D02*
X166514286Y-147959104D01*
X166514286Y-147959104D02*
X166476190Y-147882914D01*
X166476190Y-147882914D02*
X166476190Y-147654342D01*
X166476190Y-147654342D02*
X166514286Y-147578152D01*
X166514286Y-147578152D02*
X166552381Y-147540057D01*
X166552381Y-147540057D02*
X166628571Y-147501961D01*
X166628571Y-147501961D02*
X166780952Y-147501961D01*
X166780952Y-147501961D02*
X166857143Y-147540057D01*
X167542858Y-147997200D02*
X167466667Y-148035295D01*
X167466667Y-148035295D02*
X167314286Y-148035295D01*
X167314286Y-148035295D02*
X167238096Y-147997200D01*
X167238096Y-147997200D02*
X167200000Y-147921009D01*
X167200000Y-147921009D02*
X167200000Y-147616247D01*
X167200000Y-147616247D02*
X167238096Y-147540057D01*
X167238096Y-147540057D02*
X167314286Y-147501961D01*
X167314286Y-147501961D02*
X167466667Y-147501961D01*
X167466667Y-147501961D02*
X167542858Y-147540057D01*
X167542858Y-147540057D02*
X167580953Y-147616247D01*
X167580953Y-147616247D02*
X167580953Y-147692438D01*
X167580953Y-147692438D02*
X167200000Y-147768628D01*
%TO.C,J2*%
D10*
X151086483Y-147375996D02*
X142886483Y-147375996D01*
%TO.C,J1*%
X115100000Y-147196611D02*
X106900000Y-147196611D01*
%TO.C,D3*%
D12*
X139100000Y-52050000D02*
X136900000Y-52050000D01*
X136900000Y-52050000D02*
G75*
G02*
X139100000Y-52050000I1100000J0D01*
G01*
%TO.C,J3*%
D10*
X133100000Y-147223000D02*
X124900000Y-147223000D01*
%TO.C,J4*%
X168900000Y-147173000D02*
X160700000Y-147173000D01*
%TD*%
M02*
