%TF.GenerationSoftware,KiCad,Pcbnew,10.0.4-10.0.4~ubuntu25.10.1*%
%TF.CreationDate,2026-08-02T21:46:55+00:00*%
%TF.ProjectId,TAPRX-888,54415052-582d-4383-9838-2e6b69636164,DEV*%
%TF.SameCoordinates,Original*%
%TF.FileFunction,Other,User*%
%FSLAX46Y46*%
G04 Gerber Fmt 4.6, Leading zero omitted, Abs format (unit mm)*
G04 Created by KiCad (PCBNEW 10.0.4-10.0.4~ubuntu25.10.1) date 2026-08-02 21:46:55*
%MOMM*%
%LPD*%
G01*
G04 APERTURE LIST*
%ADD10C,0.050000*%
%ADD11C,0.120000*%
G04 APERTURE END LIST*
%TO.C,R2*%
D10*
X139700000Y-95500000D02*
X139700000Y-96500000D01*
X139700000Y-95500000D02*
X142300000Y-95500000D01*
X142300000Y-96500000D02*
X139700000Y-96500000D01*
X142300000Y-96500000D02*
X142300000Y-95500000D01*
%TO.C,R27*%
X141500000Y-57300000D02*
X141500000Y-54700000D01*
X141500000Y-57300000D02*
X142500000Y-57300000D01*
X142500000Y-54700000D02*
X141500000Y-54700000D01*
X142500000Y-54700000D02*
X142500000Y-57300000D01*
%TO.C,C22*%
X137500000Y-72300000D02*
X137500000Y-69700000D01*
X137500000Y-72300000D02*
X138500000Y-72300000D01*
X138500000Y-69700000D02*
X137500000Y-69700000D01*
X138500000Y-69700000D02*
X138500000Y-72300000D01*
%TO.C,R12*%
X153350000Y-87600000D02*
X155650000Y-87600000D01*
X153350000Y-89400000D02*
X153350000Y-87600000D01*
X155650000Y-87600000D02*
X155650000Y-89400000D01*
X155650000Y-89400000D02*
X153350000Y-89400000D01*
%TO.C,R54*%
X159700000Y-108500000D02*
X159700000Y-109500000D01*
X159700000Y-108500000D02*
X162300000Y-108500000D01*
X162300000Y-109500000D02*
X159700000Y-109500000D01*
X162300000Y-109500000D02*
X162300000Y-108500000D01*
%TO.C,Q3*%
X164800000Y-111300000D02*
X168200000Y-111300000D01*
X164800000Y-114800000D02*
X164800000Y-111300000D01*
X168200000Y-111300000D02*
X168200000Y-114800000D01*
X168200000Y-114800000D02*
X164800000Y-114800000D01*
%TO.C,U7*%
X155100000Y-69150000D02*
X158900000Y-69150000D01*
X155100000Y-70850000D02*
X155100000Y-69150000D01*
X158900000Y-69150000D02*
X158900000Y-70850000D01*
X158900000Y-70850000D02*
X155100000Y-70850000D01*
%TO.C,C61*%
X123500000Y-130300000D02*
X123500000Y-127700000D01*
X123500000Y-130300000D02*
X124500000Y-130300000D01*
X124500000Y-127700000D02*
X123500000Y-127700000D01*
X124500000Y-127700000D02*
X124500000Y-130300000D01*
%TO.C,J6*%
X122660000Y-88200000D02*
X122660000Y-91800000D01*
X122660000Y-91800000D02*
X131460000Y-91800000D01*
X131460000Y-88200000D02*
X122660000Y-88200000D01*
X131460000Y-91800000D02*
X131460000Y-88200000D01*
%TO.C,TP16*%
X170000000Y-138000000D02*
X172000000Y-138000000D01*
X172000000Y-140000000D01*
X170000000Y-140000000D01*
X170000000Y-138000000D01*
%TO.C,C5*%
X147700000Y-93500000D02*
X147700000Y-94500000D01*
X147700000Y-93500000D02*
X150300000Y-93500000D01*
X150300000Y-94500000D02*
X147700000Y-94500000D01*
X150300000Y-94500000D02*
X150300000Y-93500000D01*
%TO.C,R30*%
X140500000Y-140300000D02*
X140500000Y-137700000D01*
X140500000Y-140300000D02*
X141500000Y-140300000D01*
X141500000Y-137700000D02*
X140500000Y-137700000D01*
X141500000Y-137700000D02*
X141500000Y-140300000D01*
%TO.C,C75*%
X156700000Y-113500000D02*
X156700000Y-114500000D01*
X156700000Y-113500000D02*
X159300000Y-113500000D01*
X159300000Y-114500000D02*
X156700000Y-114500000D01*
X159300000Y-114500000D02*
X159300000Y-113500000D01*
%TO.C,R31*%
X107700000Y-129500000D02*
X107700000Y-130500000D01*
X107700000Y-129500000D02*
X110300000Y-129500000D01*
X110300000Y-130500000D02*
X107700000Y-130500000D01*
X110300000Y-130500000D02*
X110300000Y-129500000D01*
%TO.C,R61*%
X148750000Y-97800000D02*
X148750000Y-95200000D01*
X148750000Y-97800000D02*
X149750000Y-97800000D01*
X149750000Y-95200000D02*
X148750000Y-95200000D01*
X149750000Y-95200000D02*
X149750000Y-97800000D01*
%TO.C,R17*%
X164250000Y-71050000D02*
X164250000Y-68450000D01*
X164250000Y-71050000D02*
X165250000Y-71050000D01*
X165250000Y-68450000D02*
X164250000Y-68450000D01*
X165250000Y-68450000D02*
X165250000Y-71050000D01*
%TO.C,U6*%
X143190000Y-122300000D02*
X150810000Y-122300000D01*
X143190000Y-127700000D02*
X143190000Y-122300000D01*
X150810000Y-122300000D02*
X150810000Y-127700000D01*
X150810000Y-127700000D02*
X143190000Y-127700000D01*
%TO.C,C17*%
X166950000Y-86500000D02*
X166950000Y-87500000D01*
X166950000Y-86500000D02*
X169550000Y-86500000D01*
X169550000Y-87500000D02*
X166950000Y-87500000D01*
X169550000Y-87500000D02*
X169550000Y-86500000D01*
%TO.C,C3*%
X166950000Y-80500000D02*
X166950000Y-81500000D01*
X166950000Y-80500000D02*
X169550000Y-80500000D01*
X169550000Y-81500000D02*
X166950000Y-81500000D01*
X169550000Y-81500000D02*
X169550000Y-80500000D01*
%TO.C,C27*%
X147700000Y-119500000D02*
X147700000Y-120500000D01*
X147700000Y-119500000D02*
X150300000Y-119500000D01*
X150300000Y-120500000D02*
X147700000Y-120500000D01*
X150300000Y-120500000D02*
X150300000Y-119500000D01*
%TO.C,C34*%
X168700000Y-74500000D02*
X168700000Y-75500000D01*
X168700000Y-74500000D02*
X171300000Y-74500000D01*
X171300000Y-75500000D02*
X168700000Y-75500000D01*
X171300000Y-75500000D02*
X171300000Y-74500000D01*
%TO.C,U11*%
X150750000Y-75750000D02*
X161250000Y-75750000D01*
X150750000Y-86250000D02*
X150750000Y-75750000D01*
X161250000Y-75750000D02*
X161250000Y-86250000D01*
X161250000Y-86250000D02*
X150750000Y-86250000D01*
%TO.C,L9*%
X114480000Y-127100000D02*
X117520000Y-127100000D01*
X114480000Y-130900000D02*
X114480000Y-127100000D01*
X117520000Y-127100000D02*
X117520000Y-130900000D01*
X117520000Y-130900000D02*
X114480000Y-130900000D01*
%TO.C,U2*%
X109550000Y-55550000D02*
X109550000Y-64450000D01*
X109550000Y-64450000D02*
X116450000Y-64450000D01*
X116450000Y-55550000D02*
X109550000Y-55550000D01*
X116450000Y-55550000D02*
X116450000Y-64450000D01*
%TO.C,C21*%
X150700000Y-100500000D02*
X150700000Y-101500000D01*
X150700000Y-100500000D02*
X153300000Y-100500000D01*
X153300000Y-101500000D02*
X150700000Y-101500000D01*
X153300000Y-101500000D02*
X153300000Y-100500000D01*
%TO.C,C76*%
X158650000Y-103500000D02*
X158650000Y-104500000D01*
X158650000Y-103500000D02*
X161250000Y-103500000D01*
X161250000Y-104500000D02*
X158650000Y-104500000D01*
X161250000Y-104500000D02*
X161250000Y-103500000D01*
%TO.C,R4*%
X143700000Y-93500000D02*
X143700000Y-94500000D01*
X143700000Y-93500000D02*
X146300000Y-93500000D01*
X146300000Y-94500000D02*
X143700000Y-94500000D01*
X146300000Y-94500000D02*
X146300000Y-93500000D01*
%TO.C,R32*%
X103500000Y-130300000D02*
X103500000Y-127700000D01*
X103500000Y-130300000D02*
X104500000Y-130300000D01*
X104500000Y-127700000D02*
X103500000Y-127700000D01*
X104500000Y-127700000D02*
X104500000Y-130300000D01*
%TO.C,TP20*%
D11*
X165000000Y-80500000D02*
X165000000Y-81500000D01*
X165000000Y-81500000D02*
X166000000Y-81500000D01*
X166000000Y-80500000D02*
X165000000Y-80500000D01*
X166000000Y-81500000D02*
X166000000Y-80500000D01*
%TO.C,R7*%
D10*
X121700000Y-83500000D02*
X121700000Y-84500000D01*
X121700000Y-83500000D02*
X124300000Y-83500000D01*
X124300000Y-84500000D02*
X121700000Y-84500000D01*
X124300000Y-84500000D02*
X124300000Y-83500000D01*
%TO.C,R16*%
X165750000Y-71050000D02*
X165750000Y-68450000D01*
X165750000Y-71050000D02*
X166750000Y-71050000D01*
X166750000Y-68450000D02*
X165750000Y-68450000D01*
X166750000Y-68450000D02*
X166750000Y-71050000D01*
%TO.C,R13*%
X161500000Y-75300000D02*
X161500000Y-72700000D01*
X161500000Y-75300000D02*
X162500000Y-75300000D01*
X162500000Y-72700000D02*
X161500000Y-72700000D01*
X162500000Y-72700000D02*
X162500000Y-75300000D01*
%TO.C,U12*%
X147300000Y-133250000D02*
X150700000Y-133250000D01*
X147300000Y-136750000D02*
X147300000Y-133250000D01*
X150700000Y-133250000D02*
X150700000Y-136750000D01*
X150700000Y-136750000D02*
X147300000Y-136750000D01*
%TO.C,C6*%
X164700000Y-76500000D02*
X164700000Y-77500000D01*
X164700000Y-76500000D02*
X167300000Y-76500000D01*
X167300000Y-77500000D02*
X164700000Y-77500000D01*
X167300000Y-77500000D02*
X167300000Y-76500000D01*
%TO.C,R50*%
X160700000Y-123500000D02*
X160700000Y-124500000D01*
X160700000Y-123500000D02*
X163300000Y-123500000D01*
X163300000Y-124500000D02*
X160700000Y-124500000D01*
X163300000Y-124500000D02*
X163300000Y-123500000D01*
%TO.C,C9*%
X166950000Y-82500000D02*
X166950000Y-83500000D01*
X166950000Y-82500000D02*
X169550000Y-82500000D01*
X169550000Y-83500000D02*
X166950000Y-83500000D01*
X169550000Y-83500000D02*
X169550000Y-82500000D01*
%TO.C,R1*%
X139700000Y-91500000D02*
X139700000Y-92500000D01*
X139700000Y-91500000D02*
X142300000Y-91500000D01*
X142300000Y-92500000D02*
X139700000Y-92500000D01*
X142300000Y-92500000D02*
X142300000Y-91500000D01*
%TO.C,L13*%
X126480000Y-119100000D02*
X129520000Y-119100000D01*
X126480000Y-122900000D02*
X126480000Y-119100000D01*
X129520000Y-119100000D02*
X129520000Y-122900000D01*
X129520000Y-122900000D02*
X126480000Y-122900000D01*
%TO.C,L4*%
X168900000Y-72500000D02*
X171100000Y-72500000D01*
X168900000Y-73500000D02*
X168900000Y-72500000D01*
X171100000Y-72500000D02*
X171100000Y-73500000D01*
X171100000Y-73500000D02*
X168900000Y-73500000D01*
%TO.C,C65*%
X168700000Y-95625000D02*
X168700000Y-96625000D01*
X168700000Y-95625000D02*
X171300000Y-95625000D01*
X171300000Y-96625000D02*
X168700000Y-96625000D01*
X171300000Y-96625000D02*
X171300000Y-95625000D01*
%TO.C,C24*%
X158700000Y-100500000D02*
X158700000Y-101500000D01*
X158700000Y-100500000D02*
X161300000Y-100500000D01*
X161300000Y-101500000D02*
X158700000Y-101500000D01*
X161300000Y-101500000D02*
X161300000Y-100500000D01*
%TO.C,R28*%
X149500000Y-140300000D02*
X149500000Y-137700000D01*
X149500000Y-140300000D02*
X150500000Y-140300000D01*
X150500000Y-137700000D02*
X149500000Y-137700000D01*
X150500000Y-137700000D02*
X150500000Y-140300000D01*
%TO.C,R20*%
X144700000Y-84500000D02*
X144700000Y-85500000D01*
X144700000Y-84500000D02*
X147300000Y-84500000D01*
X147300000Y-85500000D02*
X144700000Y-85500000D01*
X147300000Y-85500000D02*
X147300000Y-84500000D01*
%TO.C,C47*%
X147700000Y-72500000D02*
X147700000Y-73500000D01*
X147700000Y-72500000D02*
X150300000Y-72500000D01*
X150300000Y-73500000D02*
X147700000Y-73500000D01*
X150300000Y-73500000D02*
X150300000Y-72500000D01*
%TO.C,C12*%
X138900000Y-115600000D02*
X138900000Y-116600000D01*
X138900000Y-115600000D02*
X141500000Y-115600000D01*
X141500000Y-116600000D02*
X138900000Y-116600000D01*
X141500000Y-116600000D02*
X141500000Y-115600000D01*
%TO.C,TP4*%
X103000000Y-70000000D02*
X105000000Y-70000000D01*
X105000000Y-72000000D01*
X103000000Y-72000000D01*
X103000000Y-70000000D01*
%TO.C,J2*%
X143486483Y-143125996D02*
X150486483Y-143125996D01*
X143486483Y-157375996D02*
X143486483Y-143125996D01*
X150486483Y-143125996D02*
X150486483Y-157395996D01*
X150486483Y-157395996D02*
X143486483Y-157375996D01*
%TO.C,C48*%
X110500000Y-140300000D02*
X110500000Y-137700000D01*
X110500000Y-140300000D02*
X111500000Y-140300000D01*
X111500000Y-137700000D02*
X110500000Y-137700000D01*
X111500000Y-137700000D02*
X111500000Y-140300000D01*
%TO.C,TP9*%
X119000000Y-81000000D02*
X121000000Y-81000000D01*
X121000000Y-83000000D01*
X119000000Y-83000000D01*
X119000000Y-81000000D01*
%TO.C,C41*%
X147700000Y-77000000D02*
X147700000Y-78000000D01*
X147700000Y-77000000D02*
X150300000Y-77000000D01*
X150300000Y-78000000D02*
X147700000Y-78000000D01*
X150300000Y-78000000D02*
X150300000Y-77000000D01*
%TO.C,J1*%
X107500000Y-142946611D02*
X114500000Y-142946611D01*
X107500000Y-157196611D02*
X107500000Y-142946611D01*
X114500000Y-142946611D02*
X114500000Y-157216611D01*
X114500000Y-157216611D02*
X107500000Y-157196611D01*
%TO.C,TP1*%
X128000000Y-138000000D02*
X130000000Y-138000000D01*
X130000000Y-140000000D01*
X128000000Y-140000000D01*
X128000000Y-138000000D01*
%TO.C,L7*%
X144900000Y-75300000D02*
X147100000Y-75300000D01*
X144900000Y-76300000D02*
X144900000Y-75300000D01*
X147100000Y-75300000D02*
X147100000Y-76300000D01*
X147100000Y-76300000D02*
X144900000Y-76300000D01*
%TO.C,C20*%
X143700000Y-129500000D02*
X143700000Y-130500000D01*
X143700000Y-129500000D02*
X146300000Y-129500000D01*
X146300000Y-130500000D02*
X143700000Y-130500000D01*
X146300000Y-130500000D02*
X146300000Y-129500000D01*
%TO.C,C35*%
X134700000Y-84500000D02*
X134700000Y-85500000D01*
X134700000Y-84500000D02*
X137300000Y-84500000D01*
X137300000Y-85500000D02*
X134700000Y-85500000D01*
X137300000Y-85500000D02*
X137300000Y-84500000D01*
%TO.C,C10*%
X144250000Y-73500000D02*
X144250000Y-74500000D01*
X144250000Y-73500000D02*
X146850000Y-73500000D01*
X146850000Y-74500000D02*
X144250000Y-74500000D01*
X146850000Y-74500000D02*
X146850000Y-73500000D01*
%TO.C,U5*%
X129550000Y-69550000D02*
X129550000Y-78450000D01*
X129550000Y-78450000D02*
X136450000Y-78450000D01*
X136450000Y-69550000D02*
X129550000Y-69550000D01*
X136450000Y-69550000D02*
X136450000Y-78450000D01*
%TO.C,C37*%
X117500000Y-75300000D02*
X117500000Y-72700000D01*
X117500000Y-75300000D02*
X118500000Y-75300000D01*
X118500000Y-72700000D02*
X117500000Y-72700000D01*
X118500000Y-72700000D02*
X118500000Y-75300000D01*
%TO.C,D1*%
X107100000Y-64900000D02*
X107100000Y-69300000D01*
X107100000Y-69300000D02*
X108900000Y-69300000D01*
X108900000Y-64900000D02*
X107100000Y-64900000D01*
X108900000Y-69300000D02*
X108900000Y-64900000D01*
%TO.C,TP10*%
X119000000Y-85000000D02*
X121000000Y-85000000D01*
X121000000Y-87000000D01*
X119000000Y-87000000D01*
X119000000Y-85000000D01*
%TO.C,R11*%
X156350000Y-87600000D02*
X158650000Y-87600000D01*
X156350000Y-89400000D02*
X156350000Y-87600000D01*
X158650000Y-87600000D02*
X158650000Y-89400000D01*
X158650000Y-89400000D02*
X156350000Y-89400000D01*
%TO.C,R56*%
X149200000Y-104000000D02*
X149200000Y-105000000D01*
X149200000Y-104000000D02*
X151800000Y-104000000D01*
X151800000Y-105000000D02*
X149200000Y-105000000D01*
X151800000Y-105000000D02*
X151800000Y-104000000D01*
%TO.C,C1*%
X147700000Y-91500000D02*
X147700000Y-92500000D01*
X147700000Y-91500000D02*
X150300000Y-91500000D01*
X150300000Y-92500000D02*
X147700000Y-92500000D01*
X150300000Y-92500000D02*
X150300000Y-91500000D01*
%TO.C,R48*%
X163700000Y-132500000D02*
X163700000Y-133500000D01*
X163700000Y-132500000D02*
X166300000Y-132500000D01*
X166300000Y-133500000D02*
X163700000Y-133500000D01*
X166300000Y-133500000D02*
X166300000Y-132500000D01*
%TO.C,C68*%
X160700000Y-129500000D02*
X160700000Y-130500000D01*
X160700000Y-129500000D02*
X163300000Y-129500000D01*
X163300000Y-130500000D02*
X160700000Y-130500000D01*
X163300000Y-130500000D02*
X163300000Y-129500000D01*
%TO.C,R9*%
X161250000Y-92350000D02*
X163050000Y-92350000D01*
X161250000Y-94650000D02*
X161250000Y-92350000D01*
X163050000Y-92350000D02*
X163050000Y-94650000D01*
X163050000Y-94650000D02*
X161250000Y-94650000D01*
%TO.C,TP7*%
X103000000Y-84500000D02*
X105000000Y-84500000D01*
X105000000Y-86500000D01*
X103000000Y-86500000D01*
X103000000Y-84500000D01*
%TO.C,R14*%
X150700000Y-72500000D02*
X150700000Y-73500000D01*
X150700000Y-72500000D02*
X153300000Y-72500000D01*
X153300000Y-73500000D02*
X150700000Y-73500000D01*
X153300000Y-73500000D02*
X153300000Y-72500000D01*
%TO.C,U3*%
X129550000Y-55550000D02*
X129550000Y-64450000D01*
X129550000Y-64450000D02*
X136450000Y-64450000D01*
X136450000Y-55550000D02*
X129550000Y-55550000D01*
X136450000Y-55550000D02*
X136450000Y-64450000D01*
%TO.C,C45*%
X147950000Y-82450000D02*
X147950000Y-83450000D01*
X147950000Y-82450000D02*
X150550000Y-82450000D01*
X150550000Y-83450000D02*
X147950000Y-83450000D01*
X150550000Y-83450000D02*
X150550000Y-82450000D01*
%TO.C,J10*%
X144660000Y-102975000D02*
X144660000Y-107575000D01*
X144660000Y-107575000D02*
X148660000Y-107575000D01*
X148660000Y-102975000D02*
X144660000Y-102975000D01*
X148660000Y-107575000D02*
X148660000Y-102975000D01*
%TO.C,C63*%
X167700000Y-126500000D02*
X167700000Y-127500000D01*
X167700000Y-126500000D02*
X170300000Y-126500000D01*
X170300000Y-127500000D02*
X167700000Y-127500000D01*
X170300000Y-127500000D02*
X170300000Y-126500000D01*
%TO.C,C72*%
X167700000Y-119500000D02*
X167700000Y-120500000D01*
X167700000Y-119500000D02*
X170300000Y-119500000D01*
X170300000Y-120500000D02*
X167700000Y-120500000D01*
X170300000Y-120500000D02*
X170300000Y-119500000D01*
%TO.C,D2*%
X117100000Y-64900000D02*
X117100000Y-69300000D01*
X117100000Y-69300000D02*
X118900000Y-69300000D01*
X118900000Y-64900000D02*
X117100000Y-64900000D01*
X118900000Y-69300000D02*
X118900000Y-64900000D01*
%TO.C,C58*%
X122700000Y-115500000D02*
X122700000Y-116500000D01*
X122700000Y-115500000D02*
X125300000Y-115500000D01*
X125300000Y-116500000D02*
X122700000Y-116500000D01*
X125300000Y-116500000D02*
X125300000Y-115500000D01*
%TO.C,C26*%
X143700000Y-119500000D02*
X143700000Y-120500000D01*
X143700000Y-119500000D02*
X146300000Y-119500000D01*
X146300000Y-120500000D02*
X143700000Y-120500000D01*
X146300000Y-120500000D02*
X146300000Y-119500000D01*
%TO.C,D3*%
X136200000Y-50800000D02*
X139800000Y-50800000D01*
X139800000Y-53150000D01*
X136200000Y-53150000D01*
X136200000Y-50800000D01*
%TO.C,R37*%
X103500000Y-122300000D02*
X103500000Y-119700000D01*
X103500000Y-122300000D02*
X104500000Y-122300000D01*
X104500000Y-119700000D02*
X103500000Y-119700000D01*
X104500000Y-119700000D02*
X104500000Y-122300000D01*
%TO.C,R5*%
X143700000Y-97500000D02*
X143700000Y-98500000D01*
X143700000Y-97500000D02*
X146300000Y-97500000D01*
X146300000Y-98500000D02*
X143700000Y-98500000D01*
X146300000Y-98500000D02*
X146300000Y-97500000D01*
%TO.C,C69*%
X168700000Y-113500000D02*
X168700000Y-114500000D01*
X168700000Y-113500000D02*
X171300000Y-113500000D01*
X171300000Y-114500000D02*
X168700000Y-114500000D01*
X171300000Y-114500000D02*
X171300000Y-113500000D01*
%TO.C,C8*%
X147700000Y-98500000D02*
X147700000Y-99500000D01*
X147700000Y-98500000D02*
X150300000Y-98500000D01*
X150300000Y-99500000D02*
X147700000Y-99500000D01*
X150300000Y-99500000D02*
X150300000Y-98500000D01*
%TO.C,U21*%
X156375000Y-117625000D02*
X156375000Y-115125000D01*
X156375000Y-117625000D02*
X159775000Y-117625000D01*
X159775000Y-115125000D02*
X156375000Y-115125000D01*
X159775000Y-115125000D02*
X159775000Y-117625000D01*
%TO.C,R23*%
X141200000Y-86500000D02*
X141200000Y-87500000D01*
X141200000Y-86500000D02*
X143800000Y-86500000D01*
X143800000Y-87500000D02*
X141200000Y-87500000D01*
X143800000Y-87500000D02*
X143800000Y-86500000D01*
%TO.C,C7*%
X166950000Y-84500000D02*
X166950000Y-85500000D01*
X166950000Y-84500000D02*
X169550000Y-84500000D01*
X169550000Y-85500000D02*
X166950000Y-85500000D01*
X169550000Y-85500000D02*
X169550000Y-84500000D01*
%TO.C,C13*%
X107500000Y-73300000D02*
X107500000Y-70700000D01*
X107500000Y-73300000D02*
X108500000Y-73300000D01*
X108500000Y-70700000D02*
X107500000Y-70700000D01*
X108500000Y-70700000D02*
X108500000Y-73300000D01*
%TO.C,TP5*%
X103000000Y-80000000D02*
X105000000Y-80000000D01*
X105000000Y-82000000D01*
X103000000Y-82000000D01*
X103000000Y-80000000D01*
%TO.C,TP13*%
X103000000Y-141000000D02*
X105000000Y-141000000D01*
X105000000Y-143000000D01*
X103000000Y-143000000D01*
X103000000Y-141000000D01*
%TO.C,Z1*%
X150445000Y-69340000D02*
X153445000Y-69340000D01*
X150445000Y-70660000D02*
X150445000Y-69340000D01*
X153435000Y-70660000D02*
X150445000Y-70660000D01*
X153445000Y-69340000D02*
X153445000Y-70660000D01*
%TO.C,R15*%
X167250000Y-71050000D02*
X167250000Y-68450000D01*
X167250000Y-71050000D02*
X168250000Y-71050000D01*
X168250000Y-68450000D02*
X167250000Y-68450000D01*
X168250000Y-68450000D02*
X168250000Y-71050000D01*
%TO.C,R43*%
X166700000Y-138500000D02*
X166700000Y-139500000D01*
X166700000Y-138500000D02*
X169300000Y-138500000D01*
X169300000Y-139500000D02*
X166700000Y-139500000D01*
X169300000Y-139500000D02*
X169300000Y-138500000D01*
%TO.C,C52*%
X105500000Y-130300000D02*
X105500000Y-127700000D01*
X105500000Y-130300000D02*
X106500000Y-130300000D01*
X106500000Y-127700000D02*
X105500000Y-127700000D01*
X106500000Y-127700000D02*
X106500000Y-130300000D01*
%TO.C,R19*%
X141200000Y-82500000D02*
X141200000Y-83500000D01*
X141200000Y-82500000D02*
X143800000Y-82500000D01*
X143800000Y-83500000D02*
X141200000Y-83500000D01*
X143800000Y-83500000D02*
X143800000Y-82500000D01*
%TO.C,C2*%
X148700000Y-86500000D02*
X148700000Y-87500000D01*
X148700000Y-86500000D02*
X151300000Y-86500000D01*
X151300000Y-87500000D02*
X148700000Y-87500000D01*
X151300000Y-87500000D02*
X151300000Y-86500000D01*
%TO.C,R33*%
X111500000Y-130300000D02*
X111500000Y-127700000D01*
X111500000Y-130300000D02*
X112500000Y-130300000D01*
X112500000Y-127700000D02*
X111500000Y-127700000D01*
X112500000Y-127700000D02*
X112500000Y-130300000D01*
%TO.C,C46*%
X147700000Y-75300000D02*
X147700000Y-76300000D01*
X147700000Y-75300000D02*
X150300000Y-75300000D01*
X150300000Y-76300000D02*
X147700000Y-76300000D01*
X150300000Y-76300000D02*
X150300000Y-75300000D01*
%TO.C,R18*%
X144600000Y-82500000D02*
X144600000Y-83500000D01*
X144600000Y-82500000D02*
X147200000Y-82500000D01*
X147200000Y-83500000D02*
X144600000Y-83500000D01*
X147200000Y-83500000D02*
X147200000Y-82500000D01*
%TO.C,C11*%
X134700000Y-80500000D02*
X134700000Y-81500000D01*
X134700000Y-80500000D02*
X137300000Y-80500000D01*
X137300000Y-81500000D02*
X134700000Y-81500000D01*
X137300000Y-81500000D02*
X137300000Y-80500000D01*
%TO.C,C19*%
X147700000Y-129500000D02*
X147700000Y-130500000D01*
X147700000Y-129500000D02*
X150300000Y-129500000D01*
X150300000Y-130500000D02*
X147700000Y-130500000D01*
X150300000Y-130500000D02*
X150300000Y-129500000D01*
%TO.C,R25*%
X145500000Y-57300000D02*
X145500000Y-54700000D01*
X145500000Y-57300000D02*
X146500000Y-57300000D01*
X146500000Y-54700000D02*
X145500000Y-54700000D01*
X146500000Y-54700000D02*
X146500000Y-57300000D01*
%TO.C,U1*%
X109550000Y-69550000D02*
X109550000Y-78450000D01*
X109550000Y-78450000D02*
X116450000Y-78450000D01*
X116450000Y-69550000D02*
X109550000Y-69550000D01*
X116450000Y-69550000D02*
X116450000Y-78450000D01*
%TO.C,Q2*%
X156300000Y-123250000D02*
X159700000Y-123250000D01*
X156300000Y-126750000D02*
X156300000Y-123250000D01*
X159700000Y-123250000D02*
X159700000Y-126750000D01*
X159700000Y-126750000D02*
X156300000Y-126750000D01*
%TO.C,C32*%
X117500000Y-61300000D02*
X117500000Y-58700000D01*
X117500000Y-61300000D02*
X118500000Y-61300000D01*
X118500000Y-58700000D02*
X117500000Y-58700000D01*
X118500000Y-58700000D02*
X118500000Y-61300000D01*
%TO.C,C16*%
X147700000Y-100500000D02*
X147700000Y-101500000D01*
X147700000Y-100500000D02*
X150300000Y-100500000D01*
X150300000Y-101500000D02*
X147700000Y-101500000D01*
X150300000Y-101500000D02*
X150300000Y-100500000D01*
%TO.C,R8*%
X161350000Y-95300000D02*
X161350000Y-96300000D01*
X161350000Y-95300000D02*
X163950000Y-95300000D01*
X163950000Y-96300000D02*
X161350000Y-96300000D01*
X163950000Y-96300000D02*
X163950000Y-95300000D01*
%TO.C,C56*%
X126700000Y-115500000D02*
X126700000Y-116500000D01*
X126700000Y-115500000D02*
X129300000Y-115500000D01*
X129300000Y-116500000D02*
X126700000Y-116500000D01*
X129300000Y-116500000D02*
X129300000Y-115500000D01*
%TO.C,U4*%
X138200000Y-111000000D02*
X141800000Y-111000000D01*
X138200000Y-115000000D02*
X138200000Y-111000000D01*
X141800000Y-111000000D02*
X141800000Y-115000000D01*
X141800000Y-115000000D02*
X138200000Y-115000000D01*
%TO.C,C53*%
X122700000Y-99500000D02*
X122700000Y-100500000D01*
X122700000Y-99500000D02*
X125300000Y-99500000D01*
X125300000Y-100500000D02*
X122700000Y-100500000D01*
X125300000Y-100500000D02*
X125300000Y-99500000D01*
%TO.C,R6*%
X134700000Y-86000000D02*
X134700000Y-87000000D01*
X134700000Y-86000000D02*
X137300000Y-86000000D01*
X137300000Y-87000000D02*
X134700000Y-87000000D01*
X137300000Y-87000000D02*
X137300000Y-86000000D01*
%TO.C,J9*%
X122660000Y-132200000D02*
X122660000Y-135800000D01*
X122660000Y-135800000D02*
X131460000Y-135800000D01*
X131460000Y-132200000D02*
X122660000Y-132200000D01*
X131460000Y-135800000D02*
X131460000Y-132200000D01*
%TO.C,C77*%
X147950000Y-84500000D02*
X147950000Y-85500000D01*
X147950000Y-84500000D02*
X150550000Y-84500000D01*
X150550000Y-85500000D02*
X147950000Y-85500000D01*
X150550000Y-85500000D02*
X150550000Y-84500000D01*
%TO.C,R46*%
X157700000Y-135500000D02*
X157700000Y-136500000D01*
X157700000Y-135500000D02*
X160300000Y-135500000D01*
X160300000Y-136500000D02*
X157700000Y-136500000D01*
X160300000Y-136500000D02*
X160300000Y-135500000D01*
%TO.C,L10*%
X126480000Y-103100000D02*
X129520000Y-103100000D01*
X126480000Y-106900000D02*
X126480000Y-103100000D01*
X129520000Y-103100000D02*
X129520000Y-106900000D01*
X129520000Y-106900000D02*
X126480000Y-106900000D01*
%TO.C,R44*%
X160700000Y-132500000D02*
X160700000Y-133500000D01*
X160700000Y-132500000D02*
X163300000Y-132500000D01*
X163300000Y-133500000D02*
X160700000Y-133500000D01*
X163300000Y-133500000D02*
X163300000Y-132500000D01*
%TO.C,R58*%
X155450000Y-100500000D02*
X155450000Y-101500000D01*
X155450000Y-100500000D02*
X158050000Y-100500000D01*
X158050000Y-101500000D02*
X155450000Y-101500000D01*
X158050000Y-101500000D02*
X158050000Y-100500000D01*
%TO.C,U19*%
X167300000Y-124250000D02*
X167300000Y-121750000D01*
X167300000Y-124250000D02*
X170700000Y-124250000D01*
X170700000Y-121750000D02*
X167300000Y-121750000D01*
X170700000Y-121750000D02*
X170700000Y-124250000D01*
%TO.C,R51*%
X160700000Y-126500000D02*
X160700000Y-127500000D01*
X160700000Y-126500000D02*
X163300000Y-126500000D01*
X163300000Y-127500000D02*
X160700000Y-127500000D01*
X163300000Y-127500000D02*
X163300000Y-126500000D01*
%TO.C,C18*%
X139700000Y-123500000D02*
X139700000Y-124500000D01*
X139700000Y-123500000D02*
X142300000Y-123500000D01*
X142300000Y-124500000D02*
X139700000Y-124500000D01*
X142300000Y-124500000D02*
X142300000Y-123500000D01*
%TO.C,C25*%
X151700000Y-124500000D02*
X151700000Y-125500000D01*
X151700000Y-124500000D02*
X154300000Y-124500000D01*
X154300000Y-125500000D02*
X151700000Y-125500000D01*
X154300000Y-125500000D02*
X154300000Y-124500000D01*
%TO.C,TP2*%
X131000000Y-138000000D02*
X133000000Y-138000000D01*
X133000000Y-140000000D01*
X131000000Y-140000000D01*
X131000000Y-138000000D01*
%TO.C,C71*%
X163700000Y-117500000D02*
X163700000Y-118500000D01*
X163700000Y-117500000D02*
X166300000Y-117500000D01*
X166300000Y-118500000D02*
X163700000Y-118500000D01*
X166300000Y-118500000D02*
X166300000Y-117500000D01*
%TO.C,R22*%
X144700000Y-86500000D02*
X144700000Y-87500000D01*
X144700000Y-86500000D02*
X147300000Y-86500000D01*
X147300000Y-87500000D02*
X144700000Y-87500000D01*
X147300000Y-87500000D02*
X147300000Y-86500000D01*
%TO.C,L11*%
X126100000Y-111480000D02*
X129900000Y-111480000D01*
X126100000Y-114520000D02*
X126100000Y-111480000D01*
X129900000Y-111480000D02*
X129900000Y-114520000D01*
X129900000Y-114520000D02*
X126100000Y-114520000D01*
%TO.C,R53*%
X159700000Y-106500000D02*
X159700000Y-107500000D01*
X159700000Y-106500000D02*
X162300000Y-106500000D01*
X162300000Y-107500000D02*
X159700000Y-107500000D01*
X162300000Y-107500000D02*
X162300000Y-106500000D01*
%TO.C,U22*%
X154200000Y-102350000D02*
X157800000Y-102350000D01*
X154200000Y-106350000D02*
X154200000Y-102350000D01*
X157800000Y-102350000D02*
X157800000Y-106350000D01*
X157800000Y-106350000D02*
X154200000Y-106350000D01*
%TO.C,L6*%
X144900000Y-78500000D02*
X147100000Y-78500000D01*
X144900000Y-79500000D02*
X144900000Y-78500000D01*
X147100000Y-78500000D02*
X147100000Y-79500000D01*
X147100000Y-79500000D02*
X144900000Y-79500000D01*
%TO.C,R52*%
X156700000Y-120500000D02*
X156700000Y-121500000D01*
X156700000Y-120500000D02*
X159300000Y-120500000D01*
X159300000Y-121500000D02*
X156700000Y-121500000D01*
X159300000Y-121500000D02*
X159300000Y-120500000D01*
%TO.C,L16*%
X168900000Y-111500000D02*
X171100000Y-111500000D01*
X168900000Y-112500000D02*
X168900000Y-111500000D01*
X171100000Y-111500000D02*
X171100000Y-112500000D01*
X171100000Y-112500000D02*
X168900000Y-112500000D01*
%TO.C,U9*%
X125025000Y-82195000D02*
X134325000Y-82195000D01*
X125025000Y-87075000D02*
X125025000Y-82195000D01*
X134325000Y-82195000D02*
X134325000Y-87075000D01*
X134325000Y-87075000D02*
X125025000Y-87075000D01*
%TO.C,C70*%
X156700000Y-118500000D02*
X156700000Y-119500000D01*
X156700000Y-118500000D02*
X159300000Y-118500000D01*
X159300000Y-119500000D02*
X156700000Y-119500000D01*
X159300000Y-119500000D02*
X159300000Y-118500000D01*
%TO.C,C28*%
X139700000Y-93500000D02*
X139700000Y-94500000D01*
X139700000Y-93500000D02*
X142300000Y-93500000D01*
X142300000Y-94500000D02*
X139700000Y-94500000D01*
X142300000Y-94500000D02*
X142300000Y-93500000D01*
%TO.C,TP17*%
X165250000Y-106500000D02*
X167250000Y-106500000D01*
X167250000Y-108500000D01*
X165250000Y-108500000D01*
X165250000Y-106500000D01*
%TO.C,C36*%
X137500000Y-61300000D02*
X137500000Y-58700000D01*
X137500000Y-61300000D02*
X138500000Y-61300000D01*
X138500000Y-58700000D02*
X137500000Y-58700000D01*
X138500000Y-58700000D02*
X138500000Y-61300000D01*
%TO.C,TP3*%
X139000000Y-127000000D02*
X141000000Y-127000000D01*
X141000000Y-129000000D01*
X139000000Y-129000000D01*
X139000000Y-127000000D01*
%TO.C,TP11*%
X159000000Y-87100000D02*
X161000000Y-87100000D01*
X161000000Y-89100000D01*
X159000000Y-89100000D01*
X159000000Y-87100000D01*
%TO.C,C33*%
X141400000Y-62100000D02*
X141400000Y-63900000D01*
X141400000Y-62100000D02*
X145600000Y-62100000D01*
X145600000Y-63900000D02*
X141400000Y-63900000D01*
X145600000Y-63900000D02*
X145600000Y-62100000D01*
%TO.C,R34*%
X137500000Y-140300000D02*
X137500000Y-137700000D01*
X137500000Y-140300000D02*
X138500000Y-140300000D01*
X138500000Y-137700000D02*
X137500000Y-137700000D01*
X138500000Y-137700000D02*
X138500000Y-140300000D01*
%TO.C,R29*%
X143500000Y-140300000D02*
X143500000Y-137700000D01*
X143500000Y-140300000D02*
X144500000Y-140300000D01*
X144500000Y-137700000D02*
X143500000Y-137700000D01*
X144500000Y-137700000D02*
X144500000Y-140300000D01*
%TO.C,U16*%
X167175000Y-127900000D02*
X170825000Y-127900000D01*
X167175000Y-132100000D02*
X167175000Y-127900000D01*
X170825000Y-127900000D02*
X170825000Y-132100000D01*
X170825000Y-132100000D02*
X167175000Y-132100000D01*
%TO.C,H4*%
X105600000Y-53000000D02*
G75*
G02*
X102400000Y-53000000I-1600000J0D01*
G01*
X102400000Y-53000000D02*
G75*
G02*
X105600000Y-53000000I1600000J0D01*
G01*
%TO.C,U18*%
X163300000Y-122250000D02*
X163300000Y-119750000D01*
X163300000Y-122250000D02*
X166700000Y-122250000D01*
X166700000Y-119750000D02*
X163300000Y-119750000D01*
X166700000Y-119750000D02*
X166700000Y-122250000D01*
%TO.C,TP6*%
X169000000Y-76500000D02*
X171000000Y-76500000D01*
X171000000Y-78500000D01*
X169000000Y-78500000D01*
X169000000Y-76500000D01*
%TO.C,R38*%
X111500000Y-122300000D02*
X111500000Y-119700000D01*
X111500000Y-122300000D02*
X112500000Y-122300000D01*
X112500000Y-119700000D02*
X111500000Y-119700000D01*
X112500000Y-119700000D02*
X112500000Y-122300000D01*
%TO.C,L14*%
X126100000Y-127480000D02*
X129900000Y-127480000D01*
X126100000Y-130520000D02*
X126100000Y-127480000D01*
X129900000Y-127480000D02*
X129900000Y-130520000D01*
X129900000Y-130520000D02*
X126100000Y-130520000D01*
%TO.C,H1*%
X105600000Y-146000000D02*
G75*
G02*
X102400000Y-146000000I-1600000J0D01*
G01*
X102400000Y-146000000D02*
G75*
G02*
X105600000Y-146000000I1600000J0D01*
G01*
%TO.C,C49*%
X146500000Y-140300000D02*
X146500000Y-137700000D01*
X146500000Y-140300000D02*
X147500000Y-140300000D01*
X147500000Y-137700000D02*
X146500000Y-137700000D01*
X147500000Y-137700000D02*
X147500000Y-140300000D01*
%TO.C,H2*%
X173600000Y-146000000D02*
G75*
G02*
X170400000Y-146000000I-1600000J0D01*
G01*
X170400000Y-146000000D02*
G75*
G02*
X173600000Y-146000000I1600000J0D01*
G01*
%TO.C,L5*%
X144900000Y-80500000D02*
X147100000Y-80500000D01*
X144900000Y-81500000D02*
X144900000Y-80500000D01*
X147100000Y-80500000D02*
X147100000Y-81500000D01*
X147100000Y-81500000D02*
X144900000Y-81500000D01*
%TO.C,C23*%
X151700000Y-122500000D02*
X151700000Y-123500000D01*
X151700000Y-122500000D02*
X154300000Y-122500000D01*
X154300000Y-123500000D02*
X151700000Y-123500000D01*
X154300000Y-123500000D02*
X154300000Y-122500000D01*
%TO.C,R60*%
X164950000Y-109250000D02*
X164950000Y-110250000D01*
X164950000Y-109250000D02*
X167550000Y-109250000D01*
X167550000Y-110250000D02*
X164950000Y-110250000D01*
X167550000Y-110250000D02*
X167550000Y-109250000D01*
%TO.C,C57*%
X105500000Y-122300000D02*
X105500000Y-119700000D01*
X105500000Y-122300000D02*
X106500000Y-122300000D01*
X106500000Y-119700000D02*
X105500000Y-119700000D01*
X106500000Y-119700000D02*
X106500000Y-122300000D01*
%TO.C,TP18*%
X171000000Y-131000000D02*
X173000000Y-131000000D01*
X173000000Y-133000000D01*
X171000000Y-133000000D01*
X171000000Y-131000000D01*
%TO.C,U8*%
X151100000Y-90100000D02*
X160900000Y-90100000D01*
X151100000Y-99900000D02*
X151100000Y-90100000D01*
X160900000Y-90100000D02*
X160900000Y-99900000D01*
X160900000Y-99900000D02*
X151100000Y-99900000D01*
%TO.C,U15*%
X167300000Y-132250000D02*
X170700000Y-132250000D01*
X167300000Y-135750000D02*
X167300000Y-132250000D01*
X170700000Y-132250000D02*
X170700000Y-135750000D01*
X170700000Y-135750000D02*
X167300000Y-135750000D01*
%TO.C,R39*%
X107700000Y-119500000D02*
X107700000Y-120500000D01*
X107700000Y-119500000D02*
X110300000Y-119500000D01*
X110300000Y-120500000D02*
X107700000Y-120500000D01*
X110300000Y-120500000D02*
X110300000Y-119500000D01*
%TO.C,TP21*%
D11*
X165000000Y-81900000D02*
X165000000Y-82900000D01*
X165000000Y-82900000D02*
X166000000Y-82900000D01*
X166000000Y-81900000D02*
X165000000Y-81900000D01*
X166000000Y-82900000D02*
X166000000Y-81900000D01*
%TO.C,C67*%
D10*
X163700000Y-126500000D02*
X163700000Y-127500000D01*
X163700000Y-126500000D02*
X166300000Y-126500000D01*
X166300000Y-127500000D02*
X163700000Y-127500000D01*
X166300000Y-127500000D02*
X166300000Y-126500000D01*
%TO.C,TP12*%
X161200000Y-87100000D02*
X163200000Y-87100000D01*
X163200000Y-89100000D01*
X161200000Y-89100000D01*
X161200000Y-87100000D01*
%TO.C,R24*%
X115450000Y-85000000D02*
X115450000Y-86000000D01*
X115450000Y-85000000D02*
X118050000Y-85000000D01*
X118050000Y-86000000D02*
X115450000Y-86000000D01*
X118050000Y-86000000D02*
X118050000Y-85000000D01*
%TO.C,C30*%
X143700000Y-95500000D02*
X143700000Y-96500000D01*
X143700000Y-95500000D02*
X146300000Y-95500000D01*
X146300000Y-96500000D02*
X143700000Y-96500000D01*
X146300000Y-96500000D02*
X146300000Y-95500000D01*
%TO.C,C66*%
X157700000Y-132500000D02*
X157700000Y-133500000D01*
X157700000Y-132500000D02*
X160300000Y-132500000D01*
X160300000Y-133500000D02*
X157700000Y-133500000D01*
X160300000Y-133500000D02*
X160300000Y-132500000D01*
%TO.C,U20*%
X152900000Y-107400000D02*
X159100000Y-107400000D01*
X152900000Y-110600000D02*
X152900000Y-107400000D01*
X159100000Y-110600000D02*
X152900000Y-110600000D01*
X159100000Y-110600000D02*
X159100000Y-107400000D01*
%TO.C,U17*%
X156250000Y-128300000D02*
X159750000Y-128300000D01*
X156250000Y-131700000D02*
X156250000Y-128300000D01*
X159750000Y-128300000D02*
X159750000Y-131700000D01*
X159750000Y-131700000D02*
X156250000Y-131700000D01*
%TO.C,C15*%
X151700000Y-126500000D02*
X151700000Y-127500000D01*
X151700000Y-126500000D02*
X154300000Y-126500000D01*
X154300000Y-127500000D02*
X151700000Y-127500000D01*
X154300000Y-127500000D02*
X154300000Y-126500000D01*
%TO.C,C50*%
X126700000Y-93500000D02*
X126700000Y-94500000D01*
X126700000Y-93500000D02*
X129300000Y-93500000D01*
X129300000Y-94500000D02*
X126700000Y-94500000D01*
X129300000Y-94500000D02*
X129300000Y-93500000D01*
%TO.C,R47*%
X157700000Y-138500000D02*
X157700000Y-139500000D01*
X157700000Y-138500000D02*
X160300000Y-138500000D01*
X160300000Y-139500000D02*
X157700000Y-139500000D01*
X160300000Y-139500000D02*
X160300000Y-138500000D01*
%TO.C,X1*%
X167900000Y-115300000D02*
X172100000Y-115300000D01*
X172100000Y-118700000D01*
X167900000Y-118700000D01*
X167900000Y-115300000D01*
%TO.C,L15*%
X170900000Y-126500000D02*
X173100000Y-126500000D01*
X170900000Y-127500000D02*
X170900000Y-126500000D01*
X173100000Y-126500000D02*
X173100000Y-127500000D01*
X173100000Y-127500000D02*
X170900000Y-127500000D01*
%TO.C,C51*%
X126700000Y-99500000D02*
X126700000Y-100500000D01*
X126700000Y-99500000D02*
X129300000Y-99500000D01*
X129300000Y-100500000D02*
X126700000Y-100500000D01*
X129300000Y-100500000D02*
X129300000Y-99500000D01*
%TO.C,R57*%
X149200000Y-105500000D02*
X149200000Y-106500000D01*
X149200000Y-105500000D02*
X151800000Y-105500000D01*
X151800000Y-106500000D02*
X149200000Y-106500000D01*
X151800000Y-106500000D02*
X151800000Y-105500000D01*
%TO.C,R40*%
X147700000Y-131500000D02*
X147700000Y-132500000D01*
X147700000Y-131500000D02*
X150300000Y-131500000D01*
X150300000Y-132500000D02*
X147700000Y-132500000D01*
X150300000Y-132500000D02*
X150300000Y-131500000D01*
%TO.C,C78*%
X147250000Y-97800000D02*
X147250000Y-95200000D01*
X147250000Y-97800000D02*
X148250000Y-97800000D01*
X148250000Y-95200000D02*
X147250000Y-95200000D01*
X148250000Y-95200000D02*
X148250000Y-97800000D01*
%TO.C,R55*%
X151200000Y-116500000D02*
X151200000Y-117500000D01*
X151200000Y-116500000D02*
X153800000Y-116500000D01*
X153800000Y-117500000D02*
X151200000Y-117500000D01*
X153800000Y-117500000D02*
X153800000Y-116500000D01*
%TO.C,TP19*%
X163000000Y-96600000D02*
X165000000Y-96600000D01*
X165000000Y-98600000D01*
X163000000Y-98600000D01*
X163000000Y-96600000D01*
%TO.C,R45*%
X163700000Y-135500000D02*
X163700000Y-136500000D01*
X163700000Y-135500000D02*
X166300000Y-135500000D01*
X166300000Y-136500000D02*
X163700000Y-136500000D01*
X166300000Y-136500000D02*
X166300000Y-135500000D01*
%TO.C,C38*%
X164700000Y-78500000D02*
X164700000Y-79500000D01*
X164700000Y-78500000D02*
X167300000Y-78500000D01*
X167300000Y-79500000D02*
X164700000Y-79500000D01*
X167300000Y-79500000D02*
X167300000Y-78500000D01*
%TO.C,C62*%
X168700000Y-89625000D02*
X168700000Y-90625000D01*
X168700000Y-89625000D02*
X171300000Y-89625000D01*
X171300000Y-90625000D02*
X168700000Y-90625000D01*
X171300000Y-90625000D02*
X171300000Y-89625000D01*
%TO.C,R36*%
X107700000Y-121500000D02*
X107700000Y-122500000D01*
X107700000Y-121500000D02*
X110300000Y-121500000D01*
X110300000Y-122500000D02*
X107700000Y-122500000D01*
X110300000Y-122500000D02*
X110300000Y-121500000D01*
%TO.C,R59*%
X170750000Y-60050000D02*
X170750000Y-57450000D01*
X170750000Y-60050000D02*
X171750000Y-60050000D01*
X171750000Y-57450000D02*
X170750000Y-57450000D01*
X171750000Y-57450000D02*
X171750000Y-60050000D01*
%TO.C,C74*%
X148700000Y-108500000D02*
X148700000Y-109500000D01*
X148700000Y-108500000D02*
X151300000Y-108500000D01*
X151300000Y-109500000D02*
X148700000Y-109500000D01*
X151300000Y-109500000D02*
X151300000Y-108500000D01*
%TO.C,L1*%
X139900000Y-119500000D02*
X142100000Y-119500000D01*
X139900000Y-120500000D02*
X139900000Y-119500000D01*
X142100000Y-119500000D02*
X142100000Y-120500000D01*
X142100000Y-120500000D02*
X139900000Y-120500000D01*
%TO.C,U14*%
X168200000Y-91125000D02*
X171800000Y-91125000D01*
X168200000Y-95125000D02*
X168200000Y-91125000D01*
X171800000Y-91125000D02*
X171800000Y-95125000D01*
X171800000Y-95125000D02*
X168200000Y-95125000D01*
%TO.C,J11*%
X167295000Y-57300000D02*
X169975000Y-57300000D01*
X167295000Y-63780000D02*
X167295000Y-57300000D01*
X169975000Y-57300000D02*
X169975000Y-63780000D01*
X169975000Y-63780000D02*
X167295000Y-63780000D01*
%TO.C,R42*%
X160700000Y-138500000D02*
X160700000Y-139500000D01*
X160700000Y-138500000D02*
X163300000Y-138500000D01*
X163300000Y-139500000D02*
X160700000Y-139500000D01*
X163300000Y-139500000D02*
X163300000Y-138500000D01*
%TO.C,TP8*%
X103000000Y-90500000D02*
X105000000Y-90500000D01*
X105000000Y-92500000D01*
X103000000Y-92500000D01*
X103000000Y-90500000D01*
%TO.C,L8*%
X126100000Y-95480000D02*
X129900000Y-95480000D01*
X126100000Y-98520000D02*
X126100000Y-95480000D01*
X129900000Y-95480000D02*
X129900000Y-98520000D01*
X129900000Y-98520000D02*
X126100000Y-98520000D01*
%TO.C,Q1*%
X169225000Y-106125000D02*
X172625000Y-106125000D01*
X169225000Y-109625000D02*
X169225000Y-106125000D01*
X172625000Y-106125000D02*
X172625000Y-109625000D01*
X172625000Y-109625000D02*
X169225000Y-109625000D01*
%TO.C,J5*%
X149611900Y-48857400D02*
X164311900Y-48857400D01*
X164311900Y-67157400D01*
X149611900Y-67157400D01*
X149611900Y-48857400D01*
%TO.C,C29*%
X139700000Y-89500000D02*
X139700000Y-90500000D01*
X139700000Y-89500000D02*
X142300000Y-89500000D01*
X142300000Y-90500000D02*
X139700000Y-90500000D01*
X142300000Y-90500000D02*
X142300000Y-89500000D01*
%TO.C,C42*%
X115450000Y-83500000D02*
X115450000Y-84500000D01*
X115450000Y-83500000D02*
X118050000Y-83500000D01*
X118050000Y-84500000D02*
X115450000Y-84500000D01*
X118050000Y-84500000D02*
X118050000Y-83500000D01*
%TO.C,TP14*%
X103000000Y-138000000D02*
X105000000Y-138000000D01*
X105000000Y-140000000D01*
X103000000Y-140000000D01*
X103000000Y-138000000D01*
%TO.C,C59*%
X124500000Y-122300000D02*
X124500000Y-119700000D01*
X124500000Y-122300000D02*
X125500000Y-122300000D01*
X125500000Y-119700000D02*
X124500000Y-119700000D01*
X125500000Y-119700000D02*
X125500000Y-122300000D01*
%TO.C,C64*%
X160700000Y-135500000D02*
X160700000Y-136500000D01*
X160700000Y-135500000D02*
X163300000Y-135500000D01*
X163300000Y-136500000D02*
X160700000Y-136500000D01*
X163300000Y-136500000D02*
X163300000Y-135500000D01*
%TO.C,R3*%
X139700000Y-97500000D02*
X139700000Y-98500000D01*
X139700000Y-97500000D02*
X142300000Y-97500000D01*
X142300000Y-98500000D02*
X139700000Y-98500000D01*
X142300000Y-98500000D02*
X142300000Y-97500000D01*
%TO.C,C40*%
X155500000Y-75300000D02*
X155500000Y-72700000D01*
X155500000Y-75300000D02*
X156500000Y-75300000D01*
X156500000Y-72700000D02*
X155500000Y-72700000D01*
X156500000Y-72700000D02*
X156500000Y-75300000D01*
%TO.C,B1*%
X106500000Y-81650000D02*
X114900000Y-81650000D01*
X106500000Y-86400000D02*
X106500000Y-81650000D01*
X114900000Y-81650000D02*
X114900000Y-86400000D01*
X114900000Y-86400000D02*
X106500000Y-86400000D01*
%TO.C,C60*%
X126700000Y-124500000D02*
X126700000Y-125500000D01*
X126700000Y-124500000D02*
X129300000Y-124500000D01*
X129300000Y-125500000D02*
X126700000Y-125500000D01*
X129300000Y-125500000D02*
X129300000Y-124500000D01*
%TO.C,C54*%
X124500000Y-106300000D02*
X124500000Y-103700000D01*
X124500000Y-106300000D02*
X125500000Y-106300000D01*
X125500000Y-103700000D02*
X124500000Y-103700000D01*
X125500000Y-103700000D02*
X125500000Y-106300000D01*
%TO.C,L12*%
X114100000Y-119480000D02*
X117900000Y-119480000D01*
X114100000Y-122520000D02*
X114100000Y-119480000D01*
X117900000Y-119480000D02*
X117900000Y-122520000D01*
X117900000Y-122520000D02*
X114100000Y-122520000D01*
%TO.C,C4*%
X138700000Y-108500000D02*
X138700000Y-109500000D01*
X138700000Y-108500000D02*
X141300000Y-108500000D01*
X141300000Y-109500000D02*
X138700000Y-109500000D01*
X141300000Y-109500000D02*
X141300000Y-108500000D01*
%TO.C,L3*%
X146900000Y-69500000D02*
X149100000Y-69500000D01*
X146900000Y-70500000D02*
X146900000Y-69500000D01*
X149100000Y-69500000D02*
X149100000Y-70500000D01*
X149100000Y-70500000D02*
X146900000Y-70500000D01*
%TO.C,R35*%
X107700000Y-127500000D02*
X107700000Y-128500000D01*
X107700000Y-127500000D02*
X110300000Y-127500000D01*
X110300000Y-128500000D02*
X107700000Y-128500000D01*
X110300000Y-128500000D02*
X110300000Y-127500000D01*
%TO.C,R41*%
X151200000Y-114500000D02*
X151200000Y-115500000D01*
X151200000Y-114500000D02*
X153800000Y-114500000D01*
X153800000Y-115500000D02*
X151200000Y-115500000D01*
X153800000Y-115500000D02*
X153800000Y-114500000D01*
%TO.C,C55*%
X126700000Y-108500000D02*
X126700000Y-109500000D01*
X126700000Y-108500000D02*
X129300000Y-108500000D01*
X129300000Y-109500000D02*
X126700000Y-109500000D01*
X129300000Y-109500000D02*
X129300000Y-108500000D01*
%TO.C,J7*%
X106540000Y-133200000D02*
X106540000Y-136800000D01*
X106540000Y-136800000D02*
X115340000Y-136800000D01*
X115340000Y-133200000D02*
X106540000Y-133200000D01*
X115340000Y-136800000D02*
X115340000Y-133200000D01*
%TO.C,C14*%
X117500000Y-58300000D02*
X117500000Y-55700000D01*
X117500000Y-58300000D02*
X118500000Y-58300000D01*
X118500000Y-55700000D02*
X117500000Y-55700000D01*
X118500000Y-55700000D02*
X118500000Y-58300000D01*
%TO.C,U13*%
X143300000Y-133250000D02*
X146700000Y-133250000D01*
X143300000Y-136750000D02*
X143300000Y-133250000D01*
X146700000Y-133250000D02*
X146700000Y-136750000D01*
X146700000Y-136750000D02*
X143300000Y-136750000D01*
%TO.C,J3*%
X125500000Y-142973000D02*
X132500000Y-142973000D01*
X125500000Y-157223000D02*
X125500000Y-142973000D01*
X132500000Y-142973000D02*
X132500000Y-157243000D01*
X132500000Y-157243000D02*
X125500000Y-157223000D01*
%TO.C,C31*%
X143700000Y-99500000D02*
X143700000Y-100500000D01*
X143700000Y-99500000D02*
X146300000Y-99500000D01*
X146300000Y-100500000D02*
X143700000Y-100500000D01*
X146300000Y-100500000D02*
X146300000Y-99500000D01*
%TO.C,L17*%
X159900000Y-112500000D02*
X162100000Y-112500000D01*
X159900000Y-113500000D02*
X159900000Y-112500000D01*
X162100000Y-112500000D02*
X162100000Y-113500000D01*
X162100000Y-113500000D02*
X159900000Y-113500000D01*
%TO.C,J8*%
X105540000Y-114200000D02*
X105540000Y-117800000D01*
X105540000Y-117800000D02*
X114340000Y-117800000D01*
X114340000Y-114200000D02*
X105540000Y-114200000D01*
X114340000Y-117800000D02*
X114340000Y-114200000D01*
%TO.C,U10*%
X164300000Y-72600000D02*
X167700000Y-72600000D01*
X164300000Y-75400000D02*
X164300000Y-72600000D01*
X167700000Y-72600000D02*
X167700000Y-75400000D01*
X167700000Y-75400000D02*
X164300000Y-75400000D01*
%TO.C,C73*%
X159700000Y-110500000D02*
X159700000Y-111500000D01*
X159700000Y-110500000D02*
X162300000Y-110500000D01*
X162300000Y-111500000D02*
X159700000Y-111500000D01*
X162300000Y-111500000D02*
X162300000Y-110500000D01*
%TO.C,TP15*%
X164000000Y-138000000D02*
X166000000Y-138000000D01*
X166000000Y-140000000D01*
X164000000Y-140000000D01*
X164000000Y-138000000D01*
%TO.C,H3*%
X173600000Y-53000000D02*
G75*
G02*
X170400000Y-53000000I-1600000J0D01*
G01*
X170400000Y-53000000D02*
G75*
G02*
X173600000Y-53000000I1600000J0D01*
G01*
%TO.C,C39*%
X157500000Y-75300000D02*
X157500000Y-72700000D01*
X157500000Y-75300000D02*
X158500000Y-75300000D01*
X158500000Y-72700000D02*
X157500000Y-72700000D01*
X158500000Y-72700000D02*
X158500000Y-75300000D01*
%TO.C,R10*%
X161250000Y-89350000D02*
X163050000Y-89350000D01*
X161250000Y-91650000D02*
X161250000Y-89350000D01*
X163050000Y-89350000D02*
X163050000Y-91650000D01*
X163050000Y-91650000D02*
X161250000Y-91650000D01*
%TO.C,C44*%
X147700000Y-80500000D02*
X147700000Y-81500000D01*
X147700000Y-80500000D02*
X150300000Y-80500000D01*
X150300000Y-81500000D02*
X147700000Y-81500000D01*
X150300000Y-81500000D02*
X150300000Y-80500000D01*
%TO.C,R21*%
X141200000Y-84500000D02*
X141200000Y-85500000D01*
X141200000Y-84500000D02*
X143800000Y-84500000D01*
X143800000Y-85500000D02*
X141200000Y-85500000D01*
X143800000Y-85500000D02*
X143800000Y-84500000D01*
%TO.C,R49*%
X163700000Y-129500000D02*
X163700000Y-130500000D01*
X163700000Y-129500000D02*
X166300000Y-129500000D01*
X166300000Y-130500000D02*
X163700000Y-130500000D01*
X166300000Y-130500000D02*
X166300000Y-129500000D01*
%TO.C,C43*%
X147700000Y-78500000D02*
X147700000Y-79500000D01*
X147700000Y-78500000D02*
X150300000Y-78500000D01*
X150300000Y-79500000D02*
X147700000Y-79500000D01*
X150300000Y-79500000D02*
X150300000Y-78500000D01*
%TO.C,R26*%
X143500000Y-57300000D02*
X143500000Y-54700000D01*
X143500000Y-57300000D02*
X144500000Y-57300000D01*
X144500000Y-54700000D02*
X143500000Y-54700000D01*
X144500000Y-54700000D02*
X144500000Y-57300000D01*
%TO.C,J4*%
X161300000Y-142923000D02*
X168300000Y-142923000D01*
X161300000Y-157173000D02*
X161300000Y-142923000D01*
X168300000Y-142923000D02*
X168300000Y-157193000D01*
X168300000Y-157193000D02*
X161300000Y-157173000D01*
%TD*%
M02*
